<?xml version="1.0" standalone="no"?>
<!DOCTYPE svg PUBLIC "-//W3C//DTD SVG 20010904//EN"
 "http://www.w3.org/TR/2001/REC-SVG-20010904/DTD/svg10.dtd">
<svg version="1.0" xmlns="http://www.w3.org/2000/svg"
 width="1600.000000pt" height="1049.000000pt" viewBox="0 0 1600.000000 1049.000000"
 preserveAspectRatio="xMidYMid meet">

<g transform="translate(0.000000,1049.000000) scale(0.100000,-0.100000)"
fill="#000000" stroke="none">
<path d="M7210 10469 c-724 -58 -1424 -246 -2013 -540 -408 -204 -667 -375
-992 -655 -517 -445 -902 -1007 -1097 -1599 -185 -565 -216 -1137 -93 -1710
99 -457 253 -815 536 -1242 78 -118 186 -263 236 -318 10 -11 71 -80 136 -152
148 -165 305 -313 332 -313 11 0 178 27 370 60 315 53 536 94 1029 189 88 17
171 33 185 36 144 26 704 145 1126 239 910 203 1620 291 2440 303 913 13 1693
-84 2405 -300 63 -20 121 -37 129 -39 28 -7 251 338 357 552 250 506 371 1093
336 1632 -41 628 -245 1215 -607 1748 -347 510 -841 973 -1404 1315 -149 89
-415 229 -592 309 -585 265 -1273 435 -1969 486 -158 12 -699 11 -850 -1z
m-965 -1332 c675 -115 1070 -400 1370 -988 231 -453 285 -1032 145 -1572 -165
-641 -657 -1147 -1275 -1311 -258 -69 -382 -76 -1362 -76 l-813 0 0 1986 0
1985 918 -4 c806 -3 929 -5 1017 -20z m4395 8 c161 -23 283 -60 410 -122 102
-50 126 -67 206 -147 140 -139 228 -285 279 -461 109 -378 -4 -772 -285 -990
-91 -70 -174 -111 -330 -162 -8 -3 23 -16 70 -29 465 -135 689 -429 690 -904
0 -319 -126 -652 -319 -840 -139 -135 -344 -221 -632 -264 -194 -30 -506 -37
-1444 -34 l-920 3 -3 1983 -2 1982 1087 0 c909 0 1105 -3 1193 -15z"/>
<path d="M5520 7184 l0 -1086 218 4 c193 4 224 7 280 26 189 67 363 254 453
487 88 226 119 569 78 845 -56 379 -245 683 -477 770 -90 34 -143 40 -353 40
l-199 0 0 -1086z"/>
<path d="M9470 7981 l0 -341 313 0 c332 0 401 7 477 45 95 48 168 164 178 281
9 123 -54 249 -152 301 -83 43 -109 46 -468 50 l-348 5 0 -341z"/>
<path d="M9470 6438 l0 -368 338 0 c356 0 429 7 508 48 56 29 130 108 160 169
80 164 5 380 -161 465 -75 39 -105 42 -478 47 l-367 6 0 -367z"/>
<path d="M7290 3860 c-122 -9 -550 -48 -580 -54 -8 -1 1 -7 20 -13 l35 -10
-39 -7 c-21 -4 -41 -5 -44 -2 -3 3 6 6 19 7 l24 0 -25 10 c-26 11 -77 6 -345
-33 -77 -11 -153 -21 -170 -23 -119 -12 -386 -50 -367 -53 12 -2 22 -7 22 -12
0 -8 -22 -7 -82 4 -21 5 -198 -13 -218 -21 -8 -3 -33 -7 -55 -8 -76 -3 -444
-59 -439 -66 2 -4 -4 -5 -13 -3 -10 3 -63 -2 -118 -11 -141 -22 -143 -23 -212
-30 -67 -8 -88 -23 -25 -18 l37 2 -35 -9 c-22 -5 -39 -5 -47 2 -8 7 -67 1
-185 -17 -95 -14 -180 -29 -188 -32 -8 -3 -28 -7 -45 -7 -55 -3 -210 -29 -221
-37 -5 -5 -19 -6 -31 -3 -11 3 -24 1 -27 -4 -3 -6 -14 -8 -24 -6 -9 3 -96 -7
-192 -21 -96 -14 -195 -27 -220 -30 -25 -2 -78 -7 -117 -11 -40 -3 -71 -9 -69
-13 2 -3 -25 -5 -60 -4 -35 1 -64 -2 -64 -6 0 -4 -26 -6 -57 -4 -43 3 -54 2
-43 -6 11 -8 8 -10 -15 -5 -16 3 -153 -4 -304 -15 -151 -12 -301 -21 -333 -21
-34 0 -58 -4 -58 -11 0 -6 -8 -8 -19 -4 -17 5 -19 2 -16 -26 3 -18 9 -46 14
-63 5 -17 22 -85 36 -151 l27 -121 147 28 c80 15 158 27 174 27 15 1 27 5 27
11 0 5 6 7 13 5 16 -6 345 50 332 57 -5 2 -4 3 4 1 8 -2 67 4 130 14 73 11
107 19 92 23 -14 3 -26 11 -29 18 -6 18 45 15 56 -4 8 -14 20 -14 128 5 65 12
144 24 174 27 30 3 57 9 60 13 3 4 31 8 62 8 32 1 63 5 70 9 6 4 21 9 32 10
90 8 156 16 181 20 17 2 55 7 85 11 30 3 64 13 74 22 11 9 16 10 12 4 -4 -7
-4 -13 -1 -13 4 0 194 27 423 60 414 59 978 130 1039 130 17 0 35 5 38 10 4 6
11 8 16 5 5 -4 98 2 206 11 191 16 973 27 973 14 0 -4 82 -12 183 -20 100 -7
196 -15 212 -16 17 -1 99 -12 184 -23 111 -14 160 -17 174 -10 14 8 22 8 31
-1 8 -8 6 -9 -8 -4 -13 5 -17 4 -12 -4 4 -7 16 -12 26 -12 38 0 452 -81 603
-118 86 -22 157 -35 157 -30 0 4 6 8 14 8 7 0 16 9 19 20 6 24 32 26 41 4 4
-11 2 -15 -8 -11 -8 3 -17 -1 -20 -9 -3 -8 -13 -14 -23 -14 -15 0 -16 -2 -3
-10 22 -14 52 -13 45 3 -4 6 0 5 7 -4 16 -19 85 -38 74 -20 -10 16 0 14 18 -4
8 -8 23 -16 33 -18 10 -1 24 -6 30 -10 7 -4 21 -3 32 2 11 6 31 10 46 9 24 -2
24 -4 9 -15 -10 -7 -16 -15 -13 -17 5 -5 181 -60 194 -61 6 0 12 -3 15 -7 3
-4 19 -1 34 8 16 8 31 12 34 9 3 -3 0 -5 -7 -5 -7 0 -9 -5 -5 -12 4 -6 3 -8
-4 -4 -6 3 -13 3 -15 -2 -3 -4 49 -27 116 -51 67 -24 174 -66 237 -93 63 -27
120 -51 125 -52 6 -2 42 -18 80 -35 97 -46 115 -52 115 -42 0 5 -3 11 -7 14
-5 2 -1 2 7 0 10 -2 9 2 -4 12 -15 11 -23 12 -40 3 -19 -10 -20 -10 -7 6 12
14 12 16 -2 11 -8 -4 -18 -1 -23 6 -4 7 -3 10 4 5 5 -3 12 -1 14 5 2 6 14 8
31 4 15 -4 25 -11 22 -15 -2 -4 6 -7 20 -7 14 0 22 4 18 10 -4 6 -1 7 6 2 9
-5 7 -12 -8 -26 -37 -34 -27 -48 51 -72 9 -4 19 1 22 10 5 11 2 14 -10 9 -9
-4 2 12 25 34 41 40 61 44 61 14 0 -8 -13 -17 -30 -20 -16 -4 -30 -12 -30 -20
0 -8 8 -11 20 -9 11 2 18 0 15 -4 -2 -5 6 -8 20 -8 15 0 22 4 18 11 -3 6 -2 7
3 3 11 -11 13 -78 2 -70 -5 2 -6 14 -2 26 6 19 5 20 -10 8 -9 -7 -16 -9 -16
-3 0 13 -42 24 -54 12 -10 -10 90 -64 104 -55 6 4 10 2 10 -4 0 -6 9 -15 21
-21 17 -10 20 -9 17 6 -2 11 5 18 22 20 14 1 19 0 12 -2 -6 -3 -9 -11 -6 -16
4 -7 2 -8 -4 -4 -7 4 -12 1 -12 -9 0 -14 6 -16 28 -11 17 4 22 3 13 -2 -16
-12 3 -27 21 -16 6 4 8 3 5 -3 -9 -14 153 -100 183 -98 14 1 31 -2 38 -8 9 -7
16 -7 24 1 15 15 52 16 43 1 -4 -6 -13 -8 -20 -5 -7 2 -17 0 -23 -6 -6 -6 -16
-7 -24 -2 -20 13 -50 15 -43 4 3 -5 12 -10 20 -10 7 0 15 -3 17 -7 5 -11 66
-53 77 -53 5 0 11 -4 13 -8 4 -11 182 -119 185 -112 1 3 12 -4 25 -15 45 -40
89 -66 98 -60 6 4 8 10 5 14 -2 5 6 8 18 7 18 -1 22 -7 22 -33 0 -23 7 -37 25
-50 14 -9 28 -22 32 -27 7 -11 9 -8 12 16 0 6 12 13 26 15 13 2 27 8 31 14 3
6 17 9 30 7 l24 -4 -27 -12 c-33 -14 -35 -32 -8 -57 11 -10 20 -15 20 -10 0 4
7 2 15 -5 13 -11 13 -15 3 -21 -12 -8 -25 1 -75 53 -16 16 -33 16 -33 -1 0 -7
145 -121 153 -121 2 0 3 9 3 20 0 15 -5 19 -20 14 -19 -6 -19 -6 -2 12 17 16
17 19 2 29 -20 15 -21 25 -2 25 18 0 29 -25 30 -71 1 -36 19 -69 38 -69 6 0 3
12 -7 26 -9 14 -14 28 -11 31 3 3 11 -6 17 -20 7 -15 16 -24 21 -21 4 3 6 9 3
14 -3 5 -1 11 5 15 6 4 8 11 5 16 -7 11 5 12 23 1 9 -7 8 -13 -8 -27 -14 -13
-17 -21 -9 -31 7 -9 6 -14 -2 -20 -7 -4 -9 -3 -5 4 3 6 2 13 -4 17 -5 3 -10 0
-10 -7 0 -16 76 -79 92 -77 30 4 48 -2 48 -15 0 -9 9 -13 23 -12 17 2 23 -3
25 -18 1 -15 -1 -17 -7 -7 -6 9 -11 10 -15 2 -10 -15 3 -33 16 -25 6 4 8 3 5
-3 -3 -5 7 -20 23 -31 33 -25 48 -29 31 -8 -9 10 -8 16 3 25 12 10 14 8 9 -11
-5 -23 -5 -23 11 -3 10 11 15 15 12 8 -4 -6 0 -14 6 -16 8 -4 7 -6 -4 -6 -31
-2 -30 -22 3 -52 19 -17 56 -50 82 -75 l48 -45 40 31 c21 18 37 36 34 41 -4 5
0 6 8 3 8 -3 18 0 23 7 5 8 3 10 -7 4 -12 -8 -12 -6 0 8 7 9 11 26 8 37 -3 11
-1 20 4 20 5 0 9 5 9 11 0 5 -4 7 -10 4 -5 -3 -10 -1 -10 5 0 7 7 9 16 6 9 -3
21 -6 27 -6 7 0 4 -5 -6 -11 -11 -7 -16 -20 -15 -39 1 -16 6 -26 11 -23 4 3 6
11 3 18 -5 13 12 35 27 35 5 0 3 -7 -4 -17 -13 -15 -12 -15 6 -6 11 6 29 21
40 34 11 12 14 19 6 14 -9 -5 -12 -4 -7 3 4 6 13 9 20 6 14 -5 104 51 137 84
9 10 26 24 39 32 12 8 32 23 43 34 12 10 32 25 45 33 22 15 33 51 10 37 -7 -4
-8 -3 -4 4 4 7 1 12 -9 12 -9 0 -13 -4 -10 -10 3 -5 -1 -10 -9 -10 -9 0 -16
-5 -16 -11 0 -6 7 -9 14 -6 10 4 13 1 10 -8 -5 -11 -10 -12 -25 -2 -20 13 -25
27 -9 27 6 0 10 7 10 15 0 8 9 15 19 15 11 0 27 3 35 6 13 5 15 2 9 -12 -6
-17 -5 -17 10 -5 10 8 20 11 24 7 3 -3 2 -6 -4 -6 -6 0 -14 -7 -17 -16 -3 -8
14 1 39 22 25 20 45 40 45 45 0 5 4 8 9 6 5 -1 17 7 26 18 9 11 14 14 10 7 -4
-7 43 24 104 69 61 44 108 85 105 90 -3 5 1 7 8 4 7 -2 24 5 37 16 l25 20 -80
75 c-121 115 -151 137 -158 118 -8 -21 3 -37 21 -30 8 3 21 0 28 -8 12 -12 12
-16 0 -26 -12 -10 -16 -9 -21 4 -3 9 -9 14 -13 13 -3 -2 -16 7 -28 20 -12 13
-19 23 -15 23 4 0 1 4 -7 9 -8 5 -10 14 -6 21 6 10 11 9 22 -5 7 -11 13 -14
13 -8 0 5 -9 18 -19 27 -16 14 -23 15 -41 6 -13 -7 -20 -8 -16 -2 3 6 0 13 -6
16 -7 3 -2 3 12 -1 22 -5 23 -4 11 11 -8 9 -27 26 -42 37 -23 16 -33 18 -49 9
-11 -6 -20 -17 -20 -25 0 -8 -9 -19 -20 -25 -18 -10 -20 -8 -20 19 0 17 6 31
16 35 8 3 13 10 9 15 -3 5 0 13 6 17 7 4 9 3 6 -3 -7 -11 21 -28 30 -19 5 5
-48 46 -59 46 -5 0 -17 9 -28 20 -12 12 -26 18 -32 14 -6 -4 -8 -3 -4 4 3 6
-7 20 -24 32 -16 12 -30 19 -30 16 0 -3 -9 3 -20 14 -11 11 -26 20 -33 20 -8
0 -22 9 -31 19 -10 11 -32 27 -49 35 -18 9 -56 32 -84 51 -29 19 -53 31 -53
27 0 -4 -9 -8 -21 -8 -18 0 -18 2 -4 12 13 10 10 14 -22 31 -21 11 -56 30 -78
44 -22 13 -43 23 -47 21 -5 -1 -8 2 -8 8 0 14 -72 48 -89 42 -8 -3 -11 0 -7 6
4 7 -42 36 -122 76 -100 50 -132 62 -141 53 -9 -9 -11 -8 -5 6 3 10 3 17 -2
16 -5 -1 -31 7 -57 19 -27 12 -54 19 -59 15 -6 -3 -8 -1 -5 4 4 6 -6 16 -23
22 -24 8 -29 7 -25 -2 4 -7 0 -5 -7 4 -14 17 -88 52 -95 46 -2 -2 3 -10 12
-17 8 -7 15 -9 15 -5 0 4 12 -5 28 -21 28 -29 61 -38 74 -19 5 7 8 7 8 -1 0
-5 -6 -18 -13 -28 -12 -16 -16 -17 -35 -5 -12 8 -22 17 -22 21 0 5 -7 8 -15 8
-22 0 -18 -26 7 -50 27 -25 44 -25 58 0 6 10 17 17 24 14 8 -3 17 -1 21 5 3 6
11 11 16 11 6 0 -2 -11 -17 -25 -15 -14 -33 -25 -39 -25 -7 0 -16 -8 -20 -17
-6 -17 -7 -17 -19 0 -7 9 -16 17 -20 17 -11 0 -45 43 -46 57 0 6 6 14 13 17
22 9 -34 48 -65 44 -15 -3 -25 -1 -22 4 3 4 -4 8 -16 8 -12 0 -18 5 -15 10 3
6 0 10 -8 10 -10 0 -13 7 -10 20 3 11 2 20 -2 20 -13 0 -36 -30 -30 -40 3 -6
-1 -7 -10 -4 -10 4 -24 -2 -36 -15 -20 -21 -59 -29 -59 -12 0 12 15 22 64 42
45 18 56 34 29 42 -10 2 -27 8 -38 12 -18 6 -19 6 -3 -8 16 -12 15 -14 -13
-14 -16 0 -26 3 -22 6 4 3 9 13 11 21 3 12 1 13 -9 3 -7 -7 -22 -13 -33 -12
-18 0 -18 2 4 10 l25 10 -33 14 c-18 8 -40 11 -49 8 -10 -4 -14 -2 -10 4 6 9
-91 49 -138 57 -5 1 -14 4 -20 7 -13 8 -135 48 -160 52 -11 2 -31 9 -45 14
-30 13 -88 26 -93 21 -2 -2 -10 2 -18 8 -8 6 -27 14 -44 18 -16 4 -38 9 -49
13 -13 4 -17 1 -12 -8 4 -8 1 -6 -7 4 -18 22 -23 21 -55 -3 -14 -12 -28 -16
-31 -11 -4 5 -19 8 -33 7 -15 -2 -25 0 -23 5 3 4 -22 7 -55 7 -33 -1 -63 2
-67 5 -3 4 7 7 23 7 28 1 28 1 10 15 -11 8 -15 15 -9 15 7 0 19 -7 28 -16 12
-12 28 -15 62 -11 25 3 40 1 33 -3 -16 -10 -3 -16 34 -15 55 0 38 22 -26 35
-45 8 -63 9 -66 1 -2 -6 -8 -11 -13 -11 -4 0 -6 6 -3 13 2 7 -3 13 -13 14 -10
1 -56 10 -103 21 -47 11 -92 20 -100 21 -8 0 -71 12 -140 25 -192 38 -481 78
-740 102 -202 19 -1013 28 -1220 14z m220 -10 c0 -5 -4 -10 -10 -10 -5 0 -10
5 -10 10 0 6 5 10 10 10 6 0 10 -4 10 -10z m153 3 c-13 -2 -33 -2 -45 0 -13 2
-3 4 22 4 25 0 35 -2 23 -4z m267 -3 c-13 -9 -13 -10 0 -10 9 -1 5 -6 -9 -14
-14 -8 -32 -12 -40 -11 -9 2 -22 4 -28 4 -7 1 -13 9 -13 19 0 16 9 19 52 20
36 1 48 -2 38 -8z m267 4 c-3 -3 -12 -4 -19 -1 -8 3 -5 6 6 6 11 1 17 -2 13
-5z m-1001 -29 c-8 -8 -21 -15 -28 -14 -10 0 -10 2 0 6 6 2 10 9 6 14 -3 5 4
9 16 9 19 0 20 -2 6 -15z m141 8 c-20 -2 -52 -2 -70 0 -17 2 0 4 38 4 39 0 53
-2 32 -4z m933 -3 c0 -13 -20 -13 -40 0 -12 8 -9 10 13 10 15 0 27 -4 27 -10z
m153 3 c-13 -2 -35 -2 -50 0 -16 2 -5 4 22 4 28 0 40 -2 28 -4z m70 0 c-7 -2
-21 -2 -30 0 -10 3 -4 5 12 5 17 0 24 -2 18 -5z m-918 -13 c-3 -5 -15 -10 -26
-10 -10 0 -19 5 -19 10 0 6 12 10 26 10 14 0 23 -4 19 -10z m497 -2 c-8 -8
-20 -8 -44 -1 l-33 11 45 1 c33 1 41 -2 32 -11z m-999 -5 c-7 -2 -21 -2 -30 0
-10 3 -4 5 12 5 17 0 24 -2 18 -5z m51 1 c13 -5 14 -9 5 -20 -6 -8 -17 -14
-23 -14 -6 0 -5 4 3 9 10 6 -6 8 -45 7 -32 -2 -41 -1 -19 1 22 2 44 8 50 14
11 11 9 11 29 3z m1453 0 c-3 -3 -12 -4 -19 -1 -8 3 -5 6 6 6 11 1 17 -2 13
-5z m113 -4 c13 -9 13 -10 0 -9 -8 0 -24 4 -35 9 l-20 9 20 0 c11 0 27 -4 35
-9z m-530 -10 c0 -5 -11 -10 -25 -10 -14 0 -25 5 -25 10 0 6 11 10 25 10 14 0
25 -4 25 -10z m330 0 c-8 -5 -37 -10 -65 -10 -36 0 -46 3 -35 10 8 5 38 10 65
10 36 0 46 -3 35 -10z m-1645 -8 c-26 -4 -28 -5 -10 -12 15 -7 10 -9 -20 -9
-40 0 -40 0 -15 14 14 8 36 14 50 13 21 -1 21 -2 -5 -6z m128 1 c-7 -2 -19 -2
-25 0 -7 3 -2 5 12 5 14 0 19 -2 13 -5z m1557 -8 c-46 -18 -59 -18 -36 0 11 8
31 15 45 14 24 0 23 -2 -9 -14z m67 9 c-3 -3 -12 -4 -19 -1 -8 3 -5 6 6 6 11
1 17 -2 13 -5z m60 0 c-3 -3 -12 -4 -19 -1 -8 3 -5 6 6 6 11 1 17 -2 13 -5z
m186 -1 c-7 -2 -19 -2 -25 0 -7 3 -2 5 12 5 14 0 19 -2 13 -5z m-2198 -13 c-3
-5 -12 -10 -18 -10 -7 0 -6 4 3 10 19 12 23 12 15 0z m314 -6 c10 -9 -56 -3
-69 7 -11 7 -4 8 25 3 22 -4 42 -8 44 -10z m561 6 c0 -10 -7 -12 -35 -12 -36
0 -46 3 -40 12 3 6 22 10 41 10 19 0 34 -4 34 -10z m785 -1 c11 -1 0 -5 -25
-8 -53 -7 -82 -3 -74 11 4 6 23 8 43 4 20 -3 45 -7 56 -7z m550 -4 c6 -2 -21
-3 -60 -4 -38 0 -79 4 -90 8 -19 8 128 3 150 -4z m78 8 c-7 -2 -19 -2 -25 0
-7 3 -2 5 12 5 14 0 19 -2 13 -5z m-1936 -9 c-3 -3 -12 -4 -19 -1 -8 3 -5 6 6
6 11 1 17 -2 13 -5z m346 -1 c-13 -2 -33 -2 -45 0 -13 2 -3 4 22 4 25 0 35 -2
23 -4z m690 0 c-7 -2 -19 -2 -25 0 -7 3 -2 5 12 5 14 0 19 -2 13 -5z m615 0
c-10 -2 -26 -2 -35 0 -10 3 -2 5 17 5 19 0 27 -2 18 -5z m-2279 -44 c33 -1 34
-2 11 -9 l-25 -8 25 -2 c14 -1 18 -4 10 -6 -8 -3 -37 2 -64 10 -33 10 -56 12
-73 5 -13 -5 -30 -9 -36 -8 -7 0 4 7 23 14 19 8 48 12 64 10 16 -3 45 -5 65
-6z m2829 4 c-10 -2 -28 -2 -40 0 -13 2 -5 4 17 4 22 1 32 -1 23 -4z m72 -3
c13 -8 13 -10 -2 -10 -9 0 -20 5 -23 10 -8 13 5 13 25 0z m115 -30 c19 -10 31
-20 28 -24 -12 -12 -77 -6 -94 9 -15 14 -18 14 -32 0 -20 -19 -41 -19 -61 1
-9 8 -21 12 -27 8 -8 -5 -9 -3 -4 6 6 9 -2 11 -36 6 -33 -5 -40 -4 -27 4 18
11 99 10 92 -1 -2 -4 5 -9 16 -12 11 -3 18 -1 14 4 -3 5 10 9 28 9 25 0 29 3
18 10 -25 17 47 -1 85 -20z m-3195 16 c0 -3 -4 -8 -10 -11 -5 -3 -10 -1 -10 4
0 6 5 11 10 11 6 0 10 -2 10 -4z m-60 -16 c-8 -5 -24 -9 -35 -9 l-20 0 20 9
c11 5 27 9 35 9 13 1 13 0 0 -9z m163 3 c-7 -2 -19 -2 -25 0 -7 3 -2 5 12 5
14 0 19 -2 13 -5z m42 -11 c-3 -3 -11 0 -18 7 -9 10 -8 11 6 5 10 -3 15 -9 12
-12z m-328 2 c-3 -3 -12 -4 -19 -1 -8 3 -5 6 6 6 11 1 17 -2 13 -5z m56 -14
c-3 -11 -7 -20 -8 -20 -1 0 -5 9 -8 20 -3 12 0 20 8 20 8 0 11 -8 8 -20z
m3413 -12 c4 -6 2 -14 -5 -16 -8 -3 -22 -13 -32 -23 -10 -10 -21 -14 -24 -9
-4 6 1 13 9 16 9 3 16 15 16 25 0 21 25 26 36 7z m-3246 -8 c0 -5 -14 -10 -31
-10 -17 0 -28 4 -24 10 3 6 17 10 31 10 13 0 24 -4 24 -10z m-469 -7 c-32 -3
-44 -9 -48 -24 -3 -10 -10 -19 -15 -19 -6 0 -7 7 -4 16 5 12 1 14 -17 10 -12
-3 -16 -3 -9 0 6 3 10 9 8 13 -2 3 26 7 62 7 41 1 50 0 23 -3z m639 1 c0 -3
-7 -12 -15 -20 -8 -9 -15 -11 -15 -6 0 12 -124 3 -128 -9 -5 -12 -42 -11 -42
1 0 6 8 10 18 10 10 0 22 4 28 9 5 6 34 12 64 14 30 2 63 4 73 5 9 1 17 -1 17
-4z m-757 -11 c-7 -2 -19 -2 -25 0 -7 3 -2 5 12 5 14 0 19 -2 13 -5z m317 -3
c0 -6 -16 -10 -35 -8 -19 1 -35 6 -35 10 0 4 16 8 35 8 19 0 35 -5 35 -10z
m160 0 c0 -5 -7 -10 -15 -10 -8 0 -15 5 -15 10 0 6 7 10 15 10 8 0 15 -4 15
-10z m-640 -4 c0 -2 -8 -10 -17 -17 -16 -13 -17 -12 -4 4 13 16 21 21 21 13z
m65 -11 c-22 -8 -47 -14 -55 -14 -21 1 51 27 75 28 11 0 2 -6 -20 -14z m250 1
c32 -9 41 -14 25 -15 -14 0 -43 6 -65 14 -51 18 -25 19 40 1z m-163 -8 c-14
-7 -26 -8 -32 -2 -6 6 2 10 23 11 30 2 31 1 9 -9z m443 2 c4 -6 -6 -10 -22 -9
-25 0 -26 1 -8 9 11 5 21 9 22 9 1 1 5 -3 8 -9z m3165 0 c0 -5 -23 -10 -51
-10 -31 0 -48 4 -44 10 3 6 26 10 51 10 24 0 44 -4 44 -10z m85 0 c4 -6 -5
-10 -19 -10 -14 0 -26 5 -26 10 0 6 9 10 19 10 11 0 23 -4 26 -10z m-3938 -6
c-3 -3 -12 -4 -19 -1 -8 3 -5 6 6 6 11 1 17 -2 13 -5z m4150 0 c-3 -3 -12 -4
-19 -1 -8 3 -5 6 6 6 11 1 17 -2 13 -5z m333 -18 c0 -3 -4 -8 -10 -11 -5 -3
-10 -1 -10 4 0 6 5 11 10 11 6 0 10 -2 10 -4z m24 -21 c-4 -10 0 -15 11 -15
10 0 14 5 9 13 -6 10 -4 10 7 0 7 -7 22 -13 33 -13 10 0 16 -3 13 -7 -4 -3
-23 -6 -42 -5 -19 1 -35 -2 -35 -6 0 -4 -10 -8 -23 -8 -16 -1 -23 4 -23 17 0
12 4 15 10 9 13 -13 39 -13 31 0 -3 6 -3 15 0 20 9 15 15 12 9 -5z m-4674 -9
c0 -17 -34 -23 -80 -15 l-35 6 38 2 c23 0 36 5 32 11 -4 6 5 10 19 10 16 0 26
-6 26 -14z m-285 -16 c-11 -5 -27 -9 -35 -9 -9 0 -8 4 5 9 11 5 27 9 35 9 9 0
8 -4 -5 -9z m160 -5 l40 -13 -48 -1 c-28 -1 -46 3 -42 8 3 5 -9 12 -27 14
l-33 4 35 1 c19 0 53 -5 75 -13z m4929 -7 c-4 -6 -10 -5 -15 3 -7 12 -9 12 -9
0 0 -8 -3 -12 -6 -8 -10 10 6 26 21 21 8 -4 12 -11 9 -16z m-5054 2 c-8 -5
-19 -10 -25 -10 -5 0 -3 5 5 10 8 5 20 10 25 10 6 0 3 -5 -5 -10z m310 0 c0
-5 -6 -10 -14 -10 -8 0 -18 5 -21 10 -3 6 3 10 14 10 12 0 21 -4 21 -10z
m-438 -7 c-6 -2 -10 -9 -6 -14 3 -5 -4 -9 -15 -9 -26 0 -28 17 -3 23 24 6 40
7 24 0z m185 1 c-3 -3 -12 -4 -19 -1 -8 3 -5 6 6 6 11 1 17 -2 13 -5z m5099
-33 c-31 -21 -46 -19 -46 5 0 10 11 14 38 14 l37 0 -29 -19z m-5226 -1 c0 -13
-20 -13 -40 0 -12 8 -9 10 13 10 15 0 27 -4 27 -10z m294 -4 c27 -13 27 -14 4
-18 -28 -5 -85 8 -93 22 -9 15 59 12 89 -4z m-587 -2 c-3 -3 -12 -4 -19 -1 -8
3 -5 6 6 6 11 1 17 -2 13 -5z m113 -1 c0 -10 -32 -43 -42 -43 -17 0 -7 18 13
23 12 3 18 10 14 16 -3 6 -1 11 4 11 6 0 11 -3 11 -7z m5222 -18 c-5 -28 -22
-24 -22 6 0 10 6 19 14 19 9 0 12 -8 8 -25z m104 10 c18 -14 17 -14 -13 -15
-23 0 -33 5 -33 15 0 19 21 19 46 0z m-5416 -5 c-8 -5 -28 -10 -45 -11 -26 0
-27 -2 -10 -9 16 -7 17 -9 3 -9 -9 -1 -20 4 -23 9 -3 6 -16 11 -28 12 -12 1 5
4 38 8 33 4 65 7 70 8 6 1 3 -3 -5 -8z m170 6 c0 -9 -30 -14 -35 -6 -4 6 3 10
14 10 12 0 21 -2 21 -4z m160 -6 c0 -5 7 -10 15 -10 9 0 12 -6 8 -16 -5 -15
-7 -15 -15 0 -5 9 -16 16 -23 16 -8 0 -15 5 -15 10 0 6 7 10 15 10 8 0 15 -4
15 -10z m5230 6 c0 -2 -7 -7 -16 -10 -8 -3 -12 -2 -9 4 6 10 25 14 25 6z m26
-11 c-6 -17 9 -21 19 -5 3 6 12 10 18 10 8 0 7 -3 -2 -9 -11 -7 -11 -9 0 -14
8 -3 1 -4 -16 -2 -16 1 -36 3 -44 4 -11 1 -10 5 5 16 24 18 27 18 20 0z
m-5749 -9 c11 0 19 -5 16 -9 -6 -9 -34 -5 -67 8 -14 6 -17 5 -12 -3 5 -8 2
-10 -9 -5 -24 9 4 25 30 17 11 -3 30 -7 42 -8z m654 -9 c16 -12 33 -107 19
-107 -5 0 -17 -3 -27 -6 -15 -5 -16 -4 -3 5 13 10 13 12 0 20 -12 9 -12 11 3
17 27 10 20 24 -13 24 -16 0 -30 5 -30 10 0 6 11 10 25 10 14 0 25 5 25 10 0
6 -9 10 -21 10 -11 0 -17 5 -14 10 8 13 16 12 36 -3z m-584 -3 c-3 -3 -12 -4
-19 -1 -8 3 -5 6 6 6 11 1 17 -2 13 -5z m2702 -19 c31 -5 42 -4 37 4 -5 7 -1
9 9 4 12 -4 13 -8 5 -13 -8 -5 -7 -9 5 -14 26 -9 42 -7 25 4 -12 8 -11 10 8
10 12 0 22 5 22 11 0 5 5 7 10 4 15 -9 12 -25 -5 -25 -8 0 -15 -4 -15 -9 0 -5
-21 -9 -47 -8 -29 0 -40 3 -28 7 15 5 11 8 -17 13 -21 3 -53 4 -72 2 -24 -2
-34 1 -29 8 4 7 -2 8 -18 3 -13 -4 -33 -9 -44 -10 -17 -3 -17 -3 -1 1 16 4 17
7 5 15 -11 8 -11 9 2 5 9 -3 31 -2 50 2 19 4 39 5 44 1 6 -4 30 -11 54 -15z
m3088 19 c-3 -3 -12 -4 -19 -1 -8 3 -5 6 6 6 11 1 17 -2 13 -5z m-4680 -10
c-3 -3 -12 -4 -19 -1 -8 3 -5 6 6 6 11 1 17 -2 13 -5z m46 -16 c7 5 21 12 32
16 16 5 15 2 -5 -14 -14 -11 -29 -20 -33 -20 -5 0 -5 -5 -1 -12 4 -7 3 -8 -5
-4 -6 4 -9 12 -6 17 4 5 -6 10 -22 10 -23 2 -24 2 -5 6 12 2 23 10 23 16 1 7
3 4 6 -6 3 -12 9 -15 16 -9z m242 4 c-3 -3 -11 0 -18 7 -9 10 -8 11 6 5 10 -3
15 -9 12 -12z m42 12 c-3 -3 -12 -4 -19 -1 -8 3 -5 6 6 6 11 1 17 -2 13 -5z
m386 -1 c-7 -2 -21 -2 -30 0 -10 3 -4 5 12 5 17 0 24 -2 18 -5z m354 1 c-3 -3
-12 -4 -19 -1 -8 3 -5 6 6 6 11 1 17 -2 13 -5z m170 -5 c-12 -7 -27 -7 -45 0
-25 9 -24 9 18 10 36 0 41 -2 27 -10z m158 1 c3 -6 -1 -7 -9 -4 -18 7 -21 14
-7 14 6 0 13 -4 16 -10z m749 -2 c-3 -4 -12 -8 -20 -8 -8 0 -13 4 -10 8 3 5
12 9 20 9 8 0 13 -4 10 -9z m-2187 -15 c1 -17 -7 -19 -71 -14 -20 2 10 20 39
24 17 2 30 5 30 6 1 0 1 -7 2 -16z m253 6 c0 -6 -9 -8 -21 -4 -13 4 -25 2 -29
-5 -4 -6 -22 -10 -41 -8 -34 4 -34 4 -9 15 32 15 100 16 100 2z m197 5 c-3 -3
-12 -4 -19 -1 -8 3 -5 6 6 6 11 1 17 -2 13 -5z m70 0 c-3 -3 -12 -4 -19 -1 -8
3 -5 6 6 6 11 1 17 -2 13 -5z m1359 -4 c27 0 34 -4 34 -19 0 -11 6 -22 13 -25
6 -3 1 -3 -12 0 -13 3 -29 7 -35 8 -6 1 -16 5 -22 8 -5 4 -35 5 -65 4 -30 -2
-41 -2 -25 1 23 4 26 7 15 15 -11 8 -11 9 3 4 10 -3 20 -1 24 5 3 6 13 8 21 5
8 -3 30 -6 49 -6z m2882 -10 c13 -21 42 -28 42 -10 0 6 7 10 17 10 13 0 12 -3
-5 -19 -12 -10 -18 -22 -14 -27 10 -12 -27 17 -56 44 -16 14 -20 22 -11 22 8
0 20 -9 27 -20z m-6215 3 c-7 -2 -19 -2 -25 0 -7 3 -2 5 12 5 14 0 19 -2 13
-5z m824 -15 c-3 -8 -6 -5 -6 6 -1 11 2 17 5 13 3 -3 4 -12 1 -19z m933 12 c0
-5 -7 -7 -15 -4 -8 4 -15 8 -15 10 0 2 7 4 15 4 8 0 15 -4 15 -10z m77 4 c-3
-3 -12 -4 -19 -1 -8 3 -5 6 6 6 11 1 17 -2 13 -5z m1690 0 c-3 -3 -12 -4 -19
-1 -8 3 -5 6 6 6 11 1 17 -2 13 -5z m-3542 -13 c26 -2 27 -3 10 -10 -11 -5
-36 -12 -55 -16 -33 -6 -34 -6 -15 8 19 14 18 15 -9 10 -19 -4 -27 -2 -22 5 3
6 19 9 34 8 15 -2 41 -5 57 -5z m1700 -1 c3 -5 1 -10 -4 -10 -6 0 -11 5 -11
10 0 6 2 10 4 10 3 0 8 -4 11 -10z m-590 -10 c-3 -5 -13 -10 -21 -10 -8 0 -14
5 -14 10 0 6 9 10 21 10 11 0 17 -4 14 -10z m2375 0 c0 -5 -14 -10 -31 -10
-17 0 -28 4 -24 10 3 6 17 10 31 10 13 0 24 -4 24 -10z m-3638 -10 c-48 -11
-47 -16 1 -15 49 2 69 -3 61 -16 -8 -13 -71 -11 -102 4 -15 7 -46 13 -70 12
-29 -1 -38 2 -27 7 8 5 23 7 33 4 9 -3 33 -1 52 3 19 5 46 9 60 9 20 0 18 -2
-8 -8z m1354 -9 c5 -5 20 -11 34 -14 14 -2 6 -3 -17 -1 -24 2 -43 -1 -43 -6 0
-5 -7 -7 -15 -4 -8 4 -15 12 -15 20 0 16 41 19 56 5z m2567 -4 c3 -9 -7 -13
-34 -13 -37 -1 -47 5 -32 19 11 12 61 7 66 -6z m-218 -7 c3 -5 -1 -10 -10 -10
-9 0 -13 5 -10 10 3 6 8 10 10 10 2 0 7 -4 10 -10z m-2431 -15 c19 -14 18 -15
-10 -15 -21 0 -31 5 -31 15 0 19 16 19 41 0z m2599 2 c20 0 24 -2 15 -8 -22
-14 -65 -10 -79 8 -13 15 -12 16 11 8 14 -4 38 -8 53 -8z m-4161 -4 c-46 -6
-29 -23 24 -23 24 0 44 -4 44 -10 0 -5 -20 -10 -45 -10 -25 0 -45 5 -45 10 0
6 -9 10 -20 10 -20 0 -26 11 -13 23 3 4 25 6 47 5 37 -1 38 -2 8 -5z m1336 -6
c-7 -8 -27 -17 -43 -21 -22 -5 -26 -4 -15 4 13 9 13 10 0 11 -8 1 1 5 20 9 52
11 52 11 38 -3z m55 6 c-7 -2 -19 -2 -25 0 -7 3 -2 5 12 5 14 0 19 -2 13 -5z
m2887 -9 c0 -2 -14 -4 -31 -4 -16 0 -28 4 -25 9 5 8 56 3 56 -5z m25 -13 c-3
-6 -11 -11 -17 -11 -6 0 -6 6 2 15 14 17 26 13 15 -4z m2425 9 c0 -5 -4 -10
-10 -10 -5 0 -10 5 -10 10 0 6 5 10 10 10 6 0 10 -4 10 -10z m-6915 -10 c-4
-6 -10 -8 -15 -5 -5 3 -11 1 -15 -5 -3 -5 -16 -10 -28 -10 -39 0 5 25 51 29 7
0 10 -4 7 -9z m58 3 c-7 -2 -21 -2 -30 0 -10 3 -4 5 12 5 17 0 24 -2 18 -5z
m574 -10 c-12 -13 -31 -17 -64 -16 -66 2 -74 19 -11 22 29 1 55 4 57 7 2 2 11
4 20 4 13 0 13 -3 -2 -17z m930 11 c-3 -3 -12 -4 -19 -1 -8 3 -5 6 6 6 11 1
17 -2 13 -5z m-1658 -8 c-2 -3 -16 -7 -29 -10 -14 -3 -36 -8 -50 -12 -24 -6
-24 -6 -5 9 17 14 97 25 84 13z m4541 -6 c8 -5 11 -10 5 -10 -5 0 -17 5 -25
10 -8 5 -10 10 -5 10 6 0 17 -5 25 -10z m-4657 -13 c3 -7 -3 -13 -14 -14 -15
-1 -16 1 -6 12 15 18 14 18 20 2z m1734 7 c-3 -3 -12 -4 -19 -1 -8 3 -5 6 6 6
11 1 17 -2 13 -5z m-1807 -8 c0 -2 -7 -7 -16 -10 -8 -3 -12 -2 -9 4 6 10 25
14 25 6z m197 -2 c-3 -3 -12 -4 -19 -1 -8 3 -5 6 6 6 11 1 17 -2 13 -5z m118
-12 c-3 -3 -11 0 -18 7 -9 10 -8 11 6 5 10 -3 15 -9 12 -12z m455 8 c0 -5 -7
-10 -15 -10 -8 0 -15 -4 -15 -10 0 -18 -86 -12 -101 7 -9 11 -10 14 -2 9 7 -4
21 -2 30 3 23 13 103 14 103 1z m-613 -6 c-3 -3 -12 -4 -19 -1 -8 3 -5 6 6 6
11 1 17 -2 13 -5z m1317 -7 c3 3 6 1 6 -5 0 -16 -23 -28 -28 -14 -2 6 -10 8
-18 5 -10 -4 -12 0 -8 11 4 11 11 13 24 6 9 -5 20 -6 24 -3z m-374 -6 c0 -5
-9 -7 -20 -4 -11 3 -20 7 -20 9 0 2 9 4 20 4 11 0 20 -4 20 -9z m160 -1 c0 -5
8 -11 18 -11 15 -1 14 -2 -2 -6 -15 -4 -16 -7 -5 -14 10 -6 8 -9 -10 -9 -18 0
-21 3 -12 13 8 10 7 17 -1 25 -9 9 -9 12 0 12 7 0 12 -4 12 -10z m138 0 c8 0
12 -3 9 -6 -9 -9 -76 -11 -71 -2 2 3 -2 9 -8 12 -7 4 2 4 21 1 18 -3 40 -5 49
-5z m199 4 c-3 -3 -12 -4 -19 -1 -8 3 -5 6 6 6 11 1 17 -2 13 -5z m3303 -2 c0
-5 -13 -7 -30 -4 -16 2 -30 6 -30 8 0 2 14 4 30 4 17 0 30 -4 30 -8z m44 -8
c5 -14 4 -15 -9 -4 -17 14 -19 20 -6 20 5 0 12 -7 15 -16z m220 10 c19 -7 21
-34 3 -34 -14 0 -37 20 -37 32 0 10 13 10 34 2z m226 -4 c0 -5 -13 -10 -29
-10 -17 0 -33 5 -36 10 -4 6 8 10 29 10 20 0 36 -4 36 -10z m-4183 -6 c-3 -3
-12 -4 -19 -1 -8 3 -5 6 6 6 11 1 17 -2 13 -5z m3893 -4 c0 -5 -12 -10 -26
-10 -14 0 -33 -4 -43 -9 -13 -7 -18 -6 -18 4 0 8 3 12 6 10 5 -3 63 8 79 14 1
1 2 -3 2 -9z m-4280 -10 c24 -8 24 -8 -7 -9 -17 -1 -35 4 -38 9 -7 11 9 11 45
0z m4460 0 c0 -5 -4 -10 -10 -10 -5 0 -10 5 -10 10 0 6 5 10 10 10 6 0 10 -4
10 -10z m-6062 -18 c2 -7 -6 -12 -21 -12 -14 0 -32 -3 -41 -6 -9 -3 -16 -1
-16 5 0 6 14 11 31 11 20 0 28 4 23 11 -4 7 -1 10 6 7 8 -2 16 -10 18 -16z
m170 1 c-10 -2 -28 -2 -40 0 -13 2 -5 4 17 4 22 1 32 -1 23 -4z m32 -14 c0
-11 -4 -18 -10 -14 -5 3 -7 12 -3 20 7 21 13 19 13 -6z m1640 11 c0 -5 -9 -10
-21 -10 -11 0 -17 5 -14 10 3 6 13 10 21 10 8 0 14 -4 14 -10z m131 3 c-11 -5
-11 -7 0 -14 10 -6 5 -9 -16 -9 -29 1 -29 1 -11 15 11 8 25 15 30 14 6 0 5 -3
-3 -6z m3892 0 c-7 -2 -19 -2 -25 0 -7 3 -2 5 12 5 14 0 19 -2 13 -5z m-5823
-11 c0 -4 -6 -14 -12 -22 -7 -7 -2 -6 12 3 27 18 80 23 80 7 0 -5 -6 -7 -13
-4 -8 3 -27 0 -42 -6 -23 -9 -26 -13 -15 -20 10 -7 -3 -10 -42 -10 -48 0 -58
-3 -58 -17 0 -14 -3 -14 -12 -5 -10 10 -10 14 0 21 7 4 10 14 7 23 -4 9 0 15
9 15 8 0 13 -4 11 -8 -3 -3 6 -9 20 -11 26 -5 35 6 13 15 -8 3 -6 6 5 6 9 1
17 6 17 11 0 6 5 10 10 10 6 0 10 -4 10 -8z m233 1 c-7 -2 -21 -2 -30 0 -10 3
-4 5 12 5 17 0 24 -2 18 -5z m1485 -3 c18 0 20 -3 10 -14 -7 -7 -20 -11 -29
-9 -9 3 -20 0 -23 -6 -4 -6 -17 -11 -29 -10 -20 0 -21 1 -3 8 18 7 18 8 3 14
-31 12 -19 30 16 23 17 -4 42 -7 55 -6z m-197 -12 c1 -7 1 -18 0 -25 -1 -6 6
-13 16 -15 15 -3 14 -5 -5 -10 -12 -3 -20 -2 -16 3 3 5 -7 9 -23 9 -22 0 -25
2 -13 10 13 8 12 10 -2 10 -10 0 -18 4 -18 9 0 20 59 28 61 9z m4372 5 c-7 -2
-21 -2 -30 0 -10 3 -4 5 12 5 17 0 24 -2 18 -5z m107 -8 c0 -9 -6 -12 -15 -9
-8 4 -15 10 -15 15 0 5 7 9 15 9 8 0 15 -7 15 -15z m-5883 -1 c-3 -3 -12 -4
-19 -1 -8 3 -5 6 6 6 11 1 17 -2 13 -5z m120 0 c-3 -3 -12 -4 -19 -1 -8 3 -5
6 6 6 11 1 17 -2 13 -5z m1183 -13 l-25 -8 24 -4 c34 -6 39 -29 6 -29 -15 0
-24 4 -20 10 3 6 -1 10 -10 10 -10 0 -13 -5 -9 -12 5 -9 2 -9 -9 1 -9 7 -17
17 -17 22 0 8 31 16 65 17 15 0 14 -2 -5 -7z m4737 -5 c-1 -5 13 -14 31 -19
17 -5 32 -14 32 -18 0 -12 -3 -11 -36 5 -20 11 -33 12 -47 5 -10 -6 -21 -8
-24 -5 -3 3 2 8 11 12 15 6 15 7 -1 19 -16 12 -15 13 9 12 14 -1 26 -6 25 -11z
m40 8 c-3 -3 -12 -4 -19 -1 -8 3 -5 6 6 6 11 1 17 -2 13 -5z m-4630 -10 c-3
-3 -12 -4 -19 -1 -8 3 -5 6 6 6 11 1 17 -2 13 -5z m4673 -4 c0 -5 -5 -10 -11
-10 -5 0 -7 5 -4 10 3 6 8 10 11 10 2 0 4 -4 4 -10z m2194 -11 c-7 -11 -34
-12 -34 -1 0 14 11 21 26 15 8 -3 11 -9 8 -14z m126 -43 c0 -2 -12 -2 -27 0
-15 1 -31 -3 -35 -9 -6 -9 -8 -9 -8 0 0 7 -7 10 -17 6 -11 -4 -14 -3 -9 6 5 7
14 10 20 8 7 -3 19 -1 26 3 12 7 50 -4 50 -14z m-8480 4 c0 -5 -11 -10 -25
-10 -14 0 -25 5 -25 10 0 6 11 10 25 10 14 0 25 -4 25 -10z m8220 1 c0 -12
-28 -22 -34 -12 -3 5 -3 11 1 15 9 9 33 7 33 -3z m100 -1 c0 -5 -12 -10 -27
-10 -22 0 -25 2 -13 10 20 13 40 13 40 0z m-7851 -15 c-10 -9 -139 -13 -145
-4 -3 5 30 9 72 9 43 0 75 -2 73 -5z m291 -5 c-35 -11 -80 -12 -80 -1 0 5 24
9 53 9 39 0 46 -2 27 -8z m130 0 c0 -5 -2 -10 -4 -10 -3 0 -8 5 -11 10 -3 6
-1 10 4 10 6 0 11 -4 11 -10z m145 0 c13 -5 14 -9 5 -9 -8 0 -24 4 -35 9 -13
5 -14 9 -5 9 8 0 24 -4 35 -9z m68 3 c-7 -2 -19 -2 -25 0 -7 3 -2 5 12 5 14 0
19 -2 13 -5z m5227 -12 c24 -11 23 -11 -10 -6 -19 3 -39 10 -44 15 -13 13 19
8 54 -9z m60 9 c18 -12 2 -12 -25 0 -13 6 -15 9 -5 9 8 0 22 -4 30 -9z m140 0
c0 -5 -11 -10 -25 -10 -14 0 -25 5 -25 10 0 6 11 10 25 10 14 0 25 -4 25 -10z
m2078 -30 c6 0 14 -4 17 -10 4 -6 -1 -7 -11 -3 -13 5 -15 3 -9 -7 5 -8 3 -11
-6 -8 -8 3 -13 9 -12 14 0 5 -5 15 -13 22 -13 12 -14 9 -9 -15 5 -22 4 -25 -5
-13 -10 13 -11 13 -7 0 2 -8 10 -14 16 -12 6 1 11 -3 11 -9 0 -6 9 -8 23 -4
12 4 27 8 32 9 6 0 13 6 18 11 4 6 11 3 18 -7 5 -10 18 -18 27 -18 9 0 23 -10
31 -21 10 -18 15 -19 22 -8 5 8 9 10 10 4 0 -5 2 -18 4 -27 5 -26 -29 -17 -63
15 -25 24 -33 26 -97 23 -39 -2 -79 -7 -90 -12 -19 -7 -19 -7 -3 12 10 11 24
37 33 58 15 36 17 37 34 22 10 -9 23 -16 29 -16z m-8101 14 c-3 -3 -12 -4 -19
-1 -8 3 -5 6 6 6 11 1 17 -2 13 -5z m144 -11 c12 -15 12 -16 -4 -10 -10 4 -25
7 -33 7 -8 0 -14 5 -14 10 0 16 36 11 51 -7z m284 7 c4 -6 -7 -10 -27 -10 -25
0 -29 3 -18 10 19 13 37 13 45 0z m75 6 c0 -2 -11 -6 -25 -8 -13 -3 -22 -1
-19 3 5 9 44 13 44 5z m-173 -12 c-3 -3 -12 -4 -19 -1 -8 3 -5 6 6 6 11 1 17
-2 13 -5z m5610 -8 c-2 -6 -12 -13 -23 -15 -10 -2 -22 -7 -25 -12 -3 -5 -14
-2 -25 7 -18 15 -18 15 3 9 17 -5 21 -3 18 7 -4 9 5 13 25 14 18 1 29 -3 27
-10z m-110 -2 c-3 -3 -12 -4 -19 -1 -8 3 -5 6 6 6 11 1 17 -2 13 -5z m2188 -4
c4 -6 -5 -10 -19 -10 -14 0 -26 5 -26 10 0 6 9 10 19 10 11 0 23 -4 26 -10z
m-7937 -17 c2 -9 -8 -13 -32 -13 -37 0 -49 15 -18 23 26 7 45 3 50 -10z m-113
-3 c3 -5 1 -10 -5 -10 -6 0 -8 -5 -4 -12 5 -9 2 -9 -9 1 -11 9 -17 10 -17 2 0
-6 -7 -11 -15 -11 -8 0 -15 -4 -15 -10 0 -5 -4 -10 -10 -10 -5 0 -9 6 -7 12 1
7 -9 14 -23 15 -21 2 -22 2 -5 -6 17 -7 17 -8 -9 -15 -16 -4 -31 -5 -34 -1 -3
3 1 5 9 5 12 0 12 2 0 9 -10 6 -5 11 19 16 18 4 36 3 42 -3 7 -7 16 -4 29 9
21 21 44 25 54 9z m6065 -14 c0 -3 -4 -8 -10 -11 -5 -3 -10 -1 -10 4 0 6 5 11
10 11 6 0 10 -2 10 -4z m25 -5 c-3 -5 3 -12 12 -14 13 -3 10 -5 -7 -6 -20 -1
-22 -3 -10 -11 17 -11 1 -13 -24 -4 -13 5 -12 9 7 25 25 21 31 23 22 10z m71
-36 c2 -22 0 -23 -13 -9 -9 8 -13 18 -9 21 3 3 -2 12 -12 20 -15 12 -14 12 8
3 16 -7 26 -20 26 -35z m2204 -49 c0 -6 -5 -4 -10 4 -9 13 -11 13 -21 0 -9
-12 -10 -12 -5 4 5 13 2 17 -8 13 -10 -4 -13 -1 -10 8 5 12 10 12 30 -2 13 -8
24 -20 24 -27z m-340 24 c0 -5 -5 -10 -11 -10 -5 0 -7 5 -4 10 3 6 8 10 11 10
2 0 4 -4 4 -10z m100 0 c0 -5 -9 -10 -21 -10 -11 0 -17 5 -14 10 3 6 13 10 21
10 8 0 14 -4 14 -10z m65 0 c3 -5 -1 -10 -10 -10 -9 0 -13 5 -10 10 3 6 8 10
10 10 2 0 7 -4 10 -10z m-8755 -20 c0 -5 -8 -10 -17 -10 -15 0 -16 2 -3 10 19
12 20 12 20 0z m34 -6 c4 -10 1 -14 -6 -12 -15 5 -23 28 -10 28 5 0 13 -7 16
-16z m101 3 c-8 -4 -21 -7 -27 -6 -7 1 -20 1 -28 -1 -11 -1 -9 -4 5 -9 17 -7
17 -8 -7 -13 -15 -3 -25 -1 -22 4 3 5 1 15 -5 21 -8 10 2 13 44 13 33 -1 49
-4 40 -9z m75 -3 c0 -2 -7 -4 -15 -4 -8 0 -15 4 -15 10 0 5 7 7 15 4 8 -4 15
-8 15 -10z m43 9 c-7 -2 -19 -2 -25 0 -7 3 -2 5 12 5 14 0 19 -2 13 -5z m6577
-5 c0 -4 -5 -8 -11 -8 -5 0 -7 -6 -3 -12 4 -7 3 -9 -1 -5 -15 13 -14 34 1 34
8 0 14 -4 14 -9z m49 9 c-2 -1 -15 -11 -28 -22 l-24 -20 12 23 c6 12 19 22 28
22 9 0 14 -1 12 -3z m156 -7 c-3 -5 -15 -10 -25 -10 -10 0 -22 5 -25 10 -4 6
7 10 25 10 18 0 29 -4 25 -10z m95 0 c0 -13 -30 -13 -50 0 -11 7 -7 10 18 10
17 0 32 -4 32 -10z m-343 -6 c-3 -3 -12 -4 -19 -1 -8 3 -5 6 6 6 11 1 17 -2
13 -5z m183 -16 c0 -7 12 -23 28 -36 18 -15 21 -22 9 -18 -10 3 -15 2 -12 -3
3 -5 1 -13 -5 -16 -6 -4 -10 -3 -9 2 4 27 -16 52 -47 58 -19 3 -38 4 -43 1 -4
-3 -8 1 -8 9 0 11 12 15 44 15 27 0 43 -4 43 -12z m-7003 -20 c-3 -8 -6 -5 -6
6 -1 11 2 17 5 13 3 -3 4 -12 1 -19z m58 4 c-3 -3 -11 0 -18 7 -9 10 -8 11 6
5 10 -3 15 -9 12 -12z m6845 2 c0 -8 -5 -12 -10 -9 -6 4 -8 11 -5 16 9 14 15
11 15 -7z m2129 7 c18 -11 4 -34 -16 -27 -11 4 -13 2 -10 -9 4 -8 2 -17 -2
-20 -5 -2 -11 4 -14 15 -5 18 3 25 26 21 12 -2 8 17 -5 22 -7 3 -8 6 -3 6 6 0
16 -3 24 -8z m-1891 -21 c31 -29 27 -33 -14 -15 -20 8 -38 15 -40 15 -2 0 -4
5 -4 10 0 17 35 11 58 -10z m1832 -1 c0 -5 -7 -9 -15 -9 -8 0 -15 -7 -15 -15
0 -8 -4 -15 -10 -15 -5 0 -10 7 -10 15 0 8 5 15 11 15 6 0 9 6 6 14 -4 10 0
12 14 9 10 -3 19 -9 19 -14z m-2033 -5 c-3 -3 -12 -4 -19 -1 -8 3 -5 6 6 6 11
1 17 -2 13 -5z m130 -26 c-2 -7 12 -23 32 -35 20 -12 31 -23 24 -23 -6 0 -15
5 -18 11 -4 6 -13 8 -21 5 -8 -3 -17 1 -20 9 -4 8 -10 12 -15 9 -13 -8 -11 5
4 21 15 18 20 19 14 3z m61 3 c10 -6 8 -10 -10 -14 -35 -10 -40 -8 -26 8 15
17 19 17 36 6z m1996 -16 c11 -8 15 -15 9 -15 -7 0 -15 5 -18 10 -7 12 -25 13
-25 3 0 -14 77 -52 86 -43 6 6 15 5 24 -1 13 -9 12 -10 -2 -5 -10 3 -18 1 -18
-4 0 -17 -22 -11 -64 17 -23 15 -43 28 -45 29 -1 2 0 7 4 13 9 15 26 13 49 -4z
m-1975 -39 c-3 -3 -11 5 -18 17 -13 21 -12 21 5 5 10 -10 16 -20 13 -22z
m1901 8 c0 -9 -7 -14 -17 -12 -25 5 -28 28 -4 28 12 0 21 -6 21 -16z m120 -4
c0 -5 -2 -10 -4 -10 -3 0 -8 5 -11 10 -3 6 -1 10 4 10 6 0 11 -4 11 -10z
m-222 -11 c-2 -6 -8 -10 -13 -10 -5 0 -11 4 -13 10 -2 6 4 11 13 11 9 0 15 -5
13 -11z m-1598 -39 c0 -5 -4 -10 -10 -10 -5 0 -10 5 -10 10 0 6 5 10 10 10 6
0 10 -4 10 -10z m-34 -30 c0 -12 -4 -16 -9 -11 -5 5 -6 14 -3 20 10 15 12 14
12 -9z m1972 3 c2 -7 -1 -13 -8 -13 -6 0 -8 5 -4 11 4 7 1 10 -7 7 -8 -3 -12
-12 -11 -19 2 -8 0 -10 -4 -6 -4 4 -9 14 -10 23 -3 19 37 15 44 -3z m65 -43
c5 0 5 6 1 13 -4 6 2 3 15 -7 12 -11 18 -22 13 -25 -5 -3 -8 -14 -6 -23 1 -12
-4 -17 -17 -15 -29 5 -33 14 -10 27 12 6 21 16 21 23 0 7 -3 8 -8 2 -9 -12
-32 -18 -32 -7 0 9 -53 8 -69 -2 -7 -5 -15 -5 -19 -1 -4 3 2 11 12 17 10 6 26
18 35 27 15 16 17 16 36 -6 11 -13 24 -23 28 -23z m-1933 -20 c8 -5 11 -10 5
-10 -5 0 -17 5 -25 10 -8 5 -10 10 -5 10 6 0 17 -5 25 -10z m1855 -30 c3 -5
-3 -10 -14 -10 -12 0 -21 5 -21 10 0 6 6 10 14 10 8 0 18 -4 21 -10z m159 1
c-9 -9 -34 -9 -40 0 -3 5 6 8 20 7 14 -1 23 -4 20 -7z m-1644 -16 c0 -8 -71
-38 -77 -31 -10 10 29 35 55 36 12 0 22 -2 22 -5z m-129 -25 l24 -19 -26 1
c-19 2 -25 7 -21 16 4 11 -1 13 -19 7 -18 -5 -21 -4 -9 4 21 15 24 14 51 -9z
m1789 -5 c0 -16 -27 -32 -37 -21 -7 7 16 36 28 36 5 0 9 -7 9 -15z m-1656 -14
c3 -4 3 -11 0 -14 -8 -8 -34 3 -34 14 0 11 27 12 34 0z m-68 -36 c-4 -10 1
-15 15 -15 26 0 59 -17 59 -31 0 -6 -10 -3 -22 5 -26 19 -63 22 -52 4 4 -7 3
-8 -5 -4 -6 4 -8 12 -5 18 5 7 0 9 -14 6 -19 -5 -20 -3 -11 13 12 23 44 26 35
4z m1850 -36 c1 -17 -2 -27 -5 -22 -3 4 -12 8 -20 8 -24 0 -23 19 1 31 13 7
23 12 23 13 0 0 0 -13 1 -30z m-136 -4 c0 -8 -9 -15 -20 -15 -11 0 -20 7 -20
15 0 8 9 15 20 15 11 0 20 -7 20 -15z m-1675 -13 c-3 -3 -11 0 -18 7 -9 10 -8
11 6 5 10 -3 15 -9 12 -12z m1755 -12 c0 -5 -5 -10 -11 -10 -5 0 -7 5 -4 10 3
6 8 10 11 10 2 0 4 -4 4 -10z m100 -21 c0 -5 -9 -9 -20 -9 -19 0 -26 11 -14
23 8 8 34 -3 34 -14z m-1640 1 c0 -5 -4 -10 -10 -10 -5 0 -10 5 -10 10 0 6 5
10 10 10 6 0 10 -4 10 -10z m140 -25 c0 -19 -4 -35 -10 -35 -5 0 -9 16 -8 35
1 19 5 35 10 35 4 0 8 -16 8 -35z m-55 -35 c13 0 39 -59 30 -68 -2 -3 -21 12
-41 32 -38 38 -61 44 -83 24 -11 -11 -13 -10 -7 0 5 8 -3 16 -20 22 -18 7 -24
14 -17 21 6 6 19 6 38 -1 33 -13 60 -6 71 18 6 13 9 10 12 -15 2 -19 9 -33 17
-33z m1601 8 c5 -8 1 -9 -12 -4 -15 6 -17 5 -6 -5 13 -14 17 -49 5 -49 -9 0
-53 42 -53 51 0 4 10 10 23 12 12 2 25 5 29 6 4 0 10 -4 14 -11z m104 -32 c0
-6 -9 -12 -20 -13 -19 -2 -27 16 -14 30 9 9 34 -4 34 -17z m-1823 -1 c0 -8 -4
-12 -9 -9 -4 3 -8 9 -8 15 0 5 4 9 8 9 5 0 9 -7 9 -15z m76 -12 c-5 -12 -3
-14 8 -8 8 5 11 4 6 -1 -5 -5 -21 -9 -36 -10 -23 -1 -27 3 -23 18 4 18 5 18
19 1 8 -10 12 -12 8 -5 -3 6 -1 12 5 12 6 0 8 5 4 12 -4 7 -3 8 4 4 6 -4 8
-14 5 -23z m1551 0 c-10 -40 -14 -41 -14 -5 0 18 5 32 10 32 6 0 8 -11 4 -27z
m153 -10 c2 -6 -3 -13 -12 -16 -10 -5 -15 0 -15 14 0 21 21 22 27 2z m43 -23
c-24 -6 -42 -40 -21 -40 6 0 11 -5 11 -10 0 -6 -8 -5 -20 2 -24 15 -25 26 -4
49 10 11 23 15 37 11 21 -6 21 -6 -3 -12z m73 -26 c-3 -8 5 -16 21 -20 14 -3
26 -10 26 -15 0 -14 -15 -10 -43 11 l-25 20 2 -35 c3 -27 0 -35 -10 -31 -8 3
-11 0 -7 -9 3 -8 10 -12 16 -8 6 4 7 1 2 -6 -5 -9 -13 -7 -31 10 -16 15 -21
26 -14 34 5 7 6 16 2 20 -4 5 1 5 11 2 11 -4 17 -1 17 8 0 26 -2 30 -11 27 -5
-1 -4 7 3 18 11 17 14 18 29 4 10 -9 15 -22 12 -30z m-1783 11 c7 -9 19 -14
27 -11 7 3 13 -1 13 -9 0 -13 12 -19 32 -16 4 0 12 -8 18 -19 10 -19 10 -19
-22 -2 -18 9 -36 22 -40 27 -5 7 -8 7 -8 0 0 -5 -5 -2 -11 8 -6 9 -15 14 -21
11 -6 -4 -8 -2 -4 4 3 6 -2 13 -11 15 -15 4 -15 5 -2 6 9 0 22 -6 29 -14z
m1580 5 c0 -5 -15 -10 -32 -9 -31 1 -32 1 -8 9 35 11 40 11 40 0z m-1441 -22
c11 -10 14 -10 18 0 6 14 43 16 43 2 0 -5 -9 -10 -20 -10 -11 0 -20 -7 -20
-15 0 -8 -7 -15 -15 -15 -8 0 -15 -7 -15 -15 0 -10 10 -15 33 -15 31 -1 31 -1
9 -13 -12 -7 -21 -15 -20 -18 2 -2 0 -2 -4 1 -8 6 -48 78 -48 87 0 3 7 0 15
-7 12 -10 15 -10 15 3 0 8 -6 18 -12 20 -7 3 -8 6 -2 6 5 1 16 -5 23 -11z
m-52 -4 c-3 -3 -12 -4 -19 -1 -8 3 -5 6 6 6 11 1 17 -2 13 -5z m1718 -44 c19
-8 19 -9 -2 -9 -12 -1 -25 4 -28 9 -7 12 2 12 30 0z m-111 -31 c3 -3 -3 -10
-14 -17 -16 -10 -18 -9 -17 7 1 17 19 22 31 10z m19 -26 c-11 -10 -22 -26 -26
-35 -7 -19 -27 -25 -27 -7 0 5 5 7 10 4 6 -3 10 1 10 9 0 17 26 46 42 46 6 0
2 -8 -9 -17z m-1435 -51 c15 12 16 11 3 -4 -14 -19 -32 -15 -30 5 0 8 2 8 6
-1 4 -10 8 -10 21 0z m212 -2 c0 -5 -9 -10 -20 -10 -11 0 -20 5 -20 10 0 6 9
10 20 10 11 0 20 -4 20 -10z m1038 -10 c10 -17 10 -20 -3 -20 -8 0 -15 2 -15
4 0 2 -3 11 -6 20 -9 23 9 20 24 -4z m76 8 c-7 -11 3 -10 29 4 21 10 21 10 7
-7 -8 -10 -14 -21 -12 -24 2 -3 -1 -7 -7 -9 -6 -2 -11 2 -12 10 0 7 -4 3 -9
-9 -11 -26 -40 -31 -40 -7 0 9 6 14 14 11 9 -4 12 2 11 17 -2 14 3 23 11 23 7
0 11 -4 8 -9z m-57 -84 c0 -6 -7 -11 -16 -10 -9 1 -15 -5 -13 -13 3 -12 0 -12
-13 -1 -10 8 -12 17 -6 24 13 15 48 15 48 0z m-1122 -24 c-3 -5 -11 -10 -16
-10 -6 0 -7 5 -4 10 3 6 11 10 16 10 6 0 7 -4 4 -10z m197 -95 c-2 -16 -8 -34
-14 -40 -7 -7 -9 -6 -5 1 4 7 0 14 -8 18 -8 3 -15 17 -15 31 0 22 4 26 23 23
18 -2 21 -8 19 -33z m78 19 c0 -8 -4 -12 -10 -9 -5 3 -10 10 -10 16 0 5 5 9
10 9 6 0 10 -7 10 -16z m518 4 c-7 -19 -38 -22 -38 -4 0 10 9 16 21 16 12 0
19 -5 17 -12z m110 -20 c-7 -20 -48 -23 -48 -4 0 11 9 16 26 16 16 0 24 -5 22
-12z m-628 -18 c0 -5 -4 -10 -10 -10 -5 0 -10 5 -10 10 0 6 5 10 10 10 6 0 10
-4 10 -10z m646 -26 c-13 -12 -16 -12 -16 -2 0 19 24 42 28 28 2 -5 -4 -17
-12 -26z m-96 6 c0 -5 -9 -10 -19 -10 -11 0 -23 -4 -26 -10 -9 -14 -27 -12
-23 3 3 6 18 15 34 18 16 4 30 7 32 8 1 0 2 -3 2 -9z m53 -4 c20 -15 22 -27 5
-23 -7 1 -12 -3 -11 -9 1 -6 -9 -16 -22 -22 -21 -10 -25 -9 -25 4 0 8 10 18
22 23 19 7 19 8 4 14 -10 4 -14 11 -11 17 8 13 16 12 38 -4z m-613 -21 c7 -9
10 -18 6 -22 -8 -9 -56 14 -56 27 0 15 36 12 50 -5z m502 -47 c-9 -9 -12 -7
-12 12 0 19 3 21 12 12 9 -9 9 -15 0 -24z m-41 -3 c0 -6 -10 -12 -23 -15 -16
-4 -19 -8 -10 -14 17 -10 15 -26 -3 -26 -8 0 -15 -7 -15 -15 0 -8 -9 -15 -20
-15 -13 0 -18 5 -14 15 4 8 12 15 20 15 8 0 14 8 14 17 0 9 8 25 17 35 17 19
35 20 34 3z m-421 -5 c0 -5 -4 -10 -10 -10 -5 0 -10 5 -10 10 0 6 5 10 10 10
6 0 10 -4 10 -10z m70 -5 c0 -8 -4 -15 -10 -15 -5 0 -10 7 -10 15 0 8 5 15 10
15 6 0 10 -7 10 -15z m400 -31 c0 -22 -16 -17 -17 6 -1 11 2 18 8 15 5 -4 9
-13 9 -21z m-140 6 c0 -5 -2 -10 -4 -10 -3 0 -8 5 -11 10 -3 6 -1 10 4 10 6 0
11 -4 11 -10z m-220 -10 c0 -5 -2 -10 -4 -10 -3 0 -8 5 -11 10 -3 6 -1 10 4
10 6 0 11 -4 11 -10z m15 -79 c0 -17 5 -35 11 -39 6 -4 13 -15 17 -24 3 -10
14 -18 22 -18 15 0 15 1 1 16 -9 8 -16 21 -16 27 0 6 7 1 16 -11 19 -28 39
-30 24 -2 -9 16 -8 20 5 20 8 0 15 -5 15 -11 0 -7 8 -18 18 -26 15 -13 15 -14
-8 -8 -24 6 -24 5 -6 -9 11 -9 15 -16 9 -16 -7 0 -15 5 -18 10 -12 19 -26 11
-15 -9 7 -14 7 -22 0 -26 -6 -4 -10 -3 -9 2 3 20 -2 34 -11 28 -12 -8 -81 55
-74 67 3 5 -2 18 -12 29 -16 17 -16 22 -4 29 24 15 35 6 35 -29z m260 19 c-3
-5 -13 -6 -21 -3 -12 4 -13 8 -3 14 15 9 32 2 24 -11z"/>
<path d="M9330 3700 c20 -13 43 -13 35 0 -3 6 -16 10 -28 10 -18 0 -19 -2 -7
-10z"/>
<path d="M11280 3001 c0 -6 4 -13 10 -16 6 -3 7 1 4 9 -7 18 -14 21 -14 7z"/>
<path d="M12257 2339 c7 -7 15 -10 18 -7 3 3 -2 9 -12 12 -14 6 -15 5 -6 -5z"/>
<path d="M11770 1916 c0 -2 7 -7 16 -10 8 -3 12 -2 9 4 -6 10 -25 14 -25 6z"/>
<path d="M10610 3349 c0 -5 7 -9 16 -9 9 0 12 -5 8 -12 -4 -6 -3 -8 4 -4 6 3
13 2 17 -4 3 -5 13 -10 22 -10 12 0 13 3 4 14 -16 18 -71 38 -71 25z"/>
<path d="M8755 3110 c-3 -5 1 -10 9 -10 9 0 16 5 16 10 0 6 -4 10 -9 10 -6 0
-13 -4 -16 -10z"/>
<path d="M11925 2590 c-3 -5 -1 -10 4 -10 6 0 11 5 11 10 0 6 -2 10 -4 10 -3
0 -8 -4 -11 -10z"/>
<path d="M10690 2205 c-10 -12 -10 -19 -2 -27 7 -7 12 -10 13 -7 0 2 2 14 5
27 5 26 1 28 -16 7z"/>
<path d="M11110 1864 c0 -6 9 -19 20 -29 17 -15 23 -16 33 -5 9 10 9 11 -1 6
-7 -5 -20 2 -32 16 -11 13 -19 18 -20 12z"/>
<path d="M12 968 l3 -653 265 0 c282 1 332 6 424 50 111 53 181 142 216 279
17 69 20 111 20 325 0 274 -9 340 -59 439 -33 66 -90 120 -165 159 -86 44
-158 53 -444 53 l-262 0 2 -652z m577 399 c31 -21 50 -44 69 -85 26 -56 27
-63 30 -283 4 -252 -6 -323 -55 -387 -44 -58 -89 -72 -240 -72 l-133 0 0 431
0 431 143 -4 c138 -3 145 -4 186 -31z"/>
<path d="M3972 968 l3 -653 95 -3 c129 -4 140 0 140 44 l0 35 33 -25 c56 -43
102 -57 190 -57 73 0 88 3 146 33 72 37 128 100 158 178 25 68 31 452 8 542
-37 146 -144 236 -293 246 -88 6 -150 -14 -204 -66 l-38 -36 0 207 0 207 -120
0 -120 0 2 -652z m483 108 c15 -10 36 -38 47 -62 17 -40 19 -63 16 -217 -3
-187 -10 -213 -61 -251 -40 -29 -134 -29 -174 0 -54 39 -68 85 -71 234 -6 198
17 272 92 306 39 18 116 13 151 -10z"/>
<path d="M8600 971 c0 -602 1 -649 17 -655 9 -4 150 -5 313 -3 274 3 299 5
359 26 84 29 125 58 172 121 54 71 72 141 67 249 -6 124 -43 192 -142 264 -17
13 -16 16 31 63 82 83 109 165 92 287 -11 83 -39 140 -93 190 -98 93 -166 107
-533 107 l-283 0 0 -649z m561 418 c50 -15 75 -43 90 -99 15 -55 6 -108 -23
-145 -36 -46 -73 -55 -228 -55 l-140 0 0 155 0 155 131 0 c73 0 149 -5 170
-11z m46 -542 c44 -24 65 -68 65 -137 0 -79 -24 -127 -76 -151 -34 -15 -67
-19 -188 -19 l-148 0 0 166 0 166 158 -4 c124 -3 164 -7 189 -21z"/>
<path d="M13222 1073 l3 -548 24 -53 c47 -103 133 -150 291 -158 l90 -4 0 110
0 110 -63 0 c-110 0 -102 -44 -105 566 l-3 524 -120 0 -120 0 3 -547z"/>
<path d="M13762 1073 l3 -548 28 -57 c52 -107 131 -148 289 -151 l93 -2 0 105
0 105 -66 3 c-112 5 -104 -41 -107 568 l-3 524 -120 0 -120 0 3 -547z"/>
<path d="M6780 1532 l-105 -37 -3 -98 -3 -97 -69 0 -70 0 0 -85 0 -85 69 0 70
0 3 -312 c3 -299 4 -315 25 -353 54 -102 136 -144 280 -148 l98 -2 3 101 3
102 -67 4 c-107 7 -104 -4 -104 329 l0 279 95 0 95 0 0 85 0 85 -95 0 -95 0 0
135 c0 102 -3 135 -12 134 -7 0 -60 -17 -118 -37z"/>
<path d="M6290 1311 c-46 -14 -87 -40 -114 -71 l-26 -32 0 46 0 46 -115 0
-115 0 0 -496 0 -496 108 3 c59 2 113 5 120 7 9 3 12 78 12 331 0 319 1 328
23 371 33 67 83 92 172 87 39 -3 78 -8 88 -12 16 -7 17 2 17 109 l0 116 -72
-1 c-40 0 -84 -4 -98 -8z"/>
<path d="M11039 1311 c-42 -13 -72 -32 -106 -64 l-33 -31 0 42 0 42 -120 0
-120 0 2 -492 3 -493 115 0 115 0 6 330 c3 182 9 339 14 350 35 83 99 120 194
112 37 -2 74 -8 84 -12 16 -7 17 1 15 106 l-3 114 -70 2 c-38 1 -82 -2 -96 -6z"/>
<path d="M1300 1288 c-51 -17 -77 -34 -120 -78 -58 -58 -80 -105 -80 -174 l0
-36 110 0 c102 0 110 1 110 20 0 65 77 117 160 107 93 -11 130 -58 130 -166
l0 -59 -162 -4 c-154 -4 -166 -5 -221 -32 -109 -53 -164 -154 -155 -284 8
-112 60 -197 148 -241 50 -26 82 -32 168 -32 94 0 134 12 183 51 21 16 40 30
43 30 3 0 6 -15 6 -34 0 -42 9 -45 132 -43 l93 2 0 375 0 375 -27 55 c-31 65
-58 97 -113 133 -91 59 -281 76 -405 35z m308 -611 c4 -69 -24 -137 -63 -155
-68 -31 -183 -22 -219 17 -24 26 -32 93 -16 131 22 52 76 69 215 66 l80 -1 3
-58z"/>
<path d="M2249 1296 c-92 -33 -151 -93 -191 -196 -17 -46 -22 -82 -26 -215 -6
-224 16 -311 102 -403 97 -105 288 -122 401 -36 l45 35 0 -80 c0 -140 -37
-192 -143 -199 -76 -6 -130 17 -152 64 l-16 34 -115 0 -115 0 7 -37 c20 -117
102 -202 228 -238 45 -13 85 -16 167 -13 96 4 114 8 173 37 78 38 146 111 179
191 21 54 22 66 25 558 l3 502 -120 0 -121 0 0 -40 c0 -45 -8 -50 -36 -19 -10
12 -41 32 -69 45 -58 27 -165 32 -226 10z m259 -223 c50 -37 65 -77 70 -185 6
-128 -8 -196 -50 -237 -56 -55 -165 -58 -213 -7 -37 40 -47 96 -43 231 4 135
17 172 71 206 41 26 125 22 165 -8z"/>
<path d="M3267 1300 c-132 -33 -226 -132 -257 -270 -19 -86 -9 -441 14 -503
24 -63 104 -150 169 -181 105 -51 299 -52 402 -2 95 47 160 130 185 238 16 73
13 413 -6 478 -28 101 -124 200 -222 231 -48 15 -236 21 -285 9z m221 -227
c57 -41 67 -81 67 -263 0 -145 -2 -170 -20 -204 -31 -61 -65 -81 -140 -81
-121 0 -156 53 -163 244 -7 199 15 275 89 314 44 23 129 18 167 -10z"/>
<path d="M5207 1299 c-98 -23 -199 -105 -236 -193 -36 -83 -43 -144 -39 -331
4 -157 7 -187 27 -237 31 -80 104 -158 183 -194 60 -28 70 -29 203 -29 139 0
141 0 207 33 105 51 160 124 174 231 l7 52 -119 -3 -118 -3 -8 -33 c-13 -50
-57 -72 -144 -72 -57 0 -78 4 -104 23 -47 31 -68 72 -72 137 l-3 55 289 3 289
2 -6 123 c-9 194 -49 291 -152 370 -68 51 -156 77 -259 76 -44 -1 -98 -5 -119
-10z m222 -217 c34 -25 59 -78 63 -132 l3 -45 -165 0 -165 0 3 40 c4 55 19 99
42 120 51 46 168 55 219 17z"/>
<path d="M7477 1299 c-131 -31 -226 -130 -257 -269 -19 -86 -9 -441 14 -503
24 -63 101 -146 168 -180 144 -73 388 -45 489 55 94 95 112 165 107 437 l-3
206 -33 67 c-47 97 -120 156 -227 184 -56 15 -200 17 -258 3z m221 -226 c57
-41 67 -81 67 -263 0 -145 -2 -170 -20 -204 -31 -61 -65 -81 -140 -81 -122 0
-157 54 -163 251 -6 198 17 276 92 310 42 19 130 13 164 -13z"/>
<path d="M9940 1296 c-128 -36 -208 -124 -226 -248 l-6 -48 116 0 116 0 0 29
c0 69 103 118 190 92 59 -17 87 -58 95 -137 4 -36 4 -69 -1 -74 -5 -4 -79 -10
-164 -12 -141 -3 -160 -6 -210 -29 -104 -49 -152 -120 -158 -237 -5 -89 10
-151 49 -209 55 -80 130 -113 260 -114 91 -2 137 12 195 56 l33 25 3 -37 3
-38 115 0 115 0 0 375 0 375 -26 55 c-61 130 -178 191 -364 189 -49 0 -110 -6
-135 -13z m284 -578 c7 -12 7 -36 -1 -85 -10 -55 -18 -73 -42 -95 -53 -48
-191 -47 -235 1 -24 26 -32 93 -16 131 22 52 74 69 204 67 62 -2 81 -6 90 -19z"/>
<path d="M11525 1289 c-104 -36 -171 -99 -214 -202 -24 -58 -26 -76 -29 -247
-3 -144 0 -200 12 -253 38 -164 143 -254 320 -277 252 -32 426 87 453 308 l6
52 -117 0 c-110 0 -116 -1 -116 -20 0 -102 -126 -161 -238 -110 -34 15 -47 29
-63 65 -19 42 -20 63 -17 219 3 165 4 174 28 209 80 118 290 69 290 -67 l0
-26 116 0 117 0 -6 58 c-17 158 -101 258 -249 298 -80 21 -221 18 -293 -7z"/>
<path d="M12496 1294 c-112 -35 -200 -122 -237 -236 -22 -67 -24 -89 -23 -258
0 -163 3 -192 22 -242 43 -117 109 -183 231 -229 45 -17 77 -21 158 -21 107 1
164 12 224 42 83 43 159 155 159 238 l0 42 -115 0 c-109 0 -115 -1 -115 -20 0
-58 -55 -90 -152 -90 -114 0 -184 68 -176 173 l3 42 283 3 282 2 0 106 c0 246
-83 390 -259 444 -76 24 -212 26 -285 4z m234 -209 c39 -20 69 -83 70 -143 l0
-42 -162 2 -163 3 -3 27 c-8 70 39 148 102 168 41 12 117 5 156 -15z"/>
<path d="M14557 1299 c-130 -31 -226 -131 -257 -269 -19 -86 -9 -441 14 -503
25 -65 104 -150 174 -184 54 -27 64 -28 197 -28 133 0 143 1 197 28 97 48 157
122 184 228 12 48 15 105 12 268 l-3 206 -33 67 c-47 97 -120 156 -227 184
-56 15 -200 17 -258 3z m221 -226 c57 -41 67 -81 67 -263 0 -145 -2 -170 -20
-204 -31 -61 -65 -81 -140 -81 -121 0 -157 54 -163 245 -6 199 15 274 89 313
44 23 129 18 167 -10z"/>
<path d="M15475 1297 c-102 -34 -179 -98 -213 -176 -19 -45 -22 -172 -3 -224
7 -21 29 -54 49 -73 62 -60 114 -80 291 -110 138 -22 171 -45 171 -114 0 -77
-126 -124 -233 -86 -50 18 -74 41 -82 77 l-7 29 -109 0 -109 0 0 -28 c0 -119
92 -227 228 -268 109 -34 303 -14 392 38 148 88 196 287 102 419 -53 74 -126
107 -311 138 -137 23 -165 40 -169 98 -2 32 3 47 22 69 23 28 27 29 116 29 91
0 92 0 121 -33 16 -18 29 -41 29 -52 0 -19 7 -20 110 -20 l110 0 0 38 c-1 85
-71 173 -180 225 -58 28 -75 31 -175 34 -72 2 -124 -2 -150 -10z"/>
</g>
</svg>
