<?xml version="1.0" encoding="utf-8"?>
<!-- Generator: Adobe Illustrator 27.5.0, SVG Export Plug-In . SVG Version: 6.00 Build 0)  -->
<svg version="1.1" xmlns="http://www.w3.org/2000/svg" xmlns:xlink="http://www.w3.org/1999/xlink" x="0px" y="0px"
	 viewBox="0 0 500 500" style="enable-background:new 0 0 500 500;" xml:space="preserve">
<g id="BACKGROUND">
</g>
<g id="OBJECTS">
	<g>
		<defs>
			<rect id="SVGID_1_" width="500" height="500"/>
		</defs>
		<clipPath id="SVGID_00000027571930676728128600000014392966942921258150_">
			<use xlink:href="#SVGID_1_"  style="overflow:visible;"/>
		</clipPath>
		<g style="opacity:0.58;clip-path:url(#SVGID_00000027571930676728128600000014392966942921258150_);">
			<g>
				<path style="fill:#C6C6F7;" d="M-13.694,387.521c-0.799-0.237-1.598-0.488-2.399-0.752l0.26-1.153
					c0.79,0.261,1.582,0.51,2.373,0.745L-13.694,387.521z"/>
				<path style="fill:#C6C6F7;" d="M-51.172,253.564c-1.089,1.498-2.158,3.045-3.178,4.595l0.77,0.745
					c1.011-1.535,2.07-3.065,3.148-4.55L-51.172,253.564z"/>
				<path style="fill:#C6C6F7;" d="M-45.383,246.173c-1.182,1.4-2.347,2.842-3.463,4.284l0.72,0.817
					c1.105-1.43,2.261-2.858,3.433-4.247L-45.383,246.173z"/>
				<path style="fill:#C6C6F7;" d="M-52.797,362.747c1.199,1.342,2.461,2.663,3.751,3.927l0.62-0.929
					c-1.274-1.248-2.52-2.552-3.703-3.876L-52.797,362.747z"/>
				<path style="fill:#C6C6F7;" d="M-46.298,369.246c1.315,1.178,2.686,2.328,4.072,3.421l0.537-1.001
					c-1.37-1.081-2.724-2.217-4.024-3.381L-46.298,369.246z"/>
				<path style="fill:#C6C6F7;" d="M-29.666,230.648l0.552,0.99c1.358-1.11,2.746-2.192,4.127-3.214l-0.514-1.02
					C-26.895,228.435-28.296,229.527-29.666,230.648z"/>
				<path style="fill:#C6C6F7;" d="M-31.855,379.689c1.49,0.857,3.013,1.675,4.525,2.431l0.376-1.104
					c-1.496-0.749-3.003-1.558-4.477-2.408L-31.855,379.689z"/>
				<path style="fill:#C6C6F7;" d="M-36.454,236.665l0.611,0.938c1.285-1.231,2.603-2.437,3.915-3.584l-0.578-0.969
					C-33.829,234.208-35.158,235.424-36.454,236.665z"/>
				<path style="fill:#C6C6F7;" d="M-39.282,374.889c1.406,1.013,2.861,1.996,4.325,2.924l0.456-1.06
					c-1.448-0.917-2.888-1.889-4.277-2.891L-39.282,374.889z"/>
				<path style="fill:#C6C6F7;" d="M-67.266,284.341l0.913,0.453c0.607-1.802,1.28-3.624,1.998-5.414l-0.888-0.523
					C-65.969,280.67-66.65,282.516-67.266,284.341z"/>
				<path style="fill:#C6C6F7;" d="M-58.637,355.381c1.053,1.507,2.179,2.999,3.346,4.438l0.703-0.838
					c-1.15-1.418-2.259-2.89-3.297-4.373L-58.637,355.381z"/>
				<path style="fill:#C6C6F7;" d="M-67.674,338.174c0.664,1.805,1.412,3.616,2.226,5.384l0.861-0.583
					c-0.8-1.735-1.535-3.514-2.186-5.286L-67.674,338.174z"/>
				<path style="fill:#C6C6F7;" d="M-24.103,383.653c1.549,0.694,3.125,1.347,4.684,1.937l0.295-1.141
					c-1.544-0.584-3.104-1.229-4.636-1.916L-24.103,383.653z"/>
				<path style="fill:#C6C6F7;" d="M-70.94,318.324l-0.982,0.107c0.148,1.996,0.379,4.003,0.686,5.968l0.969-0.222
					C-70.568,322.251-70.794,320.281-70.94,318.324z"/>
				<path style="fill:#C6C6F7;" d="M-70.473,328.517c0.414,1.924,0.915,3.859,1.489,5.75l0.925-0.413
					c-0.562-1.855-1.054-3.751-1.461-5.638L-70.473,328.517z"/>
				<path style="fill:#C6C6F7;" d="M-55.674,262.194l-0.792-0.714c-0.991,1.614-1.95,3.262-2.851,4.898l0.82,0.663
					C-57.605,265.422-56.655,263.79-55.674,262.194z"/>
				<path style="fill:#C6C6F7;" d="M-60.347,270.54l-0.84-0.626c-0.869,1.711-1.702,3.46-2.476,5.2l0.869,0.567
					C-62.029,273.962-61.206,272.233-60.347,270.54z"/>
				<path style="fill:#C6C6F7;" d="M-63.66,347.169c0.876,1.658,1.834,3.317,2.847,4.928l0.784-0.723
					c-0.996-1.587-1.938-3.219-2.801-4.849L-63.66,347.169z"/>
				<path style="fill:#C6C6F7;" d="M32.58,152.76c0.142,1.845,0.214,3.671,0.214,5.434l-0.001,0.462l0.986,0.009l0.001-0.476
					c0-1.794-0.073-3.658-0.218-5.539L32.58,152.76z"/>
				<path style="fill:#C6C6F7;" d="M31.366,138.493c-0.408-1.843-0.862-3.724-1.389-5.752l-0.94,0.359
					c0.521,2.011,0.972,3.877,1.376,5.703L31.366,138.493z"/>
				<path style="fill:#C6C6F7;" d="M33.132,148.469c-0.24-1.886-0.554-3.871-0.933-5.898l-0.961,0.264
					c0.374,2.001,0.683,3.957,0.92,5.817L33.132,148.469z"/>
				<path style="fill:#C6C6F7;" d="M25.563,187.048l0.83,0.647c0.887-1.676,1.714-3.439,2.457-5.24l-0.882-0.534
					C27.241,183.683,26.432,185.408,25.563,187.048z"/>
				<path style="fill:#C6C6F7;" d="M29.38,178.161l0.911,0.455c0.619-1.821,1.179-3.729,1.663-5.674l-0.944-0.345
					C30.535,174.505,29.986,176.376,29.38,178.161z"/>
				<path style="fill:#C6C6F7;" d="M26.348,123.512c0.554,1.872,1.099,3.747,1.623,5.626l0.934-0.383
					c-0.526-1.886-1.073-3.768-1.628-5.647L26.348,123.512z"/>
				<path style="fill:#C6C6F7;" d="M-22.515,225.273l0.485,1.039c1.431-0.982,2.885-1.924,4.323-2.802l-0.443-1.067
					C-19.602,223.328-21.071,224.281-22.515,225.273z"/>
				<path style="fill:#C6C6F7;" d="M-71.147,312.721c0-1.458,0.042-2.949,0.126-4.435l-0.984-0.082
					c-0.085,1.513-0.128,3.032-0.128,4.517c0,0.501,0.005,1,0.014,1.5l0.986-0.028C-71.142,313.703-71.147,313.213-71.147,312.721z"
					/>
				<path style="fill:#C6C6F7;" d="M31.884,168.6l0.963,0.259c0.354-1.937,0.611-3.946,0.762-5.972l-0.982-0.107
					C32.479,164.755,32.228,166.713,31.884,168.6z"/>
				<path style="fill:#C6C6F7;" d="M30.375,32.992l0.761,0.759c1.022-1.504,2.113-2.993,3.244-4.424L33.667,28.5
					C32.519,29.953,31.411,31.464,30.375,32.992z"/>
				<path style="fill:#C6C6F7;" d="M0.26,212.367l0.441,1.069c1.526-0.927,2.998-1.87,4.374-2.803l-0.482-1.043
					C3.231,210.515,1.773,211.45,0.26,212.367z"/>
				<path style="fill:#C6C6F7;" d="M-7.31,216.627l0.393,1.096c1.599-0.843,3.073-1.647,4.503-2.459l-0.418-1.083
					C-4.255,214.988-5.719,215.789-7.31,216.627z"/>
				<path style="fill:#C6C6F7;" d="M-11.789,218.918c-1.075,0.536-2.163,1.109-3.235,1.705l0.41,1.085
					c1.061-0.588,2.137-1.155,3.2-1.684l1.316-0.659l-0.379-1.104L-11.789,218.918z"/>
				<path style="fill:#C6C6F7;" d="M25.618,117.585c-0.405-1.343-0.811-2.684-1.211-4.022l-0.926,0.406
					c0.4,1.34,0.806,2.682,1.212,4.026l0.48,1.59l0.926-0.411L25.618,117.585z"/>
				<path style="fill:#C6C6F7;" d="M20.489,194.963l0.722,0.812c1.139-1.487,2.214-3.041,3.193-4.619l-0.788-0.719
					C22.657,191.984,21.605,193.505,20.489,194.963z"/>
				<path style="fill:#C6C6F7;" d="M14.387,201.754l0.61,0.938c1.322-1.266,2.588-2.587,3.762-3.927l-0.676-0.871
					C16.93,199.212,15.686,200.51,14.387,201.754z"/>
				<path style="fill:#C6C6F7;" d="M19.414,94.271l-0.961,0.271c0.354,1.85,0.767,3.749,1.261,5.805l0.946-0.334
					C20.172,97.977,19.764,96.099,19.414,94.271z"/>
				<path style="fill:#C6C6F7;" d="M533.87,186.934c-1.26-1.257-2.521-2.525-3.774-3.817l-0.64,0.91
					c1.26,1.297,2.524,2.57,3.788,3.829L533.87,186.934z"/>
				<path style="fill:#C6C6F7;" d="M506.571,149.359c-0.695-1.732-1.327-3.563-1.876-5.443l-0.93,0.399
					c0.562,1.922,1.207,3.795,1.92,5.567L506.571,149.359z"/>
				<path style="fill:#C6C6F7;" d="M501.005,129.209c0.031,0.349,0.064,0.697,0.1,1.045l0.978-0.149
					c-0.036-0.341-0.067-0.682-0.098-1.025c-0.14-1.541-0.257-3.184-0.348-4.884l-0.984,0.077
					C500.745,125.99,500.863,127.651,501.005,129.209z"/>
				<path style="fill:#C6C6F7;" d="M502.721,140.289l0.951-0.317c-0.422-1.854-0.785-3.795-1.077-5.768l-0.97,0.212
					C501.922,136.423,502.291,138.399,502.721,140.289z"/>
				<path style="fill:#C6C6F7;" d="M510.78,158.016c-0.908-1.635-1.781-3.323-2.595-5.017l-0.851,0.602
					c0.824,1.716,1.708,3.425,2.628,5.083L510.78,158.016z"/>
				<path style="fill:#C6C6F7;" d="M500.474,99.753l0.986,0.016c0.022-1.986,0.042-3.981,0.05-5.974l-0.986-0.007
					C500.516,95.78,500.496,97.771,500.474,99.753z"/>
				<path style="fill:#C6C6F7;" d="M500.282,79.504l0.984-0.068c-0.097-2.077-0.227-4.088-0.386-5.975l-0.98,0.121
					C500.056,75.452,500.185,77.444,500.282,79.504z"/>
				<path style="fill:#C6C6F7;" d="M515.779,166.058c-1.051-1.521-2.069-3.087-3.025-4.654l-0.793,0.71
					c0.968,1.587,1.999,3.173,3.062,4.713L515.779,166.058z"/>
				<path style="fill:#C6C6F7;" d="M500.522,89.618l0.986-0.007c-0.01-2-0.038-3.996-0.091-5.985l-0.986,0.04
					C500.485,85.643,500.513,87.629,500.522,89.618z"/>
				<path style="fill:#C6C6F7;" d="M36.129,25.54l0.676,0.868c1.169-1.336,2.404-2.649,3.671-3.905l-0.624-0.925
					C38.567,22.851,37.314,24.184,36.129,25.54z"/>
				<path style="fill:#C6C6F7;" d="M521.745,326.743l-0.333-1.125c-1.544,0.672-3.098,1.318-4.654,1.941l0.308,1.134
					C518.631,328.068,520.192,327.418,521.745,326.743z"/>
				<path style="fill:#C6C6F7;" d="M527.495,180.39c-1.294-1.382-2.48-2.691-3.629-4.003l-0.676,0.868
					c1.155,1.322,2.35,2.641,3.652,4.031L527.495,180.39z"/>
				<path style="fill:#C6C6F7;" d="M499.485,69.459l0.976-0.168c-0.239-2.045-0.528-4.037-0.858-5.919l-0.965,0.25
					C498.965,65.476,499.25,67.44,499.485,69.459z"/>
				<path style="fill:#C6C6F7;" d="M571.071,261.894l0.986-0.047c-0.067-2.036-0.176-4.049-0.327-5.979l-0.982,0.112
					C570.896,257.889,571.005,259.879,571.071,261.894z"/>
				<path style="fill:#C6C6F7;" d="M570.354,251.863l0.976-0.163c-0.227-2.001-0.509-3.989-0.837-5.909l-0.965,0.243
					C569.852,247.926,570.13,249.887,570.354,251.863z"/>
				<path style="fill:#C6C6F7;" d="M521.404,173.489c-1.168-1.416-2.304-2.862-3.376-4.298l-0.732,0.803
					c1.083,1.449,2.231,2.911,3.411,4.34L521.404,173.489z"/>
				<path style="fill:#C6C6F7;" d="M500.377,109.907l0.986,0.007c0.009-1.975,0.028-3.966,0.05-5.965l-0.986-0.016
					C500.405,105.936,500.386,107.93,500.377,109.907z"/>
				<path style="fill:#C6C6F7;" d="M500.482,120.082l0.986-0.044c-0.055-1.839-0.089-3.787-0.102-5.952l-0.986,0.009
					C500.393,116.272,500.427,118.23,500.482,120.082z"/>
				<path style="fill:#C6C6F7;" d="M491.512,40.896c-1.001-1.591-2.102-3.122-3.274-4.553l-0.699,0.842
					c1.141,1.394,2.215,2.886,3.189,4.434L491.512,40.896z"/>
				<path style="fill:#C6C6F7;" d="M21.176,54.669l-0.926-0.411c-0.567,1.882-1.072,3.812-1.498,5.735l0.951,0.31
					C20.123,58.414,20.619,56.519,21.176,54.669z"/>
				<path style="fill:#C6C6F7;" d="M17.087,84.455c0.155,1.975,0.38,3.98,0.67,5.96l0.971-0.208
					c-0.285-1.949-0.506-3.923-0.659-5.865L17.087,84.455z"/>
				<path style="fill:#C6C6F7;" d="M18.92,64.332l-0.967-0.238c-0.327,1.949-0.588,3.948-0.773,5.943l0.98,0.133
					C18.342,68.211,18.598,66.247,18.92,64.332z"/>
				<path style="fill:#C6C6F7;" d="M24.59,45.505l-0.867-0.569c-0.79,1.773-1.523,3.592-2.177,5.408l0.903,0.479
					C23.092,49.035,23.813,47.246,24.59,45.505z"/>
				<path style="fill:#C6C6F7;" d="M20.733,104.357c0.5,1.88,1.032,3.772,1.583,5.671l0.93-0.397
					c-0.549-1.889-1.077-3.77-1.575-5.64L20.733,104.357z"/>
				<path style="fill:#C6C6F7;" d="M-67.573,288.671l-0.93-0.399c-0.557,1.913-1.057,3.842-1.485,5.736l0.951,0.315
					C-68.615,292.458-68.123,290.555-67.573,288.671z"/>
				<path style="fill:#C6C6F7;" d="M17.848,80.209c-0.024-0.825-0.037-1.647-0.037-2.465c0-1.153,0.024-2.313,0.071-3.45
					l-0.984-0.061c-0.049,1.157-0.073,2.338-0.073,3.51c0,0.832,0.012,1.668,0.037,2.507L17.848,80.209z"/>
				<path style="fill:#C6C6F7;" d="M-38.51,240.239l-0.634-0.915c-1.26,1.284-2.512,2.617-3.721,3.962l0.666,0.88
					C-41,242.832-39.758,241.511-38.51,240.239z"/>
				<path style="fill:#C6C6F7;" d="M-69.849,298.348l-0.964-0.252c-0.351,1.976-0.636,3.969-0.847,5.923l0.978,0.154
					C-70.475,302.252-70.194,300.292-69.849,298.348z"/>
				<path style="fill:#C6C6F7;" d="M485.038,34.394l0.636-0.913c-0.885-0.906-1.824-1.786-2.79-2.616
					c-0.394-0.339-0.792-0.67-1.191-0.997l-0.551,0.992c0.394,0.32,0.784,0.647,1.172,0.98
					C483.258,32.651,484.174,33.51,485.038,34.394z"/>
				<path style="fill:#C6C6F7;" d="M498.786,59.275c-0.447-1.978-0.963-3.904-1.535-5.723l-0.921,0.425
					c0.56,1.783,1.067,3.673,1.505,5.613L498.786,59.275z"/>
				<path style="fill:#C6C6F7;" d="M495.889,49.667c-0.713-1.838-1.518-3.62-2.389-5.296l-0.834,0.637
					c0.85,1.635,1.634,3.374,2.331,5.168L495.889,49.667z"/>
				<path style="fill:#C6C6F7;" d="M471.215,23.038c-1.508-0.77-3.069-1.487-4.639-2.131l-0.316,1.132
					c1.547,0.635,3.086,1.342,4.572,2.101L471.215,23.038z"/>
				<path style="fill:#C6C6F7;" d="M463.263,19.655c-1.566-0.543-3.183-1.033-4.81-1.458l-0.208,1.167
					c1.605,0.42,3.202,0.904,4.746,1.439L463.263,19.655z"/>
				<path style="fill:#C6C6F7;" d="M29.037,37.019l-0.795-0.707c-0.981,1.618-1.915,3.293-2.776,4.981l0.838,0.628
					C27.152,40.261,28.071,38.612,29.037,37.019z"/>
				<path style="fill:#C6C6F7;" d="M478.751,27.622c-1.414-1.009-2.884-1.966-4.372-2.844l-0.431,1.074
					c1.465,0.865,2.913,1.807,4.303,2.8L478.751,27.622z"/>
				<path style="fill:#C6C6F7;" d="M7.553,207.491l0.514,1.02c1.45-1.075,2.845-2.185,4.146-3.299l-0.57-0.976
					C10.361,205.335,8.985,206.43,7.553,207.491z"/>
				<path style="fill:#C6C6F7;" d="M400.63,25l0.362,1.111c1.496-0.717,3.044-1.406,4.6-2.052l-0.32-1.13
					C403.703,23.58,402.141,24.276,400.63,25z"/>
				<path style="fill:#C6C6F7;" d="M416.694,19.033l0.216,1.167c1.584-0.43,3.201-0.823,4.807-1.167l-0.171-1.176
					C419.925,18.204,418.293,18.6,416.694,19.033z"/>
				<path style="fill:#C6C6F7;" d="M408.565,21.638l0.289,1.144c1.553-0.576,3.141-1.118,4.718-1.608l-0.245-1.158
					C411.735,20.51,410.133,21.056,408.565,21.638z"/>
				<path style="fill:#C6C6F7;" d="M385.41,33.571l0.45,1.064c1.436-0.893,2.899-1.78,4.393-2.662l-0.431-1.074
					C388.322,31.784,386.852,32.676,385.41,33.571z"/>
				<path style="fill:#C6C6F7;" d="M396.597,27.059c-1.241,0.672-2.461,1.35-3.66,2.032l0.418,1.083
					c1.195-0.679,2.409-1.355,3.645-2.025l0.826-0.442l-0.395-1.095L396.597,27.059z"/>
				<path style="fill:#C6C6F7;" d="M441.722,17.091c1.636,0.04,3.284,0.131,4.894,0.273l0.071-1.193
					c-1.628-0.142-3.292-0.236-4.946-0.275L441.722,17.091z"/>
				<path style="fill:#C6C6F7;" d="M424.964,17.191l0.141,1.183c1.625-0.286,3.262-0.526,4.867-0.714l-0.095-1.19
					C428.257,16.661,426.604,16.904,424.964,17.191z"/>
				<path style="fill:#C6C6F7;" d="M433.329,16.13l0.064,1.193c1.636-0.128,3.283-0.208,4.897-0.238l-0.015-1.195
					C436.645,15.92,434.98,16.001,433.329,16.13z"/>
				<path style="fill:#C6C6F7;" d="M42.59,19.001l0.585,0.962c1.298-1.163,2.653-2.292,4.027-3.358l-0.532-1.006
					C45.278,16.679,43.904,17.824,42.59,19.001z"/>
				<path style="fill:#C6C6F7;" d="M455.046,17.399c-1.601-0.333-3.252-0.616-4.906-0.84l-0.11,1.188
					c1.635,0.222,3.266,0.501,4.848,0.831L455.046,17.399z"/>
				<path style="fill:#C6C6F7;" d="M317.863,72.939l0.248,1.156c1.587-0.501,3.186-1.042,4.756-1.61l-0.283-1.146
					C321.027,71.904,319.438,72.442,317.863,72.939z"/>
				<path style="fill:#C6C6F7;" d="M325.858,70.094l0.308,1.135c1.536-0.612,3.104-1.274,4.662-1.971l-0.341-1.12
					C328.94,68.829,327.383,69.487,325.858,70.094z"/>
				<path style="fill:#C6C6F7;" d="M378.007,38.332l0.474,1.048c1.419-0.942,2.86-1.882,4.326-2.821l-0.46-1.057
					C380.876,36.443,379.43,37.388,378.007,38.332z"/>
				<path style="fill:#C6C6F7;" d="M348.833,58.163l0.454,1.06c1.461-0.92,2.91-1.858,4.352-2.813l-0.472-1.048
					C351.731,56.312,350.287,57.246,348.833,58.163z"/>
				<path style="fill:#C6C6F7;" d="M356.177,53.349l0.48,1.043c1.428-0.966,2.855-1.945,4.285-2.935l-0.489-1.039
					C359.026,51.408,357.602,52.385,356.177,53.349z"/>
				<path style="fill:#C6C6F7;" d="M370.699,43.292l0.489,1.039c1.41-0.976,2.836-1.954,4.281-2.932l-0.481-1.043
					C373.54,41.336,372.112,42.317,370.699,43.292z"/>
				<polygon style="fill:#C6C6F7;" points="363.44,48.345 363.932,49.381 368.197,46.406 367.706,45.37 				"/>
				<path style="fill:#C6C6F7;" d="M341.345,62.64l0.416,1.083c1.442-0.812,2.938-1.686,4.446-2.598l-0.441-1.069
					C344.267,60.963,342.78,61.832,341.345,62.64z"/>
				<path style="fill:#C6C6F7;" d="M565.165,290.438l0.824,0.656c0.924-1.705,1.754-3.466,2.469-5.233l-0.886-0.525
					C566.876,287.056,566.067,288.774,565.165,290.438z"/>
				<path style="fill:#C6C6F7;" d="M554.55,210.743c1.124,1.501,2.188,3.018,3.164,4.512l0.772-0.742
					c-0.989-1.514-2.068-3.053-3.206-4.572L554.55,210.743z"/>
				<path style="fill:#C6C6F7;" d="M567.039,232.029c-0.632-1.85-1.333-3.682-2.085-5.445l-0.876,0.548
					c0.739,1.734,1.429,3.535,2.05,5.355L567.039,232.029z"/>
				<path style="fill:#C6C6F7;" d="M563.272,222.906c-0.83-1.696-1.739-3.389-2.703-5.032l-0.803,0.691
					c0.948,1.617,1.842,3.283,2.659,4.951L563.272,222.906z"/>
				<path style="fill:#C6C6F7;" d="M560.008,298.266l0.715,0.822c1.166-1.489,2.257-3.024,3.241-4.562l-0.778-0.733
					C562.22,295.301,561.151,296.805,560.008,298.266z"/>
				<path style="fill:#C6C6F7;" d="M568.271,235.958l-0.932,0.392c0.524,1.826,0.999,3.728,1.414,5.651l0.953-0.301
					C569.284,239.745,568.802,237.814,568.271,235.958z"/>
				<path style="fill:#C6C6F7;" d="M524.637,324.174l0.351,1.117c1.555-0.718,3.099-1.462,4.587-2.213l-0.379-1.104
					C527.716,322.721,526.182,323.461,524.637,324.174z"/>
				<path style="fill:#C6C6F7;" d="M568.917,281.569l0.923,0.422c0.586-1.879,1.068-3.822,1.429-5.775l-0.963-0.261
					C569.956,277.853,569.489,279.741,568.917,281.569z"/>
				<path style="fill:#C6C6F7;" d="M572.132,266.044l-0.986,0.007l0.001,0.599c0,1.77-0.089,3.541-0.263,5.261l0.978,0.145
					c0.18-1.768,0.271-3.586,0.271-5.406L572.132,266.044z"/>
				<path style="fill:#C6C6F7;" d="M537.487,190.513l-0.949-0.937l-0.622,0.927l0.949,0.937c0.959,0.946,1.915,1.889,2.867,2.834
					l0.624-0.924C539.404,192.404,538.447,191.459,537.487,190.513z"/>
				<path style="fill:#C6C6F7;" d="M539.871,315.93l0.458,1.057c1.486-0.946,2.943-1.926,4.33-2.912l-0.499-1.032
					C542.787,314.02,541.343,314.991,539.871,315.93z"/>
				<path style="fill:#C6C6F7;" d="M532.356,320.328l0.401,1.092c1.531-0.825,3.039-1.678,4.484-2.535l-0.433-1.074
					C535.373,318.663,533.875,319.509,532.356,320.328z"/>
				<path style="fill:#C6C6F7;" d="M547.09,310.875l0.53,1.008c1.429-1.104,2.809-2.237,4.102-3.369l-0.578-0.969
					C549.867,308.663,548.502,309.784,547.09,310.875z"/>
				<path style="fill:#C6C6F7;" d="M548.677,203.604c1.266,1.419,2.418,2.769,3.522,4.129l0.703-0.838
					c-1.115-1.374-2.278-2.737-3.555-4.169L548.677,203.604z"/>
				<path style="fill:#C6C6F7;" d="M542.389,196.94c1.26,1.278,2.508,2.566,3.735,3.874l0.651-0.896
					c-1.232-1.315-2.486-2.611-3.754-3.896L542.389,196.94z"/>
				<path style="fill:#C6C6F7;" d="M553.874,305.037l0.614,0.934c1.325-1.279,2.59-2.599,3.762-3.92l-0.672-0.875
					C556.426,302.477,555.179,303.776,553.874,305.037z"/>
				<path style="fill:#C6C6F7;" d="M333.692,66.647l0.365,1.111c1.507-0.728,3.04-1.506,4.553-2.31l-0.396-1.095
					C336.711,65.154,335.188,65.925,333.692,66.647z"/>
				<path style="fill:#C6C6F7;" d="M130.19,13.327c1.423,0.816,2.898,1.707,4.384,2.652l0.458-1.059
					c-1.498-0.951-2.985-1.851-4.421-2.674L130.19,13.327z"/>
				<path style="fill:#C6C6F7;" d="M137.595,17.953c1.372,0.923,2.803,1.92,4.254,2.963l0.503-1.027
					c-1.458-1.05-2.898-2.053-4.279-2.982L137.595,17.953z"/>
				<path style="fill:#C6C6F7;" d="M122.533,9.386c1.485,0.675,3.011,1.423,4.535,2.223l0.393-1.097
					c-1.541-0.809-3.082-1.564-4.582-2.245L122.533,9.386z"/>
				<path style="fill:#C6C6F7;" d="M144.793,23.072c1.369,1.021,2.755,2.077,4.16,3.167l0.532-1.006
					c-1.411-1.095-2.8-2.156-4.175-3.179L144.793,23.072z"/>
				<path style="fill:#C6C6F7;" d="M114.618,6.294c1.562,0.512,3.138,1.087,4.684,1.709l0.31-1.134
					c-1.563-0.629-3.156-1.21-4.735-1.727L114.618,6.294z"/>
				<polygon style="fill:#C6C6F7;" points="165.735,39.797 169.811,43.146 170.364,42.157 166.29,38.807 				"/>
				<path style="fill:#C6C6F7;" d="M151.84,28.506c1.345,1.066,2.711,2.16,4.103,3.285l0.547-0.994
					c-1.394-1.127-2.763-2.224-4.111-3.291L151.84,28.506z"/>
				<path style="fill:#C6C6F7;" d="M158.805,34.115c1.334,1.086,2.691,2.2,4.077,3.339l0.553-0.99
					c-1.386-1.139-2.745-2.252-4.079-3.341L158.805,34.115z"/>
				<path style="fill:#C6C6F7;" d="M309.736,75.18l0.191,1.172c1.613-0.384,3.236-0.806,4.827-1.255l-0.223-1.165
					C312.951,74.378,311.338,74.798,309.736,75.18z"/>
				<path style="fill:#C6C6F7;" d="M106.501,4.125c1.609,0.336,3.223,0.728,4.797,1.165l0.22-1.165
					c-1.591-0.442-3.222-0.838-4.849-1.179L106.501,4.125z"/>
				<path style="fill:#C6C6F7;" d="M57.151,8.833l0.395,1.095c1.488-0.787,3.017-1.524,4.543-2.192l-0.335-1.125
					C60.207,7.287,58.659,8.036,57.151,8.833z"/>
				<path style="fill:#C6C6F7;" d="M49.634,13.42l0.491,1.036c1.395-0.973,2.847-1.912,4.316-2.787l-0.435-1.071
					C52.518,11.484,51.048,12.434,49.634,13.42z"/>
				<path style="fill:#C6C6F7;" d="M173.218,44.494l-0.551,0.99c1.172,0.959,2.365,1.932,3.58,2.92l0.513,0.412l0.541-0.999
					l-0.506-0.406C175.582,46.424,174.389,45.451,173.218,44.494z"/>
				<path style="fill:#C6C6F7;" d="M65.038,5.271l0.293,1.141c1.549-0.585,3.134-1.116,4.713-1.578l-0.231-1.162
					C68.213,4.141,66.606,4.679,65.038,5.271z"/>
				<path style="fill:#C6C6F7;" d="M98.248,2.836c1.657,0.176,3.294,0.397,4.865,0.656l0.133-1.183
					c-1.587-0.263-3.239-0.485-4.912-0.663L98.248,2.836z"/>
				<path style="fill:#C6C6F7;" d="M89.93,2.318c1.665,0.036,3.312,0.11,4.897,0.219l0.056-1.193
					c-1.598-0.111-3.258-0.186-4.936-0.222L89.93,2.318z"/>
				<path style="fill:#C6C6F7;" d="M81.537,1.389l0.079,1.19c1.628-0.159,3.272-0.252,4.885-0.278l-0.013-1.195
					C84.853,1.132,83.187,1.227,81.537,1.389z"/>
				<path style="fill:#C6C6F7;" d="M73.198,2.776l0.189,1.174c1.598-0.377,3.222-0.693,4.827-0.941l-0.123-1.186
					C76.463,2.073,74.818,2.394,73.198,2.776z"/>
				<path style="fill:#C6C6F7;" d="M259.761,79.026c1.648,0.17,3.292,0.32,4.931,0.446l0.064-1.193
					c-1.633-0.126-3.27-0.273-4.91-0.444L259.761,79.026z"/>
				<path style="fill:#C6C6F7;" d="M277.871,78.793l-1.329-0.006l-0.006,1.195l1.335,0.006c1.207,0,2.407-0.014,3.603-0.041
					l-0.018-1.195C280.267,78.779,279.072,78.793,277.871,78.793z"/>
				<path style="fill:#C6C6F7;" d="M268.144,79.703c1.652,0.096,3.298,0.167,4.934,0.216l0.025-1.195
					c-1.629-0.049-3.268-0.12-4.913-0.214L268.144,79.703z"/>
				<path style="fill:#C6C6F7;" d="M243.087,76.562c1.625,0.31,3.254,0.602,4.885,0.873l0.135-1.183
					c-1.625-0.271-3.248-0.56-4.865-0.871L243.087,76.562z"/>
				<path style="fill:#C6C6F7;" d="M179.691,51.061c1.362,1.001,2.808,2.004,4.295,2.981l0.47-1.05
					c-1.473-0.967-2.905-1.961-4.255-2.953L179.691,51.061z"/>
				<path style="fill:#C6C6F7;" d="M284.894,78.634l0.037,1.195c1.654-0.076,3.314-0.181,4.935-0.313l-0.066-1.193
					C288.188,78.455,286.537,78.56,284.894,78.634z"/>
				<path style="fill:#C6C6F7;" d="M301.514,76.85l0.137,1.183c1.64-0.278,3.28-0.588,4.877-0.922l-0.167-1.179
					C304.773,76.265,303.143,76.573,301.514,76.85z"/>
				<path style="fill:#C6C6F7;" d="M294.612,77.842c-0.459,0.055-0.923,0.108-1.386,0.158l0.087,1.19
					c0.467-0.05,0.932-0.103,1.395-0.157c1.19-0.142,2.361-0.297,3.515-0.463l-0.116-1.186
					C296.96,77.548,295.795,77.702,294.612,77.842z"/>
				<path style="fill:#C6C6F7;" d="M251.402,77.973c1.637,0.243,3.275,0.463,4.911,0.664l0.1-1.188
					c-1.63-0.201-3.26-0.421-4.891-0.662L251.402,77.973z"/>
				<path style="fill:#C6C6F7;" d="M194.68,60.275c1.494,0.775,3.033,1.538,4.576,2.268l0.358-1.113
					c-1.532-0.725-3.061-1.483-4.545-2.254L194.68,60.275z"/>
				<path style="fill:#C6C6F7;" d="M202.488,64.031c1.534,0.683,3.102,1.353,4.661,1.988l0.314-1.132
					c-1.55-0.633-3.11-1.298-4.634-1.977L202.488,64.031z"/>
				<path style="fill:#C6C6F7;" d="M187.057,55.985c1.433,0.875,2.933,1.747,4.459,2.594l0.41-1.088
					c-1.516-0.84-3.004-1.706-4.426-2.573L187.057,55.985z"/>
				<path style="fill:#C6C6F7;" d="M234.827,74.798c1.612,0.379,3.23,0.74,4.853,1.081l0.168-1.179
					c-1.616-0.339-3.228-0.697-4.832-1.076L234.827,74.798z"/>
				<path style="fill:#C6C6F7;" d="M226.63,72.68c1.596,0.449,3.201,0.878,4.815,1.288l0.202-1.169
					c-1.607-0.409-3.206-0.837-4.794-1.284L226.63,72.68z"/>
				<path style="fill:#C6C6F7;" d="M218.49,70.194c1.58,0.522,3.174,1.025,4.78,1.509l0.239-1.16
					c-1.6-0.482-3.186-0.983-4.759-1.502L218.49,70.194z"/>
				<path style="fill:#C6C6F7;" d="M210.436,67.321c1.558,0.598,3.134,1.176,4.727,1.739l0.275-1.148
					c-1.585-0.558-3.153-1.134-4.704-1.729L210.436,67.321z"/>
			</g>
			<g>
				<path style="fill:#C6C6F7;" d="M540.58,67.326c0.873,0.259,1.746,0.533,2.62,0.821l-0.284,1.26
					c-0.864-0.285-1.728-0.557-2.593-0.813L540.58,67.326z"/>
				<path style="fill:#C6C6F7;" d="M-19.272,425.914c0.488,2.161,1.052,4.265,1.677,6.252l1.007-0.464
					c-0.612-1.948-1.165-4.012-1.644-6.132L-19.272,425.914z"/>
				<path style="fill:#C6C6F7;" d="M-23.57,337.412l-1.039,0.347c0.461,2.026,0.857,4.146,1.177,6.301l1.06-0.232
					C-22.698,341.634-23.1,339.476-23.57,337.412z"/>
				<path style="fill:#C6C6F7;" d="M-27.776,327.503c0.76,1.892,1.45,3.892,2.049,5.946l1.016-0.436
					c-0.614-2.1-1.319-4.146-2.097-6.081L-27.776,327.503z"/>
				<path style="fill:#C6C6F7;" d="M-21.115,381.694l-1.077-0.018c-0.024,2.17-0.045,4.349-0.055,6.526l1.077,0.008
					C-21.161,386.035-21.14,383.86-21.115,381.694z"/>
				<path style="fill:#C6C6F7;" d="M-21.168,392.767l-1.077,0.008c0.01,2.185,0.041,4.365,0.099,6.538l1.077-0.043
					C-21.127,397.109-21.158,394.939-21.168,392.767z"/>
				<path style="fill:#C6C6F7;" d="M-20.035,414.789l-1.067,0.184c0.261,2.234,0.576,4.41,0.937,6.466l1.054-0.273
					C-19.466,419.14-19.778,416.994-20.035,414.789z"/>
				<path style="fill:#C6C6F7;" d="M-32.374,318.045c0.992,1.786,1.946,3.63,2.835,5.481l0.93-0.658
					c-0.901-1.874-1.866-3.742-2.871-5.552L-32.374,318.045z"/>
				<path style="fill:#C6C6F7;" d="M-20.905,403.815l-1.075,0.074c0.106,2.269,0.248,4.466,0.422,6.528l1.071-0.133
					C-20.659,408.242-20.8,406.065-20.905,403.815z"/>
				<path style="fill:#C6C6F7;" d="M-21.695,349.516c-0.034-0.381-0.07-0.761-0.109-1.141l-1.069,0.163
					c0.039,0.372,0.074,0.745,0.107,1.119c0.153,1.683,0.281,3.478,0.38,5.336l1.075-0.084
					C-21.411,353.032-21.54,351.218-21.695,349.516z"/>
				<path style="fill:#C6C6F7;" d="M-77.099,153.636l0.631,1.058c1.395-1.221,2.885-2.445,4.428-3.637l-0.578-1.102
					C-74.179,151.162-75.687,152.4-77.099,153.636z"/>
				<path style="fill:#C6C6F7;" d="M-64.001,278.437l-0.682,1.01c1.039,1.033,2.085,2.064,3.134,3.098l1.037,1.024l0.68-1.012
					l-1.037-1.024C-61.917,280.499-62.962,279.468-64.001,278.437z"/>
				<path style="fill:#C6C6F7;" d="M-71.696,272.27c1.346,1.437,2.716,2.852,4.101,4.256l0.69-1.002
					c-1.377-1.396-2.74-2.803-4.08-4.233L-71.696,272.27z"/>
				<path style="fill:#C6C6F7;" d="M-47.895,135.309c-1.699,0.784-3.385,1.598-5.011,2.417l0.414,1.206
					c1.616-0.816,3.291-1.624,4.98-2.403L-47.895,135.309z"/>
				<path style="fill:#C6C6F7;" d="M-50.634,293.603c1.414,1.51,2.71,2.94,3.965,4.373l0.738-0.949
					c-1.262-1.445-2.568-2.885-3.99-4.404L-50.634,293.603z"/>
				<path style="fill:#C6C6F7;" d="M-44.352,133.722l0.364,1.229c1.687-0.734,3.384-1.439,5.084-2.12l-0.337-1.239
					C-40.951,132.275-42.656,132.985-44.352,133.722z"/>
				<path style="fill:#C6C6F7;" d="M-43.979,301.142c1.276,1.546,2.517,3.126,3.688,4.696l0.799-0.877
					c-1.183-1.583-2.437-3.18-3.726-4.741L-43.979,301.142z"/>
				<path style="fill:#C6C6F7;" d="M-37.834,309.26c1.149,1.661,2.261,3.372,3.305,5.085l0.867-0.775
					c-1.058-1.734-2.184-3.466-3.345-5.148L-37.834,309.26z"/>
				<path style="fill:#C6C6F7;" d="M-57.598,286.455c1.377,1.373,2.754,2.759,4.123,4.17l0.698-0.994
					c-1.376-1.417-2.757-2.807-4.138-4.183L-57.598,286.455z"/>
				<path style="fill:#C6C6F7;" d="M73.819,467.538l0.267,1.265c1.74-0.541,3.49-1.137,5.203-1.772l-0.316-1.249
					C77.277,466.411,75.542,467.002,73.819,467.538z"/>
				<path style="fill:#C6C6F7;" d="M115.445,445.442l0.526,1.14c1.581-1.071,3.141-2.142,4.685-3.208l-0.534-1.135
					C118.582,443.305,117.024,444.373,115.445,445.442z"/>
				<path style="fill:#C6C6F7;" d="M82.537,464.385l0.349,1.234c1.715-0.71,3.421-1.471,5.071-2.262l-0.396-1.214
					C85.928,462.926,84.237,463.68,82.537,464.385z"/>
				<path style="fill:#C6C6F7;" d="M55.903,471.375l0.104,1.3c1.77-0.209,3.575-0.474,5.367-0.788l-0.154-1.293
					C59.445,470.907,57.657,471.17,55.903,471.375z"/>
				<path style="fill:#C6C6F7;" d="M99.295,455.739l0.471,1.173c1.638-0.966,3.243-1.941,4.819-2.918l-0.491-1.163
					C102.525,453.807,100.927,454.776,99.295,455.739z"/>
				<path style="fill:#C6C6F7;" d="M91.924,459.917l-0.902,0.483l0.431,1.196l0.911-0.488c1.356-0.734,2.689-1.475,3.998-2.22
					l-0.456-1.183C94.6,458.447,93.274,459.185,91.924,459.917z"/>
				<path style="fill:#C6C6F7;" d="M107.428,450.729l0.503,1.155c1.606-1.028,3.186-2.06,4.741-3.092l-0.518-1.145
					C110.604,448.676,109.03,449.704,107.428,450.729z"/>
				<path style="fill:#C6C6F7;" d="M46.817,472.004l0.017,1.305c1.78-0.033,3.599-0.121,5.403-0.263l-0.069-1.303
					C50.38,471.884,48.58,471.971,46.817,472.004z"/>
				<path style="fill:#C6C6F7;" d="M10.848,465.5c1.647,0.841,3.352,1.624,5.068,2.328l0.345-1.237
					c-1.69-0.694-3.371-1.466-4.994-2.295L10.848,465.5z"/>
				<path style="fill:#C6C6F7;" d="M37.643,473.002c1.779,0.156,3.597,0.258,5.404,0.301l0.021-1.305
					c-1.787-0.043-3.587-0.143-5.347-0.298L37.643,473.002z"/>
				<path style="fill:#C6C6F7;" d="M-11.324,445.991c1.093,1.738,2.296,3.41,3.576,4.974l0.764-0.921
					c-1.247-1.522-2.419-3.153-3.484-4.844L-11.324,445.991z"/>
				<path style="fill:#C6C6F7;" d="M2.615,460.492c1.544,1.103,3.15,2.148,4.777,3.107l0.471-1.173
					c-1.6-0.945-3.182-1.974-4.701-3.059L2.615,460.492z"/>
				<path style="fill:#C6C6F7;" d="M-4.253,453.095l-0.694,0.997c0.967,0.989,1.992,1.951,3.048,2.858
					c0.43,0.37,0.865,0.732,1.301,1.089l0.602-1.084c-0.43-0.349-0.856-0.706-1.28-1.071C-2.308,454.999-3.309,454.06-4.253,453.095
					z"/>
				<path style="fill:#C6C6F7;" d="M28.512,471.661c1.749,0.363,3.552,0.673,5.359,0.918l0.12-1.298
					c-1.786-0.242-3.568-0.547-5.296-0.908L28.512,471.661z"/>
				<path style="fill:#C6C6F7;" d="M19.536,469.196c1.71,0.593,3.478,1.128,5.254,1.592l0.227-1.275
					c-1.754-0.459-3.498-0.988-5.185-1.572L19.536,469.196z"/>
				<path style="fill:#C6C6F7;" d="M-16.106,436.41c0.779,2.008,1.658,3.955,2.61,5.786l0.911-0.696
					c-0.929-1.786-1.785-3.686-2.547-5.645L-16.106,436.41z"/>
				<path style="fill:#C6C6F7;" d="M64.922,469.876l0.187,1.285c1.77-0.38,3.553-0.812,5.299-1.285l-0.236-1.275
					C68.443,469.07,66.677,469.5,64.922,469.876z"/>
				<path style="fill:#C6C6F7;" d="M496.837,355.739c-0.605-2.045-1.2-4.094-1.772-6.146l-1.02,0.418
					c0.574,2.06,1.172,4.117,1.779,6.169L496.837,355.739z"/>
				<path style="fill:#C6C6F7;" d="M497.634,362.214c0.443,1.467,0.886,2.932,1.323,4.393l1.012-0.444
					c-0.437-1.464-0.88-2.93-1.324-4.399l-0.524-1.736l-1.012,0.449L497.634,362.214z"/>
				<path style="fill:#C6C6F7;" d="M497.694,286.33l-0.907-0.706c-0.969,1.831-1.872,3.757-2.685,5.725l0.964,0.584
					C495.862,290.006,496.746,288.121,497.694,286.33z"/>
				<path style="fill:#C6C6F7;" d="M503.238,277.684l-0.789-0.887c-1.244,1.624-2.418,3.322-3.488,5.046l0.861,0.785
					C500.869,280.938,502.019,279.276,503.238,277.684z"/>
				<path style="fill:#C6C6F7;" d="M501.946,377.065l1.025-0.4c-0.546-2.054-1.128-4.121-1.729-6.195l-1.016,0.434
					C500.825,372.967,501.402,375.021,501.946,377.065z"/>
				<path style="fill:#C6C6F7;" d="M489.425,328.475c0.262,2.06,0.605,4.229,1.019,6.444l1.05-0.288
					c-0.408-2.186-0.746-4.323-1.004-6.354L489.425,328.475z"/>
				<path style="fill:#C6C6F7;" d="M493.525,296.039l-0.995-0.497c-0.677,1.989-1.288,4.073-1.817,6.199l1.031,0.377
					C492.263,300.033,492.863,297.988,493.525,296.039z"/>
				<path style="fill:#C6C6F7;" d="M490.029,323.788c-0.155-2.016-0.233-4.011-0.233-5.936l0.001-0.505l-1.077-0.01l-0.001,0.52
					c0,1.96,0.08,3.996,0.238,6.051L490.029,323.788z"/>
				<path style="fill:#C6C6F7;" d="M490.79,306.483l-1.052-0.283c-0.387,2.116-0.667,4.311-0.832,6.524l1.073,0.117
					C490.14,310.684,490.413,308.544,490.79,306.483z"/>
				<path style="fill:#C6C6F7;" d="M602.607,131.784c-0.452-2.102-0.999-4.216-1.626-6.282l-1.011,0.451
					c0.614,2.026,1.152,4.098,1.596,6.159L602.607,131.784z"/>
				<path style="fill:#C6C6F7;" d="M506.954,398.406c-0.169-2.157-0.415-4.348-0.732-6.511l-1.06,0.227
					c0.311,2.129,0.553,4.285,0.719,6.407L506.954,398.406z"/>
				<path style="fill:#C6C6F7;" d="M599.549,121.235c-0.725-1.972-1.542-3.95-2.432-5.881l-0.94,0.637
					c0.874,1.896,1.677,3.839,2.388,5.774L599.549,121.235z"/>
				<path style="fill:#C6C6F7;" d="M603.117,142.919l1.073-0.117c-0.162-2.18-0.414-4.373-0.749-6.52l-1.058,0.242
					C602.711,138.629,602.958,140.781,603.117,142.919z"/>
				<path style="fill:#C6C6F7;" d="M583.298,94.39c-1.31-1.466-2.689-2.909-4.098-4.29l-0.678,1.015
					c1.392,1.363,2.753,2.788,4.046,4.234L583.298,94.39z"/>
				<path style="fill:#C6C6F7;" d="M503.05,381.411c0.534,2.224,0.98,4.275,1.362,6.273l1.05-0.296
					c-0.387-2.021-0.837-4.095-1.378-6.342L503.05,381.411z"/>
				<path style="fill:#C6C6F7;" d="M576.198,87.29c-1.437-1.286-2.934-2.543-4.448-3.737l-0.587,1.094
					c1.497,1.181,2.976,2.422,4.396,3.693L576.198,87.29z"/>
				<path style="fill:#C6C6F7;" d="M-78.39,264.648c1.218,1.501,2.489,2.99,3.884,4.554l0.732-0.959
					c-1.383-1.55-2.641-3.025-3.848-4.511L-78.39,264.648z"/>
				<path style="fill:#C6C6F7;" d="M568.533,81.126c-1.536-1.107-3.125-2.18-4.725-3.194l-0.499,1.158
					c1.582,1.002,3.155,2.064,4.672,3.158L568.533,81.126z"/>
				<path style="fill:#C6C6F7;" d="M-96.746,226.626c0.46,2.135,0.987,4.245,1.567,6.273l1.018-0.428
					c-0.572-1.995-1.091-4.072-1.544-6.173L-96.746,226.626z"/>
				<path style="fill:#C6C6F7;" d="M-93.833,237.191c0.69,2.021,1.457,4.023,2.277,5.949l0.957-0.599
					c-0.807-1.895-1.561-3.862-2.239-5.849L-93.833,237.191z"/>
				<path style="fill:#C6C6F7;" d="M-98.237,204.566l-1.077,0.051c0.073,2.225,0.193,4.423,0.358,6.531l1.073-0.122
					C-98.047,208.94-98.166,206.766-98.237,204.566z"/>
				<path style="fill:#C6C6F7;" d="M-21.009,370.602l-1.077-0.008c-0.009,2.157-0.031,4.332-0.055,6.516l1.077,0.018
					C-21.04,374.939-21.019,372.762-21.009,370.602z"/>
				<path style="fill:#C6C6F7;" d="M-97.455,215.524l-1.067,0.178c0.248,2.187,0.555,4.358,0.914,6.455l1.054-0.265
					C-96.906,219.824-97.21,217.682-97.455,215.524z"/>
				<path style="fill:#C6C6F7;" d="M-84.232,160.697l0.734,0.956c1.259-1.422,2.621-2.841,4.047-4.219l-0.671-1.02
					C-81.57,157.812-82.952,159.253-84.232,160.697z"/>
				<path style="fill:#C6C6F7;" d="M-89.718,247.158c0.907,1.852,1.9,3.702,2.953,5.497l0.877-0.755
					c-1.035-1.767-2.012-3.586-2.904-5.408L-89.718,247.158z"/>
				<path style="fill:#C6C6F7;" d="M-84.49,256.327c1.08,1.654,2.259,3.335,3.503,4.995l0.797-0.877
					c-1.228-1.64-2.39-3.297-3.456-4.929L-84.49,256.327z"/>
				<path style="fill:#C6C6F7;" d="M-86.152,164.831l-0.781-0.898c-1.274,1.627-2.466,3.303-3.541,4.984l0.85,0.801
					C-88.568,168.071-87.401,166.428-86.152,164.831z"/>
				<path style="fill:#C6C6F7;" d="M-30.172,129.572l-0.299-1.254c-1.721,0.6-3.447,1.225-5.171,1.875l0.32,1.247
					C-33.605,130.792-31.887,130.17-30.172,129.572z"/>
				<path style="fill:#C6C6F7;" d="M-55.944,140.73l-0.438-1.193c-1.672,0.901-3.32,1.833-4.899,2.769l0.473,1.173
					C-59.24,142.549-57.604,141.625-55.944,140.73z"/>
				<path style="fill:#C6C6F7;" d="M-21.345,126.703l-0.263-1.267c-1.73,0.527-3.473,1.076-5.223,1.651l0.282,1.26
					C-24.806,127.774-23.069,127.227-21.345,126.703z"/>
				<path style="fill:#C6C6F7;" d="M-21.124,359.486l-1.077,0.049c0.06,2.009,0.097,4.137,0.111,6.502l1.077-0.01
					C-21.027,363.648-21.064,361.509-21.124,359.486z"/>
				<path style="fill:#C6C6F7;" d="M-95.885,183.072l-1.008-0.462c-0.641,2.053-1.167,4.175-1.561,6.308l1.052,0.286
					C-97.019,187.131-96.509,185.068-95.885,183.072z"/>
				<path style="fill:#C6C6F7;" d="M-98.32,199.371c0-1.934,0.097-3.868,0.287-5.747l-1.069-0.158
					c-0.197,1.932-0.296,3.918-0.296,5.906l0.001,0.662l1.077-0.008L-98.32,199.371z"/>
				<path style="fill:#C6C6F7;" d="M-64.154,145.535l-0.501-1.155c-1.623,1.034-3.215,2.104-4.73,3.181l0.545,1.127
					C-67.339,147.621-65.762,146.56-64.154,145.535z"/>
				<path style="fill:#C6C6F7;" d="M-91.786,173.384l-0.901-0.717c-1.009,1.863-1.916,3.787-2.697,5.717l0.968,0.574
					C-93.655,177.077-92.771,175.2-91.786,173.384z"/>
				<path style="fill:#C6C6F7;" d="M254.58,407.368c1.776,0.296,3.548,0.612,5.315,0.951l0.168-1.29
					c-1.776-0.339-3.554-0.658-5.336-0.954L254.58,407.368z"/>
				<path style="fill:#C6C6F7;" d="M506.123,403.045c0.026,0.901,0.04,1.799,0.04,2.693c0,1.26-0.026,2.527-0.078,3.769l1.075,0.066
					c0.054-1.264,0.08-2.554,0.08-3.835c0-0.909-0.014-1.822-0.04-2.738L506.123,403.045z"/>
				<path style="fill:#C6C6F7;" d="M502.487,430.946l1.012,0.449c0.62-2.056,1.171-4.164,1.637-6.265l-1.039-0.339
					C503.638,426.855,503.096,428.925,502.487,430.946z"/>
				<path style="fill:#C6C6F7;" d="M504.951,420.389l1.056,0.26c0.358-2.129,0.643-4.313,0.845-6.492l-1.071-0.145
					C505.583,416.151,505.304,418.297,504.951,420.389z"/>
				<path style="fill:#C6C6F7;" d="M493.899,450.227l0.869,0.773c1.072-1.767,2.092-3.598,3.033-5.441l-0.915-0.686
					C495.959,446.685,494.954,448.486,493.899,450.227z"/>
				<path style="fill:#C6C6F7;" d="M498.758,440.957l0.947,0.622c0.864-1.937,1.664-3.924,2.378-5.908l-0.987-0.523
					C500.393,437.1,499.607,439.054,498.758,440.957z"/>
				<path style="fill:#C6C6F7;" d="M520.076,260.565l0.526,1.14c1.489-1.011,3.082-2.032,4.734-3.034l-0.482-1.168
					C523.187,258.515,521.579,259.545,520.076,260.565z"/>
				<path style="fill:#C6C6F7;" d="M505.127,273.53l0.738,0.951c1.26-1.439,2.619-2.857,4.038-4.216l-0.667-1.025
					C507.793,270.623,506.409,272.066,505.127,273.53z"/>
				<path style="fill:#C6C6F7;" d="M512.278,266.487l0.623,1.066c1.401-1.2,2.904-2.397,4.468-3.556l-0.562-1.114
					C515.223,264.057,513.699,265.269,512.278,266.487z"/>
				<path style="fill:#C6C6F7;" d="M474.055,472.528l0.581,1.099c1.521-1.179,3.022-2.43,4.458-3.716l-0.64-1.051
					C477.036,470.13,475.556,471.364,474.055,472.528z"/>
				<path style="fill:#C6C6F7;" d="M449.102,485.387l0.253,1.27c1.747-0.513,3.503-1.1,5.216-1.747l-0.32-1.247
					C452.559,484.302,450.827,484.882,449.102,485.387z"/>
				<path style="fill:#C6C6F7;" d="M466.147,477.919l0.475,1.17c1.625-0.968,3.231-2.005,4.776-3.083l-0.536-1.132
					C469.337,475.938,467.751,476.963,466.147,477.919z"/>
				<path style="fill:#C6C6F7;" d="M457.793,482.217l0.366,1.229c1.69-0.74,3.381-1.557,5.028-2.427l-0.431-1.196
					C461.13,480.682,459.46,481.488,457.793,482.217z"/>
				<path style="fill:#C6C6F7;" d="M492.396,339.034l-1.04,0.339c0.446,2.013,0.941,4.068,1.517,6.284l1.027-0.393
					C493.33,343.068,492.838,341.03,492.396,339.034z"/>
				<path style="fill:#C6C6F7;" d="M440.177,487.381l0.135,1.295c1.778-0.273,3.576-0.623,5.345-1.04l-0.206-1.283
					C443.704,486.765,441.93,487.111,440.177,487.381z"/>
				<path style="fill:#C6C6F7;" d="M488.063,458.631l0.778,0.903c1.254-1.587,2.465-3.238,3.596-4.907l-0.831-0.829
					C490.491,455.441,489.299,457.068,488.063,458.631z"/>
				<path style="fill:#C6C6F7;" d="M528.257,255.506l0.457,1.183c1.555-0.882,3.155-1.757,4.892-2.672l-0.429-1.197
					C531.43,253.74,529.82,254.619,528.257,255.506z"/>
				<path style="fill:#C6C6F7;" d="M481.403,466.084l0.682,1.011c1.404-1.391,2.773-2.847,4.068-4.328l-0.738-0.949
					C484.137,463.278,482.787,464.712,481.403,466.084z"/>
				<path style="fill:#C6C6F7;" d="M544.963,246.499l0.484,1.165c1.587-0.968,3.191-2.008,4.769-3.092l-0.53-1.135
					C548.123,244.51,546.535,245.54,544.963,246.499z"/>
				<path style="fill:#C6C6F7;" d="M589.677,102.437c-1.151-1.646-2.38-3.277-3.655-4.849l-0.768,0.915
					c1.256,1.549,2.468,3.157,3.602,4.777L589.677,102.437z"/>
				<path style="fill:#C6C6F7;" d="M538.09,250.305l-1.438,0.72l0.414,1.206l1.433-0.718c1.174-0.585,2.363-1.211,3.534-1.863
					l-0.448-1.186C540.427,249.108,539.25,249.728,538.09,250.305z"/>
				<path style="fill:#C6C6F7;" d="M591.545,195.12l0.917,0.683c0.95-1.869,1.86-3.78,2.704-5.681l-0.949-0.62
					C593.383,191.382,592.484,193.271,591.545,195.12z"/>
				<path style="fill:#C6C6F7;" d="M586.441,204.238l0.865,0.78c1.082-1.763,2.13-3.564,3.115-5.351l-0.896-0.724
					C588.55,200.712,587.513,202.494,586.441,204.238z"/>
				<path style="fill:#C6C6F7;" d="M595.925,185.464l0.97,0.571c0.793-1.981,1.537-3.997,2.21-5.991l-0.997-0.495
					C597.443,181.518,596.709,183.508,595.925,185.464z"/>
				<path style="fill:#C6C6F7;" d="M604.405,147.402l-1.077,0.031c0.011,0.535,0.016,1.071,0.016,1.608
					c0,1.592-0.046,3.222-0.138,4.845l1.075,0.089c0.092-1.652,0.14-3.312,0.14-4.934
					C604.421,148.493,604.416,147.947,604.405,147.402z"/>
				<path style="fill:#C6C6F7;" d="M599.44,175.314l1.016,0.436c0.609-2.09,1.155-4.197,1.622-6.266l-1.039-0.344
					C600.578,171.177,600.041,173.255,599.44,175.314z"/>
				<path style="fill:#C6C6F7;" d="M601.926,164.742l1.053,0.275c0.384-2.158,0.695-4.336,0.926-6.47l-1.069-0.168
					C602.609,160.477,602.303,162.618,601.926,164.742z"/>
				<path style="fill:#C6C6F7;" d="M595.165,111.408c-0.957-1.812-2.004-3.623-3.11-5.384l-0.856,0.79
					c1.088,1.734,2.118,3.516,3.06,5.297L595.165,111.408z"/>
				<path style="fill:#C6C6F7;" d="M552.918,241.13l0.562,1.114c1.522-1.127,3.053-2.319,4.549-3.544l-0.603-1.081
					C555.943,238.831,554.426,240.013,552.918,241.13z"/>
				<path style="fill:#C6C6F7;" d="M546.512,70.683c1.686,0.637,3.391,1.342,5.065,2.093l0.374-1.224
					c-1.693-0.758-3.414-1.471-5.117-2.116L546.512,70.683z"/>
				<path style="fill:#C6C6F7;" d="M555.066,74.432c1.635,0.819,3.281,1.702,4.891,2.63l0.463-1.181
					c-1.628-0.936-3.292-1.829-4.944-2.656L555.066,74.432z"/>
				<path style="fill:#C6C6F7;" d="M431.124,488.153l0.015,1.306c1.785-0.028,3.605-0.131,5.408-0.309l-0.086-1.3
					C434.682,488.023,432.886,488.125,431.124,488.153z"/>
				<path style="fill:#C6C6F7;" d="M560.5,235.016l0.631,1.058c1.445-1.264,2.897-2.592,4.313-3.949l-0.667-1.025
					C563.373,232.446,561.934,233.763,560.5,235.016z"/>
				<path style="fill:#C6C6F7;" d="M574.445,220.806l0.753,0.933c1.292-1.53,2.565-3.104,3.784-4.68l-0.787-0.893
					C576.987,217.728,575.725,219.289,574.445,220.806z"/>
				<path style="fill:#C6C6F7;" d="M567.691,228.222l0.692,0.999c1.377-1.402,2.744-2.858,4.064-4.328l-0.728-0.961
					C570.41,225.389,569.054,226.833,567.691,228.222z"/>
				<path style="fill:#C6C6F7;" d="M580.714,212.803l0.808,0.862c1.19-1.637,2.357-3.326,3.472-5.019l-0.841-0.813
					C583.048,209.509,581.891,211.18,580.714,212.803z"/>
				<path style="fill:#C6C6F7;" d="M324.114,432.778c1.609,1.057,3.174,2.142,4.648,3.226l0.557-1.117
					c-1.488-1.094-3.067-2.189-4.693-3.256L324.114,432.778z"/>
				<path style="fill:#C6C6F7;" d="M227.273,404.667c1.78,0.053,3.57,0.131,5.367,0.233l0.05-1.303
					c-1.805-0.105-3.603-0.182-5.39-0.236L227.273,404.667z"/>
				<path style="fill:#C6C6F7;" d="M236.392,405.153c1.784,0.138,3.572,0.298,5.364,0.484l0.093-1.3
					c-1.8-0.186-3.596-0.349-5.387-0.487L236.392,405.153z"/>
				<path style="fill:#C6C6F7;" d="M218.128,403.331l0.02,1.306c1.299-0.029,2.604-0.045,3.916-0.045l1.451,0.006l0.006-1.305
					l-1.458-0.006C220.746,403.286,219.434,403.301,218.128,403.331z"/>
				<path style="fill:#C6C6F7;" d="M208.961,403.801l0.072,1.303c1.761-0.143,3.564-0.258,5.359-0.339l-0.04-1.306
					C212.545,403.542,210.732,403.657,208.961,403.801z"/>
				<path style="fill:#C6C6F7;" d="M281.452,413.604c1.748,0.527,3.481,1.074,5.199,1.641l0.284-1.26
					c-1.726-0.57-3.467-1.119-5.222-1.648L281.452,413.604z"/>
				<path style="fill:#C6C6F7;" d="M272.56,411.14c1.756,0.446,3.503,0.914,5.237,1.402l0.244-1.272
					c-1.743-0.491-3.496-0.959-5.26-1.408L272.56,411.14z"/>
				<path style="fill:#C6C6F7;" d="M245.505,406.06c1.781,0.219,3.562,0.46,5.344,0.723l0.13-1.295
					c-1.788-0.265-3.577-0.506-5.365-0.725L245.505,406.06z"/>
				<path style="fill:#C6C6F7;" d="M203.67,404.33c-1.3,0.156-2.579,0.324-3.839,0.506l0.126,1.295
					c1.254-0.18,2.527-0.348,3.818-0.501c0.502-0.06,1.008-0.117,1.514-0.172l-0.095-1.3
					C204.684,404.213,204.176,404.27,203.67,404.33z"/>
				<path style="fill:#C6C6F7;" d="M263.602,409.063c1.765,0.37,3.526,0.761,5.278,1.176l0.206-1.283
					c-1.761-0.414-3.528-0.808-5.301-1.181L263.602,409.063z"/>
				<path style="fill:#C6C6F7;" d="M147.412,423.893l0.482,1.168c1.638-0.991,3.262-1.94,4.829-2.823l-0.454-1.183
					C150.693,421.942,149.059,422.897,147.412,423.893z"/>
				<path style="fill:#C6C6F7;" d="M139.292,429.044l0.516,1.145c1.569-1.038,3.146-2.058,4.736-3.06l-0.497-1.158
					C142.451,426.976,140.868,428.001,139.292,429.044z"/>
				<path style="fill:#C6C6F7;" d="M155.71,419.169l0.432,1.196c1.643-0.873,3.306-1.716,4.941-2.505l-0.399-1.214
					C159.039,417.442,157.364,418.291,155.71,419.169z"/>
				<path style="fill:#C6C6F7;" d="M190.758,406.429l0.183,1.288c1.734-0.363,3.514-0.7,5.294-1.002l-0.149-1.293
					C194.295,405.725,192.502,406.064,190.758,406.429z"/>
				<path style="fill:#C6C6F7;" d="M131.315,434.454l0.534,1.135c1.559-1.081,3.115-2.148,4.671-3.201l-0.525-1.14
					C134.436,432.304,132.877,433.373,131.315,434.454z"/>
				<path style="fill:#C6C6F7;" d="M181.772,408.629l0.244,1.272c1.725-0.487,3.487-0.946,5.237-1.363l-0.208-1.28
					C185.283,407.678,183.51,408.14,181.772,408.629z"/>
				<path style="fill:#C6C6F7;" d="M172.909,411.483l0.309,1.252c1.701-0.617,3.436-1.205,5.157-1.748l-0.271-1.263
					C176.371,410.27,174.623,410.862,172.909,411.483z"/>
				<path style="fill:#C6C6F7;" d="M164.212,415.008l0.372,1.224c1.69-0.755,3.391-1.474,5.057-2.137l-0.337-1.241
					C167.627,413.522,165.914,414.247,164.212,415.008z"/>
				<polygon style="fill:#C6C6F7;" points="123.389,439.972 123.925,441.104 128.585,437.855 128.049,436.723 				"/>
				<path style="fill:#C6C6F7;" d="M378.106,474.369c1.637,1.039,3.261,2.022,4.829,2.921l0.461-1.181
					c-1.555-0.891-3.166-1.865-4.789-2.897L378.106,474.369z"/>
				<path style="fill:#C6C6F7;" d="M386.378,479.184c1.683,0.883,3.367,1.708,5.006,2.453l0.378-1.223
					c-1.622-0.737-3.289-1.554-4.954-2.429L386.378,479.184z"/>
				<path style="fill:#C6C6F7;" d="M370.11,468.94c1.592,1.147,3.166,2.243,4.675,3.258l0.522-1.142
					c-1.499-1.008-3.062-2.097-4.647-3.237L370.11,468.94z"/>
				<path style="fill:#C6C6F7;" d="M362.318,463.102c1.541,1.196,3.059,2.355,4.561,3.473l0.564-1.112
					c-1.496-1.115-3.009-2.269-4.544-3.46L362.318,463.102z"/>
				<path style="fill:#C6C6F7;" d="M403.795,486.162c1.738,0.483,3.52,0.915,5.297,1.288l0.183-1.288
					c-1.758-0.367-3.521-0.796-5.241-1.272L403.795,486.162z"/>
				<path style="fill:#C6C6F7;" d="M290.268,416.479c1.732,0.609,3.445,1.239,5.139,1.889l0.326-1.244
					c-1.702-0.653-3.424-1.285-5.164-1.9L290.268,416.479z"/>
				<path style="fill:#C6C6F7;" d="M394.952,483.165c1.707,0.687,3.448,1.322,5.173,1.887l0.282-1.26
					c-1.706-0.56-3.428-1.187-5.116-1.867L394.952,483.165z"/>
				<path style="fill:#C6C6F7;" d="M354.665,457.025c1.523,1.232,3.019,2.43,4.491,3.595l0.589-1.093
					c-1.469-1.164-2.961-2.36-4.482-3.589L354.665,457.025z"/>
				<path style="fill:#C6C6F7;" d="M412.831,488.146c1.733,0.287,3.539,0.53,5.366,0.724l0.095-1.301
					c-1.81-0.193-3.598-0.434-5.315-0.716L412.831,488.146z"/>
				<path style="fill:#C6C6F7;" d="M307.556,423.56c1.674,0.792,3.344,1.62,4.965,2.462l0.425-1.201
					c-1.633-0.847-3.314-1.68-4.999-2.477L307.556,423.56z"/>
				<path style="fill:#C6C6F7;" d="M298.981,419.784c1.693,0.691,3.398,1.418,5.063,2.16l0.372-1.225
					c-1.676-0.746-3.388-1.478-5.092-2.171L298.981,419.784z"/>
				<path style="fill:#C6C6F7;" d="M315.953,427.862c1.656,0.918,3.282,1.864,4.836,2.811l0.484-1.165
					c-1.565-0.956-3.204-1.909-4.871-2.834L315.953,427.862z"/>
				<path style="fill:#C6C6F7;" d="M332.521,437.34l-0.591,1.091l0.552,0.444c1.325,1.079,2.629,2.141,3.909,3.186l0.602-1.081
					c-1.28-1.048-2.583-2.11-3.911-3.19L332.521,437.34z"/>
				<polygon style="fill:#C6C6F7;" points="339.509,444.614 343.96,448.273 344.566,447.192 340.113,443.533 				"/>
				<path style="fill:#C6C6F7;" d="M347.079,450.833c1.514,1.244,2.999,2.461,4.456,3.65l0.602-1.084
					c-1.457-1.187-2.94-2.403-4.454-3.648L347.079,450.833z"/>
				<path style="fill:#C6C6F7;" d="M421.966,489.199c1.745,0.121,3.56,0.203,5.392,0.242l0.019-1.306
					c-1.819-0.04-3.619-0.12-5.35-0.24L421.966,489.199z"/>
			</g>
			<rect x="17.238" y="65.221" style="fill:#D9D9FF;" width="18.91" height="1.326"/>
			<rect x="36.148" y="75.74" style="fill:#D9D9FF;" width="18.91" height="1.326"/>
			<rect x="459.402" y="162.457" style="fill:#D9D9FF;" width="18.91" height="1.326"/>
			<rect x="447.398" y="172.975" style="fill:#D9D9FF;" width="18.91" height="1.326"/>
			<rect x="476.217" y="167.958" style="fill:#D9D9FF;" width="25.698" height="1.326"/>
			<rect x="326.869" y="451.621" style="fill:#D9D9FF;" width="13.607" height="1.326"/>
			<rect x="314.531" y="441.223" style="fill:#D9D9FF;" width="18.91" height="1.326"/>
			<rect x="95.284" y="41.128" style="fill:#D9D9FF;" width="18.91" height="1.326"/>
			<rect x="143.532" y="441.223" style="fill:#D9D9FF;" width="31.094" height="1.326"/>
			<rect x="181.196" y="441.223" style="fill:#D9D9FF;" width="16.141" height="1.326"/>
			<rect x="16.752" y="371.137" style="fill:#D9D9FF;" width="16.141" height="1.326"/>
			<path style="fill:#D9D9FF;" d="M199.177,367.755c-3.732,0-6.767-3.035-6.767-6.766c0-3.732,3.035-6.767,6.767-6.767
				c3.732,0,6.767,3.035,6.767,6.767C205.943,364.72,202.908,367.755,199.177,367.755z M199.177,355.548
				c-3,0-5.441,2.441-5.441,5.441s2.441,5.441,5.441,5.441c3,0,5.441-2.441,5.441-5.441S202.177,355.548,199.177,355.548z"/>
			<path style="fill:#D9D9FF;" d="M461.775,60.029c-3.73,0-6.765-3.035-6.765-6.767c0-3.731,3.035-6.766,6.765-6.766
				c3.732,0,6.767,3.035,6.767,6.766C468.542,56.994,465.507,60.029,461.775,60.029z M461.775,47.821
				c-2.999,0-5.439,2.441-5.439,5.441s2.441,5.441,5.439,5.441c3,0,5.441-2.441,5.441-5.441S464.775,47.821,461.775,47.821z"/>
			<path style="fill:#D9D9FF;" d="M187.057,49.826c-3.73,0-6.765-3.035-6.765-6.766c0-3.732,3.035-6.767,6.765-6.767
				c3.732,0,6.767,3.035,6.767,6.767C193.823,46.791,190.788,49.826,187.057,49.826z M187.057,37.618
				c-2.999,0-5.439,2.441-5.439,5.441s2.441,5.441,5.439,5.441c3,0,5.441-2.441,5.441-5.441S190.057,37.618,187.057,37.618z"/>
			<path style="fill:#D9D9FF;" d="M222.952,27.902c-2.041,0-3.701-1.66-3.701-3.699s1.66-3.699,3.701-3.699
				c2.039,0,3.699,1.66,3.699,3.699S224.991,27.902,222.952,27.902z M222.952,21.829c-1.309,0-2.375,1.064-2.375,2.373
				s1.066,2.373,2.375,2.373c1.309,0,2.373-1.064,2.373-2.373S224.261,21.829,222.952,21.829z"/>
			<path style="fill:#D9D9FF;" d="M288.712,378.329c-2.039,0-3.699-1.66-3.699-3.699c0-2.041,1.66-3.701,3.699-3.701
				c2.041,0,3.701,1.66,3.701,3.701C292.412,376.669,290.752,378.329,288.712,378.329z M288.712,372.255
				c-1.309,0-2.373,1.066-2.373,2.375c0,1.309,1.064,2.373,2.373,2.373c1.309,0,2.375-1.064,2.375-2.373
				C291.087,373.321,290.021,372.255,288.712,372.255z"/>
			<path style="fill:#D9D9FF;" d="M22.449,163.491c-2.039,0-3.699-1.66-3.699-3.699c0-2.039,1.66-3.699,3.699-3.699
				c2.039,0,3.699,1.66,3.699,3.699C26.148,161.831,24.488,163.491,22.449,163.491z M22.449,157.418
				c-1.309,0-2.373,1.064-2.373,2.373c0,1.309,1.064,2.373,2.373,2.373c1.309,0,2.373-1.064,2.373-2.373
				C24.822,158.482,23.758,157.418,22.449,157.418z"/>
			<path style="fill:#D9D9FF;" d="M207.492,474.2c-2.041,0-3.701-1.66-3.701-3.699c0-2.039,1.66-3.699,3.701-3.699
				c2.039,0,3.699,1.66,3.699,3.699C211.191,472.54,209.531,474.2,207.492,474.2z M207.492,468.127
				c-1.309,0-2.375,1.064-2.375,2.373c0,1.309,1.066,2.373,2.375,2.373c1.309,0,2.373-1.064,2.373-2.373
				C209.865,469.191,208.801,468.127,207.492,468.127z"/>
			<path style="fill:#D9D9FF;" d="M48.145,356.543c-2.039,0-3.699-1.66-3.699-3.699s1.66-3.699,3.699-3.699
				c2.039,0,3.699,1.66,3.699,3.699S50.184,356.543,48.145,356.543z M48.145,350.47c-1.309,0-2.373,1.064-2.373,2.373
				c0,1.309,1.064,2.373,2.373,2.373c1.309,0,2.373-1.064,2.373-2.373C50.518,351.534,49.454,350.47,48.145,350.47z"/>
			<g>
				<rect x="69.381" y="93.957" style="fill:#D9D9FF;" width="1.326" height="7.186"/>
				<rect x="66.451" y="96.887" style="fill:#D9D9FF;" width="7.186" height="1.326"/>
			</g>
			<g>
				<rect x="364.319" y="24.202" style="fill:#D9D9FF;" width="1.326" height="7.186"/>
				<rect x="361.389" y="27.132" style="fill:#D9D9FF;" width="7.186" height="1.326"/>
			</g>
			<g>
				<rect x="443.142" y="248.153" style="fill:#D9D9FF;" width="1.326" height="7.186"/>
				<rect x="440.212" y="251.083" style="fill:#D9D9FF;" width="7.186" height="1.326"/>
			</g>
			<g>
				<rect x="446.735" y="91.531" style="fill:#D9D9FF;" width="1.326" height="7.186"/>
				<rect x="443.805" y="94.461" style="fill:#D9D9FF;" width="7.186" height="1.326"/>
			</g>
			<g>
				<rect x="329.595" y="396.529" style="fill:#D9D9FF;" width="1.326" height="7.186"/>
				<rect x="326.665" y="399.46" style="fill:#D9D9FF;" width="7.186" height="1.326"/>
			</g>
			<g style="opacity:0.59;">
				<path style="fill:#C6C6F7;" d="M403.939,64.616c2.296-4.04,4.174-8.4,5.527-13.058c1.353-4.657,2.105-9.345,2.331-13.986
					l-12.771-1.768c0.105-4.308-0.385-8.552-1.404-12.636l12.093-4.516c-2.525-9.167-7.18-17.637-13.567-24.681l-10.294,7.789
					c-2.902-3.049-6.222-5.738-9.916-7.958l5.352-11.73c-4.04-2.296-8.4-4.174-13.058-5.527c-4.658-1.353-9.345-2.104-13.986-2.331
					l-1.769,12.771c-4.308-0.105-8.552,0.385-12.636,1.404l-4.516-12.093c-9.167,2.525-17.637,7.181-24.681,13.567l7.79,10.294
					c-3.049,2.902-5.738,6.222-7.958,9.916l-11.73-5.351c-2.296,4.04-4.174,8.4-5.527,13.058c-1.354,4.658-2.104,9.345-2.331,13.986
					l12.771,1.769c-0.105,4.308,0.386,8.552,1.405,12.636l-12.093,4.516c2.525,9.167,7.181,17.637,13.567,24.681l10.293-7.789
					c2.902,3.049,6.222,5.738,9.916,7.958l-5.351,11.73c4.04,2.296,8.4,4.174,13.057,5.528c4.658,1.353,9.345,2.104,13.987,2.331
					l1.768-12.771c4.309,0.106,8.552-0.385,12.636-1.404l4.516,12.093c9.167-2.525,17.637-7.181,24.681-13.567l-7.789-10.293
					c3.049-2.902,5.738-6.222,7.958-9.916L403.939,64.616z M342.819,64c-16.2-4.707-25.516-21.656-20.809-37.855
					c4.707-16.2,21.656-25.516,37.855-20.808c16.2,4.707,25.516,21.656,20.808,37.855C375.966,59.391,359.018,68.707,342.819,64z
					 M345.057,56.298c-11.946-3.471-18.816-15.969-15.345-27.916c3.471-11.946,15.97-18.816,27.916-15.345
					c11.946,3.471,18.816,15.969,15.345,27.916S357.003,59.77,345.057,56.298z"/>
			</g>
			<g style="opacity:0.59;">
				<path style="fill:#C6C6F7;" d="M322.458,468.434c-0.309-3.541-1.021-7.102-2.193-10.623c-1.172-3.521-2.735-6.798-4.609-9.819
					l-8.809,4.435c-1.806-2.758-3.958-5.217-6.374-7.346l5.652-8.097c-5.573-4.675-12.184-7.985-19.265-9.646l-3.097,9.377
					c-3.152-0.659-6.41-0.91-9.701-0.702l-1.727-9.711c-3.542,0.31-7.102,1.022-10.623,2.193c-3.521,1.171-6.798,2.735-9.819,4.609
					l4.435,8.809c-2.758,1.805-5.217,3.958-7.346,6.374l-8.097-5.652c-4.675,5.573-7.985,12.184-9.646,19.265l9.377,3.097
					c-0.659,3.152-0.91,6.41-0.702,9.701l-9.711,1.727c0.31,3.541,1.021,7.102,2.193,10.623c1.171,3.521,2.735,6.798,4.609,9.819
					l8.809-4.435c1.805,2.758,3.958,5.217,6.374,7.345l-5.652,8.097c5.573,4.675,12.184,7.985,19.265,9.646l3.097-9.376
					c3.152,0.659,6.41,0.91,9.701,0.703l1.727,9.71c3.541-0.31,7.102-1.021,10.623-2.193c3.521-1.172,6.798-2.735,9.819-4.609
					l-4.435-8.809c2.758-1.805,5.217-3.958,7.346-6.374l8.097,5.652c4.675-5.572,7.985-12.184,9.646-19.265l-9.376-3.097
					c0.659-3.152,0.909-6.41,0.703-9.7L322.458,468.434z M282.539,491.087c-10.304,3.429-21.437-2.145-24.866-12.449
					c-3.429-10.304,2.145-21.437,12.449-24.865c10.304-3.429,21.437,2.145,24.865,12.449
					C298.417,476.526,292.843,487.659,282.539,491.087z"/>
			</g>
			<g style="opacity:0.59;">
				<path style="fill:#C6C6F7;" d="M130.878,179.688c-0.25-2.857-0.824-5.73-1.769-8.57c-0.945-2.84-2.206-5.484-3.718-7.921
					l-7.107,3.578c-1.457-2.225-3.193-4.209-5.142-5.926l4.559-6.532c-4.496-3.771-9.829-6.442-15.542-7.781l-2.498,7.564
					c-2.543-0.532-5.171-0.734-7.826-0.567l-1.393-7.834c-2.857,0.25-5.729,0.824-8.57,1.769c-2.84,0.945-5.484,2.207-7.921,3.718
					l3.578,7.107c-2.225,1.456-4.209,3.193-5.926,5.142l-6.532-4.559c-3.771,4.495-6.442,9.829-7.781,15.542l7.564,2.498
					c-0.532,2.543-0.734,5.171-0.567,7.826l-7.834,1.393c0.25,2.857,0.824,5.73,1.769,8.57c0.945,2.84,2.207,5.484,3.718,7.921
					l7.107-3.578c1.457,2.225,3.193,4.209,5.143,5.926l-4.56,6.532c4.495,3.771,9.829,6.442,15.542,7.781l2.498-7.564
					c2.543,0.532,5.172,0.734,7.826,0.567l1.393,7.834c2.857-0.25,5.73-0.824,8.57-1.769c2.84-0.945,5.484-2.207,7.921-3.718
					l-3.578-7.107c2.225-1.457,4.209-3.193,5.926-5.142l6.532,4.559c3.771-4.495,6.441-9.828,7.781-15.541l-7.564-2.498
					c0.531-2.543,0.734-5.171,0.567-7.826L130.878,179.688z M98.674,197.963c-8.313,2.766-17.294-1.731-20.06-10.043
					s1.731-17.294,10.043-20.059c8.313-2.766,17.294,1.73,20.06,10.043C111.483,186.216,106.987,195.197,98.674,197.963z"/>
			</g>
			<g style="opacity:0.59;">
				<path style="fill:#C6C6F7;" d="M59.681,238.875c1.062-1.869,1.931-3.886,2.557-6.041c0.626-2.154,0.974-4.323,1.078-6.47
					l-5.908-0.818c0.049-1.993-0.178-3.956-0.65-5.846l5.594-2.089c-1.168-4.241-3.322-8.159-6.276-11.417l-4.762,3.603
					c-1.342-1.41-2.878-2.654-4.587-3.681l2.475-5.426c-1.869-1.062-3.886-1.931-6.04-2.557c-2.155-0.626-4.323-0.973-6.47-1.078
					l-0.818,5.908c-1.993-0.049-3.956,0.178-5.846,0.65l-2.089-5.594c-4.241,1.168-8.159,3.322-11.417,6.276l3.603,4.762
					c-1.411,1.342-2.654,2.878-3.681,4.587l-5.426-2.476c-1.062,1.869-1.931,3.886-2.557,6.041c-0.626,2.155-0.973,4.323-1.078,6.47
					l5.908,0.818c-0.049,1.993,0.179,3.956,0.65,5.845l-5.594,2.089c1.168,4.241,3.322,8.159,6.276,11.418l4.762-3.603
					c1.343,1.411,2.878,2.654,4.587,3.681l-2.476,5.426c1.869,1.062,3.886,1.931,6.04,2.557c2.155,0.626,4.323,0.973,6.47,1.078
					l0.818-5.908c1.993,0.049,3.956-0.178,5.845-0.65l2.089,5.594c4.241-1.168,8.159-3.322,11.417-6.276l-3.603-4.762
					c1.41-1.342,2.654-2.878,3.681-4.587L59.681,238.875z M31.407,238.59c-7.494-2.178-11.804-10.018-9.626-17.512
					c2.178-7.494,10.018-11.804,17.512-9.626c7.494,2.178,11.803,10.018,9.626,17.512C46.741,236.458,38.9,240.768,31.407,238.59z
					 M32.442,235.028c-5.526-1.606-8.704-7.387-7.099-12.914c1.606-5.526,7.388-8.704,12.914-7.099
					c5.526,1.606,8.704,7.388,7.098,12.914C43.75,233.455,37.968,236.633,32.442,235.028z"/>
			</g>
			<g style="opacity:0.59;">
				<path style="fill:#C6C6F7;" d="M523.534,249.401c1.301-2.288,2.365-4.758,3.131-7.397c0.767-2.638,1.192-5.294,1.321-7.923
					l-7.235-1.002c0.06-2.441-0.219-4.845-0.796-7.158l6.85-2.558c-1.43-5.193-4.068-9.991-7.685-13.981l-5.831,4.412
					c-1.644-1.727-3.524-3.25-5.617-4.508l3.031-6.645c-2.289-1.301-4.758-2.364-7.397-3.131c-2.639-0.767-5.294-1.192-7.923-1.321
					l-1.002,7.235c-2.44-0.06-4.845,0.218-7.158,0.796l-2.558-6.85c-5.193,1.43-9.991,4.068-13.981,7.685l4.412,5.831
					c-1.727,1.644-3.25,3.525-4.508,5.617l-6.645-3.032c-1.301,2.289-2.365,4.758-3.131,7.397c-0.767,2.639-1.192,5.294-1.32,7.923
					l7.234,1.002c-0.059,2.44,0.219,4.844,0.796,7.158l-6.85,2.558c1.43,5.193,4.068,9.991,7.685,13.981l5.831-4.412
					c1.644,1.727,3.525,3.25,5.617,4.508l-3.031,6.645c2.288,1.301,4.758,2.365,7.397,3.131c2.639,0.767,5.294,1.192,7.923,1.32
					l1.002-7.235c2.441,0.06,4.845-0.218,7.158-0.796l2.558,6.85c5.193-1.43,9.991-4.068,13.981-7.685l-4.413-5.831
					c1.727-1.644,3.25-3.524,4.508-5.617L523.534,249.401z M488.911,249.052c-9.177-2.667-14.454-12.268-11.788-21.444
					c2.667-9.177,12.268-14.454,21.444-11.788c9.177,2.667,14.454,12.268,11.787,21.444
					C507.689,246.442,498.088,251.719,488.911,249.052z M490.179,244.689c-6.767-1.966-10.659-9.046-8.692-15.814
					c1.966-6.767,9.046-10.659,15.814-8.693c6.767,1.967,10.659,9.047,8.692,15.814
					C504.026,242.764,496.946,246.656,490.179,244.689z"/>
			</g>
		</g>
		<g style="clip-path:url(#SVGID_00000027571930676728128600000014392966942921258150_);">
			<g>
				<polygon style="fill:#552D7F;" points="256.998,390.926 256.998,342.645 252.944,342.645 252.944,285.013 247.755,285.013 
					247.755,342.645 243.701,342.645 243.701,390.322 199.177,418.317 202.803,424.119 243.701,401.23 256.038,401.23 
					296.935,424.119 300.562,418.317 				"/>
				<path style="fill:#D9D9FF;" d="M408.931,316.076H90.694V88.057c0-4.167,3.378-7.544,7.545-7.544h303.148
					c4.167,0,7.544,3.378,7.544,7.544V316.076z"/>
				<path style="fill:#552D7F;" d="M410.96,85.144H89.04c-3.672,0-6.648-2.074-6.648-4.632l0,0c0-2.558,2.977-4.632,6.648-4.632
					H410.96c3.672,0,6.648,2.074,6.648,4.632l0,0C417.609,83.071,414.632,85.144,410.96,85.144z"/>
			</g>
			<g>
				<g>
					<g>
						<g>
							<g>
								<rect x="121.199" y="250.838" style="fill:#7768FF;" width="27.196" height="55.984"/>
							</g>
						</g>
						<g>
							<g>
								<rect x="165.276" y="232.357" style="fill:#7768FF;" width="27.196" height="74.465"/>
							</g>
						</g>
						<g>
							<g>
								<rect x="209.353" y="217.31" style="fill:#7768FF;" width="27.196" height="89.512"/>
							</g>
						</g>
						<g>
							<g>
								<rect x="253.43" y="194.314" style="fill:#7768FF;" width="27.196" height="112.508"/>
							</g>
						</g>
						<g>
							<g>
								<rect x="297.507" y="196.526" style="fill:#7768FF;" width="27.197" height="110.296"/>
							</g>
						</g>
						<g>
							<g>
								<rect x="341.584" y="170.321" style="fill:#7768FF;" width="27.196" height="136.501"/>
							</g>
						</g>
					</g>
					<polygon style="fill:#7768FF;" points="109.865,255.657 107.704,252.939 154.62,215.617 201.698,215.617 236.129,186.067 
						309.751,186.051 366.252,125.843 368.784,128.22 311.255,189.524 237.416,189.539 202.983,219.09 155.832,219.09 					"/>
				</g>
				<g>
					
						<ellipse transform="matrix(0.9239 -0.3827 0.3827 0.9239 -24.6224 144.4149)" style="fill:#7768FF;" cx="350.701" cy="134.1" rx="25.752" ry="25.752"/>
					
						<ellipse transform="matrix(0.982 -0.1891 0.1891 0.982 -19.0315 68.7401)" style="fill:#FFFFFF;" cx="350.701" cy="134.1" rx="18.63" ry="18.63"/>
					<path style="fill:#7768FF;" d="M337.904,134.1c0,7.067,5.729,12.796,12.797,12.796c7.068,0,12.797-5.729,12.797-12.796
						c0-7.068-5.729-12.797-12.797-12.797C343.633,121.303,337.904,127.033,337.904,134.1z"/>
					<path style="fill:#FFFFFF;" d="M343.997,134.1c0,3.702,3.001,6.703,6.704,6.703s6.704-3.001,6.704-6.703
						c0-3.702-3.001-6.704-6.704-6.704S343.997,130.398,343.997,134.1z"/>
					<g>
						<g>
							<polygon style="fill:#243956;" points="349.663,135.138 353.872,135.138 349.663,130.928 							"/>
						</g>
						<g>
							<polygon style="fill:#243956;" points="376.958,107.843 381.775,107.843 381.775,106.629 378.172,106.629 378.172,103.026 
								376.958,103.026 							"/>
						</g>
						<g>
							<polygon style="fill:#243956;" points="379.163,105.638 383.979,105.638 383.979,104.424 380.377,104.424 380.377,100.822 
								379.163,100.822 							"/>
						</g>
						<g>
							
								<rect x="344.813" y="118.787" transform="matrix(0.7071 -0.7071 0.7071 0.7071 22.5991 293.3473)" style="fill:#243956;" width="41.189" height="1.214"/>
						</g>
					</g>
				</g>
				<g>
					
						<ellipse transform="matrix(0.9224 -0.3863 0.3863 0.9224 -62.871 72.8024)" style="fill:#1A004C;" cx="149.73" cy="192.853" rx="20.704" ry="20.704"/>
					<g>
						
							<ellipse transform="matrix(0.0193 -0.9998 0.9998 0.0193 -45.9832 338.8244)" style="fill:#FFFFFF;" cx="149.73" cy="192.853" rx="17.397" ry="17.397"/>
						<path style="fill:#7768FF;" d="M149.733,210.526c-4.642,0-9.278-1.811-12.744-5.412c-3.275-3.403-5.029-7.878-4.938-12.6
							c0.09-4.722,2.015-9.126,5.418-12.401c7.026-6.76,18.241-6.546,25.001,0.48c6.76,7.025,6.545,18.24-0.48,25.001
							C158.566,208.888,154.147,210.526,149.733,210.526z M149.727,175.748c-4.272,0-8.549,1.585-11.863,4.774
							c-3.294,3.169-5.156,7.432-5.244,12.002c-0.088,4.57,1.61,8.901,4.779,12.195c6.542,6.799,17.398,7.008,24.197,0.464
							c6.799-6.543,7.008-17.398,0.464-24.197C158.707,177.502,154.22,175.748,149.727,175.748z"/>
					</g>
					<g>
						<path style="fill:#1A004C;" d="M138.815,182.834c0.324,0.336,0.859,0.346,1.195,0.023c0.336-0.324,0.347-0.859,0.023-1.195
							c-0.324-0.336-0.859-0.347-1.195-0.023C138.502,181.963,138.492,182.498,138.815,182.834z"/>
						<path style="fill:#1A004C;" d="M134.943,193.522c0.466,0.009,0.852-0.362,0.861-0.829c0.009-0.467-0.362-0.852-0.829-0.861
							c-0.467-0.009-0.852,0.362-0.861,0.829C134.105,193.127,134.476,193.513,134.943,193.522z"/>
						<path style="fill:#1A004C;" d="M139.761,203.818c0.336-0.324,0.347-0.859,0.023-1.195c-0.324-0.336-0.858-0.346-1.195-0.023
							c-0.336,0.324-0.347,0.859-0.023,1.195C138.89,204.131,139.425,204.141,139.761,203.818z"/>
						<path style="fill:#1A004C;" d="M150.449,207.691c0.009-0.467-0.362-0.852-0.829-0.861c-0.467-0.009-0.852,0.362-0.861,0.829
							c-0.009,0.467,0.362,0.852,0.829,0.861C150.054,208.528,150.44,208.157,150.449,207.691z"/>
						<path style="fill:#1A004C;" d="M160.745,202.872c-0.324-0.336-0.859-0.346-1.195-0.023c-0.336,0.324-0.347,0.859-0.023,1.195
							c0.324,0.336,0.859,0.346,1.195,0.023C161.058,203.743,161.068,203.208,160.745,202.872z"/>
						<path style="fill:#1A004C;" d="M164.618,192.184c-0.467-0.009-0.852,0.362-0.861,0.829c-0.009,0.467,0.362,0.852,0.829,0.861
							s0.852-0.362,0.861-0.829C165.455,192.579,165.084,192.193,164.618,192.184z"/>
						<path style="fill:#1A004C;" d="M159.799,181.889c-0.336,0.324-0.347,0.859-0.023,1.195c0.324,0.336,0.859,0.346,1.195,0.023
							c0.336-0.324,0.347-0.859,0.023-1.195C160.67,181.575,160.135,181.565,159.799,181.889z"/>
						<path style="fill:#1A004C;" d="M149.111,178.016c-0.009,0.467,0.362,0.852,0.829,0.861c0.466,0.009,0.852-0.362,0.861-0.829
							c0.009-0.467-0.362-0.852-0.829-0.861C149.506,177.178,149.12,177.549,149.111,178.016z"/>
					</g>
					<path style="fill:#ECECED;" d="M155.227,212.818c-7.077,1.942-14.968,0.052-20.415-5.609
						c-7.929-8.239-7.677-21.346,0.562-29.275c2.681-2.58,5.879-4.288,9.245-5.143L155.227,212.818z"/>
					<g>
						<path style="fill:#7768FF;" d="M149.834,194.174c-0.129,0-0.261-0.018-0.392-0.055l-8.587-2.46
							c-0.754-0.216-1.191-1.003-0.974-1.757c0.216-0.754,1.002-1.192,1.757-0.974l8.587,2.46c0.754,0.216,1.19,1.003,0.974,1.757
							C151.021,193.768,150.452,194.174,149.834,194.174z"/>
						<path style="fill:#7768FF;" d="M149.833,193.605c-0.106,0-0.214-0.019-0.318-0.062c-0.437-0.176-0.648-0.672-0.472-1.109
							l3.987-9.901c0.176-0.437,0.671-0.649,1.109-0.472c0.437,0.176,0.648,0.673,0.472,1.109l-3.987,9.901
							C150.491,193.404,150.171,193.605,149.833,193.605z"/>
						<g>
							<path style="fill:#FFFFFF;" d="M149.438,193.134c0.211,0.219,0.559,0.225,0.777,0.015c0.219-0.211,0.225-0.559,0.015-0.777
								c-0.211-0.219-0.559-0.226-0.777-0.015C149.234,192.567,149.227,192.915,149.438,193.134z"/>
							<path style="fill:#1A004C;" d="M149.834,193.587c-0.219,0-0.438-0.085-0.601-0.255v-0.001
								c-0.318-0.331-0.308-0.86,0.023-1.178c0.161-0.155,0.364-0.233,0.594-0.233c0.222,0.004,0.43,0.095,0.585,0.255
								c0.319,0.332,0.309,0.861-0.023,1.18C150.25,193.509,150.042,193.587,149.834,193.587z M149.642,192.937
								c0.102,0.105,0.27,0.108,0.376,0.007c0.106-0.102,0.109-0.27,0.007-0.376c-0.049-0.051-0.115-0.08-0.186-0.081
								c-0.074,0.008-0.139,0.025-0.19,0.074C149.544,192.663,149.541,192.831,149.642,192.937z"/>
						</g>
					</g>
				</g>
				<path style="fill:#7768FF;" d="M224.287,161.21c-0.132-0.342-0.275-0.679-0.43-1.01l3.406-6.678l-1.162-1.025l-2.905-2.561
					l-1.162-1.025l-5.521,3.755c-0.648-0.324-1.321-0.604-2.015-0.839l-1.623-6.33h-1.549h-3.873h-1.549l-1.62,6.317
					c-0.708,0.238-1.394,0.522-2.054,0.852l-5.522-3.755l-1.162,1.025l-2.905,2.561l-1.162,1.025l3.406,6.678
					c-0.153,0.327-0.295,0.661-0.426,1l-6.427,1.648v1.549v3.873v1.549l5.957,1.528c0.144,0.507,0.312,1.004,0.503,1.489
					l-3.447,6.759l1.162,1.025l2.905,2.561l1.162,1.025l5.032-3.422c0.852,0.499,1.755,0.923,2.698,1.259l1.43,5.577h1.549h3.873
					h1.549l1.35-5.265c1.125-0.32,2.201-0.756,3.21-1.302l4.636,3.152l1.162-1.025l2.905-2.561l1.162-1.025l-2.976-5.835
					c0.364-0.775,0.665-1.585,0.902-2.423l5.919-1.518v-1.549v-3.873v-1.549L224.287,161.21z M217.217,166.975
					c0,4.108-3.33,7.438-7.438,7.438c-4.108,0-7.439-3.33-7.439-7.438s3.33-7.439,7.439-7.439
					C213.887,159.537,217.217,162.867,217.217,166.975z"/>
				<g>
					<g>
						<path style="fill:#7768FF;" d="M296.809,146.077c0-9.075-7.357-16.432-16.432-16.432s-16.432,7.357-16.432,16.432
							c0,9.075,15.637,23.323,15.637,23.323S296.809,155.152,296.809,146.077z"/>
						<path style="fill:#1A004C;" d="M279.582,169.4c0,0,17.227-14.248,17.227-23.323c0-9.075-7.357-16.432-16.432-16.432"/>
						<path style="fill:none;stroke:#FFFFFF;stroke-miterlimit:10;" d="M275.607,161.979c0,0,2.12-17.227-0.265-16.167
							c-2.385,1.06-3.71,3.71-1.06,4.241c2.65,0.53,13.252,0,13.252,0s0.945-3.014-0.795-3.711c-2.65-1.06-2.65,9.011-3.181,16.167"
							/>
						<g>
							<path style="fill:#232D3F;" d="M286.208,165.689h-13.252c-1.025,0-1.855-0.831-1.855-1.855l0,0
								c0-1.025,0.831-1.855,1.855-1.855h13.252c1.025,0,1.855,0.831,1.855,1.855l0,0
								C288.063,164.859,287.233,165.689,286.208,165.689z"/>
							<path style="fill:#232D3F;stroke:#E9E9EA;stroke-width:0.4326;stroke-miterlimit:10;" d="M279.847,174.17L279.847,174.17
								c-4.245,0-7.686-3.441-7.686-7.686v-1.325h15.372v1.325C287.533,170.729,284.092,174.17,279.847,174.17z"/>
						</g>
					</g>
					<g>
						<g>
							
								<line style="fill:none;stroke:#232D3F;stroke-linecap:round;stroke-miterlimit:10;" x1="250.75" y1="146.181" x2="258.219" y2="146.181"/>
							
								<line style="fill:none;stroke:#232D3F;stroke-linecap:round;stroke-miterlimit:10;" x1="303.034" y1="146.181" x2="310.503" y2="146.181"/>
						</g>
						<g>
							
								<line style="fill:none;stroke:#232D3F;stroke-linecap:round;stroke-miterlimit:10;" x1="259.5" y1="125.055" x2="264.782" y2="130.337"/>
							
								<line style="fill:none;stroke:#232D3F;stroke-linecap:round;stroke-miterlimit:10;" x1="296.471" y1="162.026" x2="301.752" y2="167.307"/>
						</g>
						<g>
							
								<line style="fill:none;stroke:#232D3F;stroke-linecap:round;stroke-miterlimit:10;" x1="280.626" y1="116.305" x2="280.626" y2="123.774"/>
						</g>
						<g>
							
								<line style="fill:none;stroke:#232D3F;stroke-linecap:round;stroke-miterlimit:10;" x1="301.752" y1="125.055" x2="296.471" y2="130.337"/>
							
								<line style="fill:none;stroke:#232D3F;stroke-linecap:round;stroke-miterlimit:10;" x1="264.782" y1="162.026" x2="259.5" y2="167.307"/>
						</g>
					</g>
				</g>
				<g>
					<rect x="107.54" y="103.14" style="fill:#7768FF;" width="106.198" height="4.579"/>
					<rect x="107.54" y="114.015" style="fill:#7768FF;" width="106.198" height="4.579"/>
					<rect x="107.54" y="124.891" style="fill:#7768FF;" width="106.198" height="4.579"/>
				</g>
			</g>
		</g>
		<g style="clip-path:url(#SVGID_00000027571930676728128600000014392966942921258150_);">
			<g>
				<g>
					<path style="fill:#FF9783;" d="M155.938,388.15c3.217,7.127,15.928,26.247,14.966,27.527c-0.962,1.28-5.521-5.387-6.115-4.188
						c-0.593,1.198,5.727,11.93,4.426,12.953c-1.765,1.385-7.65-9.953-7.65-9.953s5.827,12.74,3.949,13.499
						c-1.331,0.538-6.225-8.981-8.551-12.383c2.052,4.008,4.607,10.898,3.214,11.428c-1.382,0.524-4.851-5.884-7.772-10.654
						c1.544,3.147,4.046,9.024,2.782,9.574c-1.26,0.548-13.819-16.502-22.23-30.973"/>
				</g>
				<path style="fill:#FF9783;" d="M116.987,298.137c21.493,58.474,45.151,101.129,45.151,101.129l-17.32,12.553
					c0,0-33.031-44.074-56.807-94.554"/>
				<path style="fill:#E89DE8;" d="M109.213,280.171c8.124,13.442,13.654,32.725,13.654,32.725L91.148,331.74l-18.952-33.872"/>
			</g>
			<g>
				<g>
					<path style="fill:#FF9783;" d="M151.952,497.354l-15.188,200.012l17.97,11.441c0,0-49.388,2.569-50.993,0.953
						c-1.606-1.618,2.026-12.696,2.026-12.696l-8.246-200.185L151.952,497.354z"/>
					<path style="fill:#30394D;" d="M111.607,709.619l-7.354-7.232l1.04-3.798l11.302,11.048l5.441,0.02l19.169-9.464l20.811,13.027
						c2.405,1.505,1.331,5.22-1.506,5.209l-27.972-0.101l-8.927-6.21l-2.535-0.009l-0.022,6.177l-18.216-0.066l0.032-8.633
						L111.607,709.619z"/>
				</g>
				<g>
					<path style="fill:#FF9783;" d="M112.062,496.287L67.265,697.365l17.97,11.441c0,0-49.388,2.569-50.993,0.953
						c-1.606-1.618,2.026-12.696,2.026-12.696l13.093-200.776H112.062z"/>
					<path style="fill:#30394D;" d="M42.108,709.619l-7.354-7.232l1.04-3.798l11.302,11.048l5.441,0.02l19.17-9.464l20.81,13.027
						c2.405,1.505,1.331,5.22-1.506,5.209l-27.972-0.101l-8.927-6.21l-2.535-0.009l-0.022,6.177L33.34,718.22l0.032-8.633
						L42.108,709.619z"/>
				</g>
				<path style="fill:#242645;" d="M64.965,392.563C40.32,435.934,40.367,516.624,40.367,516.624h114.241
					c0,0-1.574-70.872-14.332-110.803L64.965,392.563z"/>
				
					<rect x="103.881" y="396.445" transform="matrix(0.9997 -0.0237 0.0237 0.9997 -10.7845 2.6048)" style="fill:#2F3470;" width="1.361" height="120.195"/>
				<path style="fill:#2F3470;" d="M103.308,421.871l-0.34-1.318c18.914-4.908,24.761-19.146,24.817-19.29l1.265,0.5
					C128.992,401.911,122.92,416.781,103.308,421.871z"/>
			</g>
			<g>
				<path style="fill:#F9C5F9;" d="M95.035,275.338c0,0,1.881,4.827,12.137,4.827c7.164,0,9.864-3.755,9.864-3.755
					s2.638,2.366,30.861,39.407c5.976,7.842,4.686,24.763-5.302,39.395c-2.363,14.687-3.245,31.806-2.318,50.61H58.594
					c0,0-1.425-58.687,4.223-90.693C66.158,296.196,80.355,281.145,95.035,275.338z"/>
				<g>
					<g>
						<path style="fill:#FF9783;" d="M238.372,231.114c5.892-5.141,20.517-22.839,22.021-22.289c1.503,0.551-3.559,6.843-2.24,7.064
							c1.318,0.221,9.764-8.934,11.119-7.984c1.837,1.289-7.314,10.202-7.314,10.202s10.51-9.263,11.78-7.684
							c0.9,1.119-6.796,8.557-9.38,11.768c3.243-3.124,9.099-7.563,10.01-6.383c0.901,1.171-4.23,6.346-7.95,10.522
							c2.566-2.389,7.468-6.483,8.359-5.432c0.889,1.048-10.711,14.504-22.131,26.742"/>
					</g>
					<g>
						<path style="fill:#FF9783;" d="M153.135,272.02c65.323-22.776,93.491-49.551,93.491-49.551l15.221,15.03
							c0,0-42.256,50.559-95.809,67.232"/>
						<path style="fill-rule:evenodd;clip-rule:evenodd;fill:#F9C5F9;" d="M116.813,286.283c9.513-10.489,38.38-17.439,38.38-17.439
							l15.833,37.162c0,0-10.839,4.522-27.37,9.469"/>
					</g>
				</g>
			</g>
			<g>
				<path style="fill-rule:evenodd;clip-rule:evenodd;fill:#FF9783;" d="M123.482,239.162c5.678,9.386,8.027,18.773,0.071,23.586
					c-7.956,4.813-20.749,7.207-28.883-6.156c-5.704-9.371-3.832-20.897,4.124-25.71
					C106.75,226.068,117.803,229.775,123.482,239.162z"/>
				<g>
					<path style="fill:#242645;" d="M116.87,241.563c0.263,0.952,1.015,2.074,1.955,2.04c0.266-0.01,0.465-0.173,0.549-0.42
						C119.925,241.562,116.321,239.574,116.87,241.563z"/>
				</g>
				<path style="fill:#242645;" d="M113.105,241.209c-0.09,0-0.182-0.026-0.262-0.083c-0.204-0.145-0.253-0.429-0.108-0.633
					c1.362-1.924,3.283-3.047,5.71-3.338c0.243-0.032,0.475,0.147,0.503,0.397c0.03,0.248-0.147,0.473-0.397,0.503
					c-2.19,0.264-3.852,1.231-5.076,2.962C113.387,241.141,113.247,241.209,113.105,241.209z"/>
				<path style="fill:#FFFFFF;" d="M125.644,249.862l-5.264,2.63c0,0,1.858,4.542,4.702,3.693
					C127.46,255.475,125.644,249.862,125.644,249.862z"/>
				<path style="fill-rule:evenodd;clip-rule:evenodd;fill:#FF9783;" d="M117.384,277.822c0,0-4.547,2.484-10.212,2.343
					c-8.218-0.205-12.137-3.491-12.137-3.491l5.42-23.155l19.925,1.454L117.384,277.822z"/>
				<path style="fill-rule:evenodd;clip-rule:evenodd;fill:#FF9783;" d="M121.563,239.59c0,0,6.805,4.55,7.046,5.761
					c0.241,1.211-2.638,2.963-2.638,2.963"/>
				<g>
					<path style="fill:#242645;" d="M102.525,224.418c-0.734,0.372-3.272-0.315-4.194-0.314c-1.294,0.001-2.589,0.095-3.863,0.327
						c-7.587,1.384-13.252,7.663-16.824,14.122c-2.346,4.242-4.317,8.954-8.586,11.645c-9.383,5.916-21.701,3.799-32.213,7.338
						c-10.698,3.602-18.892,14.458-16.024,26.042c0.939,3.793,2.93,7.243,4.103,10.97c2.502,7.952,1.332,17.208,6.108,24.041
						c1.282,1.833,2.935,3.383,4.717,4.736c7.989,6.068,18.855,8.156,28.524,5.481c9.668-2.675,17.917-10.051,21.651-19.362
						c4.245-10.585,2.919-23.195,9.112-32.771c2.893-4.473,7.212-7.885,10.086-12.371c2.626-4.099,4.006-11.812,4.322-16.747
						c0.073-1.14-1.969-10.62-1.357-10.62c4.912,0,11.206-3.057,14.11-5.961C118.497,222.851,109.047,221.112,102.525,224.418z"/>
				</g>
				<path style="fill:#FF9783;" d="M107.83,248.791c0,0-2.854-1.977-4.729,0.825c-2.425,3.623,3.413,8.2,6.223,8.412
					c2.81,0.212,2.738-2.84,2.738-2.84"/>
			</g>
		</g>
		<g style="clip-path:url(#SVGID_00000027571930676728128600000014392966942921258150_);">
			<g>
				<g>
					<path style="fill:#FF9783;" d="M451.835,416.654c-0.84,7.418-6.799,28.512-5.551,29.395c1.249,0.882,3.442-6.51,4.332-5.594
						c0.889,0.916-1.716,12.519-0.234,13.067c2.009,0.743,4.042-11.282,4.042-11.282s-1.569,13.283,0.36,13.423
						c1.367,0.099,3.03-9.982,4.15-13.756c-0.692,4.243-0.999,11.252,0.422,11.326c1.409,0.073,2.689-6.767,3.947-11.955
						c-0.483,3.312-1.038,9.384,0.272,9.514c1.306,0.129,5.576-16.287,8.988-31.899"/>
				</g>
				<path style="fill:#FF9783;" d="M475.985,314.88c0,0,12.005,21.325,13.739,34.415c4.271,32.244-22.483,86.863-22.483,86.863
					s-19.441-5.304-19.441-7.744c0-2.44,13.55-59.83,13.55-59.83l-19.433-44.858"/>
			</g>
			<g>
				<path style="fill:#FF9783;" d="M417.609,244.853l2.608,24.044c0,0-14.417,12.224-27.173-1.47l1.559-15.827L417.609,244.853z"/>
				<path style="fill:#FF9783;" d="M397.495,220.764c0,0-15.606,21.492-9.232,29.548c4.703,5.944,17.044,6.62,20.858,4.283
					c0.82-4.402,10.935-18.95,9.313-22.187C412.237,220.038,397.495,220.764,397.495,220.764z"/>
				<g>
					<path style="fill:#262739;" d="M421.787,224.482c-0.504-8.126-8.516-10.504-23.895-9.587c-2.058,0.123-5.722-1.275-6.674,0.554
						c-1.251,2.405-1.473,7.271,0.943,9.461c1.612,1.462,2.691,1.778,4.811,2.273c2.787,0.651,5.626,3.305,4.144,6.223
						c-0.388,0.764-1.308,2.061-0.726,2.691c0.295,0.319,1.286,0.671,1.67,0.876c1.107,0.592,1.037,2.275,0.347,3.324
						c-0.69,1.049-0.381,2.212-1.075,3.258c-1.644,2.477,0.305,7.042,2.863,8.558c2.263,1.34,9.685,3.578,15.117,0.761
						c4.712-2.443,7.542-9.091,7.58-21.044C426.907,227.245,423.499,224.17,421.787,224.482z"/>
				</g>
				<path style="fill:#FF9783;" d="M399.194,236.756c2.535-3.213,4.586-2.702,5.706-0.938c1.494,2.353-1.501,7.243-2.896,8.078
					c-2.826,1.691-5.115,1.514-5.332-0.782"/>
				<g>
					<g>
						<path style="fill:#30394D;" d="M392.942,231.836c-0.725,0.604-1.404,1.699-1.004,2.504c0.113,0.228,0.333,0.337,0.582,0.312
							C394.146,234.493,394.456,230.575,392.942,231.836z"/>
					</g>
				</g>
				<path style="fill:#30394D;" d="M395.818,231.695c-0.462-0.988-1.823-1.847-2.891-2.226l0.433-1.225
					c1.26,0.447,2.967,1.475,3.635,2.899L395.818,231.695z"/>
				<path style="fill:#FFFFFF;" d="M393.117,243.298l-3.564-1.906c0,0-2.34,4.378-0.681,5.302
					C390.705,247.715,393.117,243.298,393.117,243.298z"/>
			</g>
			<g>
				<g>
					
						<rect x="339.355" y="685.09" transform="matrix(-1 7.690407e-04 -7.690407e-04 -1 735.5413 1372.4194)" style="fill:#273DAC;" width="56.304" height="2.522"/>
					<path style="fill:#242645;" d="M387.646,664.283l4.872,1.149c0,0,1.863,6.363,2.579,10.794c0.716,4.431,0.56,8.844,0.56,8.844
						l-56.303,0.043c0,0,1.472-4.88,14.906-12.749c5.295-3.102,7.989-6.648,7.989-6.648L387.646,664.283z"/>
					<path style="fill:#E0AE8E;" d="M393.443,644.025l-0.925,21.406c0,0-2.363,2.858-11.925,2.866
						c-9.562,0.007-18.344-2.583-18.344-2.583l-1.888-28.881"/>
				</g>
				<g>
					
						<rect x="419.549" y="685.09" transform="matrix(-1 7.690365e-04 -7.690365e-04 -1 895.9294 1372.3578)" style="fill:#273DAC;" width="56.304" height="2.522"/>
					<path style="fill:#242645;" d="M467.84,664.283l4.872,1.149c0,0,1.864,6.363,2.579,10.794c0.716,4.431,0.561,8.844,0.561,8.844
						l-56.303,0.043c0,0,1.472-4.88,14.906-12.749c5.295-3.102,7.989-6.648,7.989-6.648L467.84,664.283z"/>
					<path style="fill:#E0AE8E;" d="M470.813,643.151l1.899,22.28c0,0-2.363,2.858-11.925,2.866
						c-9.562,0.007-18.344-2.583-18.344-2.583l-4.339-28.881"/>
				</g>
				<path style="fill:#7768FF;" d="M461.733,421.63c0,0,8.782,18.287,1.724,53.277c3.591,78.125,12.934,183.151,12.934,183.151
					l-53.643-0.189c0,0-10.938-112.896-17.44-169.156c-7.243-62.67-11.773-139.417-11.773-139.417"/>
				<path style="fill:#203269;" d="M430.762,657.932c-0.11-1.128-11.013-113.535-17.439-169.145l1.289-0.149
					c6.429,55.622,17.334,168.039,17.442,169.169L430.762,657.932z"/>
				<path style="fill:#7768FF;" d="M359.298,425.13c0,0-5.7,82.361-5.7,121.887c0,39.526-2.538,111.042-2.538,111.042h54.222
					l20.174-186.946c16.523-19.791,15.317-62.734,11.335-79.456l-53.765-14.681L359.298,425.13z"/>
				<path style="fill:#203269;" d="M415.025,573.836l-1.292-0.139l11.099-102.862l0.14-0.156
					c13.535-15.091,13.692-34.328,13.692-34.521h1.299c0,0.196-0.159,19.799-13.884,35.232L415.025,573.836z"/>
				<polygon style="fill:#203269;" points="358.432,658.093 357.136,658.026 369.968,416.824 371.263,416.892 				"/>
				
					<rect x="418.747" y="425.685" transform="matrix(0.02 -0.9998 0.9998 0.02 -27.7464 849.4065)" style="fill:#203269;" width="1.299" height="26.343"/>
				
					<rect x="451.336" y="437.009" transform="matrix(0.9998 -0.0208 0.0208 0.9998 -8.9956 9.5769)" style="fill:#203269;" width="10.014" height="1.299"/>
			</g>
			<g>
				<g>
					<path style="fill:#FF9783;" d="M313.587,299.675c-7.352-8.318-27.079-39.942-29.297-39.444
						c-2.217,0.499,3.756,10.286,1.858,10.355c-1.896,0.069-12.107-14.366-14.189-13.277c-2.822,1.477,8.426,15.702,8.426,15.702
						s-4.405-6.043-6.482-4.054c-1.472,1.409-0.694,4.368,2.355,9.362c-2.046-2.557-3.977-3.008-5.475-1.514
						c-1.484,1.483-0.014,4.208,1.816,6.963c-1.444-1.805-3.551-2.712-4.092-0.832c-0.708,2.46,5.261,15.226,19.379,36.044"/>
				</g>
				<path style="fill:#552D7F;" d="M419.951,266.45c0,0,31.067,1.303,40.385,36.662c4.201,15.942,6.905,125.264,6.905,125.264
					l-113.524-0.76c0,0,1.512-98.832,4.051-120.231c4.64-39.107,35.432-41.545,35.432-41.545s1.403,3.459,13.436,3.459
					C418.67,269.298,419.951,266.45,419.951,266.45z"/>
				<path style="fill:#552D7F;" d="M419.951,266.45c36.874,0,59.579,50.651,59.579,50.651l-23.187,11.645"/>
				<path style="fill:#FF9783;" d="M371.24,338.316c0,0-19.678,28.316-35.565,29.853c-21.355,2.066-59.345-69.028-59.345-69.028
					l23.964-16.187l32.822,41.283l11.195-16.732"/>
				<path style="fill:#552D7F;" d="M393.2,265.84c-31.748,1.746-54.986,49.041-54.986,49.041l37.175,26.684l21.099-27.523"/>
				
					<rect x="368.32" y="328.281" transform="matrix(0.6099 -0.7925 0.7925 0.6099 -111.2372 431.874)" style="fill:#301947;" width="29.502" height="1.298"/>
				<path style="fill:#301947;" d="M462.814,325.263c-2.025-14.626-7.025-27.299-7.075-27.426l1.208-0.48
					c0.051,0.127,5.108,12.94,7.153,27.727L462.814,325.263z"/>
			</g>
			<path style="fill:#FF9783;" d="M391.6,233.643c0,0-5.113,2.456-4.857,3.394c0.256,0.937,1.79,3.205,1.79,3.205"/>
			<rect x="351.06" y="645.654" style="fill:#203269;" width="55.167" height="1.299"/>
			<rect x="421.62" y="646.121" style="fill:#203269;" width="53.657" height="1.299"/>
		</g>
	</g>
</g>
</svg>
