<svg width="1280" height="1280" xmlns="http://www.w3.org/2000/svg" xmlns:xlink="http://www.w3.org/1999/xlink" overflow="hidden"><defs><filter id="fx0" x="-10%" y="-10%" width="120%" height="120%" filterUnits="userSpaceOnUse" primitiveUnits="userSpaceOnUse"><feComponentTransfer color-interpolation-filters="sRGB"><feFuncR type="discrete" tableValues="0 0"/><feFuncG type="discrete" tableValues="0 0"/><feFuncB type="discrete" tableValues="0 0"/><feFuncA type="linear" slope="0.4" intercept="0"/></feComponentTransfer><feGaussianBlur stdDeviation="1.19325 1.19325"/></filter><filter id="fx1" x="-10%" y="-10%" width="120%" height="120%" filterUnits="userSpaceOnUse" primitiveUnits="userSpaceOnUse"><feComponentTransfer color-interpolation-filters="sRGB"><feFuncR type="discrete" tableValues="0 0"/><feFuncG type="discrete" tableValues="0 0"/><feFuncB type="discrete" tableValues="0 0"/><feFuncA type="linear" slope="0.4" intercept="0"/></feComponentTransfer><feGaussianBlur stdDeviation="1.77778 1.77778"/></filter><clipPath id="clip2"><rect x="0" y="0" width="1280" height="1280"/></clipPath><clipPath id="clip3"><rect x="53" y="45" width="53" height="69"/></clipPath></defs><g clip-path="url(#clip2)"><rect x="0" y="0" width="1280" height="1280" fill="#FFFFFF"/><rect x="-498" y="0" width="2276" height="1280" stroke="#000000" stroke-width="2" stroke-miterlimit="8"/><path d="M294 274C359.17 274 412 326.83 412 392L412 901C412 966.17 359.17 1019 294 1019L294 1019C228.83 1019 176 966.17 176 901L176 392C176 326.83 228.83 274 294 274Z" fill="#FFFFFF" fill-rule="evenodd"/><rect x="98" y="274" width="188" height="745" fill="#FFFFFF"/><path d="M618.364 274C674.496 274 720 319.504 720 375.636L720 520.364C720 576.496 674.496 622 618.364 622L558.636 622C502.504 622 457 576.496 457 520.364L457 375.636C457 319.504 502.504 274 558.636 274Z" fill="#FFFFFF" fill-rule="evenodd"/><rect x="457" y="408" width="110" height="214" fill="#FFFFFF"/><path d="M618.364 671C674.496 671 720 716.504 720 772.636L720 917.364C720 973.496 674.496 1019 618.364 1019L558.636 1019C502.504 1019 457 973.496 457 917.364L457 772.636C457 716.504 502.504 671 558.636 671Z" fill="#FFFFFF" fill-rule="evenodd"/><rect x="457" y="671" width="110" height="348" fill="#FFFFFF"/><g clip-path="url(#clip3)" filter="url(#fx0)" transform="translate(567 846)"><g><path d="M3.315 0 13.6-19.38C13.77-19.6633 13.855-19.8617 13.855-19.975 13.855-20.145 13.7133-20.3433 13.43-20.57 9.57667-23.29 6.7575-26.18 4.9725-29.24 3.1875-32.3 2.295-35.7 2.295-39.44 2.295-45.39 4.40583-50.5042 8.6275-54.7825 12.8492-59.0608 17.9633-61.2 23.97-61.2 30.1467-61.2 35.3033-59.0325 39.44-54.6975 43.5767-50.3625 45.645-45.2767 45.645-39.44 45.645-36.04 44.88-32.81 43.35-29.75L39.44-22.015 46.24-22.015 46.24 0ZM43.095-3.145 43.095-18.87 34.255-18.87 40.545-31.195C41.8483-33.8017 42.5-36.55 42.5-39.44 42.5-44.4267 40.7292-48.7758 37.1875-52.4875 33.6458-56.1992 29.24-58.055 23.97-58.055 18.8133-58.055 14.4358-56.2275 10.8375-52.5725 7.23917-48.9175 5.44-44.54 5.44-39.44 5.44-32.7533 8.415-27.455 14.365-23.545L21.08-35.7C20.23-36.6067 19.805-37.5983 19.805-38.675 19.805-39.695 20.1308-40.545 20.7825-41.225 21.4342-41.905 22.2983-42.245 23.375-42.245 25.8117-42.245 27.03-41.2533 27.03-39.27 27.03-38.1933 26.6333-36.9183 25.84-35.445L8.67-3.145ZM23.545-37.995C23.6583-37.995 23.7575-38.0942 23.8425-38.2925 23.9275-38.4908 23.97-38.6467 23.97-38.76 23.97-38.9867 23.7717-39.1 23.375-39.1 23.1483-39.1 23.035-38.9867 23.035-38.76 23.035-38.6467 23.0917-38.4908 23.205-38.2925 23.3183-38.0942 23.4317-37.995 23.545-37.995Z" transform="translate(55.6223 110)"/></g></g><text font-family="STCaiyun,STCaiyun_MSFontService,sans-serif" font-weight="400" font-size="85" transform="translate(621.34 955)">2</text><g filter="url(#fx1)" transform="translate(247 379)"><g><path d="M7.82843 6.82843 7.82854 520.54" stroke="#000000" stroke-width="2" stroke-miterlimit="8" fill="none" fill-rule="evenodd"/></g></g><path d="M252 383 252 896.711" stroke="#000000" stroke-width="2" stroke-miterlimit="8" fill="none" fill-rule="evenodd"/><rect x="457" y="274" width="110" height="348" fill="#FFFFFF"/></g></svg>