<svg width="1280" height="1280" xmlns="http://www.w3.org/2000/svg" xmlns:xlink="http://www.w3.org/1999/xlink" overflow="hidden"><defs><filter id="fx0" x="-10%" y="-10%" width="120%" height="120%" filterUnits="userSpaceOnUse" primitiveUnits="userSpaceOnUse"><feComponentTransfer color-interpolation-filters="sRGB"><feFuncR type="discrete" tableValues="0 0"/><feFuncG type="discrete" tableValues="0 0"/><feFuncB type="discrete" tableValues="0 0"/><feFuncA type="linear" slope="0.4" intercept="0"/></feComponentTransfer><feGaussianBlur stdDeviation="1.77778 1.77778"/></filter></defs><g><rect x="0" y="0" width="1280" height="1280" fill="#FFFFFF"/><path d="M294 274C359.17 274 412 326.83 412 392L412 901C412 966.17 359.17 1019 294 1019L294 1019C228.83 1019 176 966.17 176 901L176 392C176 326.83 228.83 274 294 274Z" fill="#07449B" fill-rule="evenodd"/><rect x="98" y="274" width="188" height="745" fill="#07449B"/><path d="M618.364 274C674.496 274 720 319.504 720 375.636L720 520.364C720 576.496 674.496 622 618.364 622L558.636 622C502.504 622 457 576.496 457 520.364L457 375.636C457 319.504 502.504 274 558.636 274Z" fill="#EF7A25" fill-rule="evenodd"/><rect x="457" y="274" width="110" height="348" fill="#EF7A25"/><path d="M618.364 671C674.496 671 720 716.504 720 772.636L720 917.364C720 973.496 674.496 1019 618.364 1019L558.636 1019C502.504 1019 457 973.496 457 917.364L457 772.636C457 716.504 502.504 671 558.636 671Z" fill="#12BFD7" fill-rule="evenodd"/><rect x="457" y="671" width="110" height="348" fill="#12BFD7"/><text fill="#FFFFFF" font-family="STCaiyun,STCaiyun_MSFontService,sans-serif" font-weight="400" font-size="85" transform="translate(621.34 955)">2</text><g filter="url(#fx0)" transform="translate(247 379)"><g><path d="M7.82843 6.82843 7.82854 520.54" stroke="#FFFFFF" stroke-width="2" stroke-miterlimit="8" fill="none" fill-rule="evenodd"/></g></g><path d="M252 383 252 896.711" stroke="#FFFFFF" stroke-width="2" stroke-miterlimit="8" fill="none" fill-rule="evenodd"/></g></svg>